<svg xmlns="http://www.w3.org/2000/svg" viewBox="0 0 13.3 24"><defs><style>.a{fill:#d91a43;}</style></defs><path class="a" d="M6.1,16H4.5a4.1,4.1,0,0,0-.1-1.1,5.9,5.9,0,0,1,.4-2.3A5.1,5.1,0,0,1,7,9.9,6.5,6.5,0,0,0,8.8,8.4a3.6,3.6,0,0,0,.7-1.7,6.6,6.6,0,0,0-.1-1.4A2.7,2.7,0,0,0,7.1,3.4a3.2,3.2,0,0,0-2.3.5A3,3,0,0,0,3.4,6.1v.3c0,.2,0,.2-.2.2H.2c-.2,0-.2,0-.2-.2a3.4,3.4,0,0,1,.3-2A6,6,0,0,1,5,.2,3.2,3.2,0,0,1,6.7.1H8a7.2,7.2,0,0,1,3.7,1.8A6,6,0,0,1,13.2,5,6.9,6.9,0,0,1,13,8.2a6.3,6.3,0,0,1-2.7,3.3,6.1,6.1,0,0,0-1.6,1.2,2.7,2.7,0,0,0-.8,1.9,5.7,5.7,0,0,0-.1,1.3H6.1Z" transform="translate(0 0)"/><path class="a" d="M9.3,21.2a3,3,0,0,1-.2,1.3A2.3,2.3,0,0,1,7,24a2.2,2.2,0,0,1-1.4-.1A2.4,2.4,0,0,1,4,21.7a2,2,0,0,1,.2-1.5,2.4,2.4,0,0,1,2.2-1.5h1A2.6,2.6,0,0,1,9.3,21Z" transform="translate(0 0)"/></svg>