<svg id="switch-active-small" xmlns="http://www.w3.org/2000/svg" width="45" height="22.5" viewBox="0 0 45 22.5">
  <g id="input-checked-container" fill="#748a9d">
    <path d="M 34.375 22 L 10.625 22 C 5.042059898376465 22 0.5 17.45793914794922 0.5 11.875 L 0.5 10.625 C 0.5 5.042059898376465 5.042059898376465 0.5 10.625 0.5 L 34.375 0.5 C 39.95793914794922 0.5 44.5 5.042059898376465 44.5 10.625 L 44.5 11.875 C 44.5 17.45793914794922 39.95793914794922 22 34.375 22 Z" stroke="none"/>
    <path d="M 10.625 1 C 5.317760467529297 1 1 5.317760467529297 1 10.625 L 1 11.875 C 1 17.1822395324707 5.317760467529297 21.5 10.625 21.5 L 34.375 21.5 C 39.6822395324707 21.5 44 17.1822395324707 44 11.875 L 44 10.625 C 44 5.317760467529297 39.6822395324707 1 34.375 1 L 10.625 1 M 10.625 0 L 34.375 0 C 40.2430305480957 0 45 4.756969451904297 45 10.625 L 45 11.875 C 45 17.7430305480957 40.2430305480957 22.5 34.375 22.5 L 10.625 22.5 C 4.756969451904297 22.5 0 17.7430305480957 0 11.875 L 0 10.625 C 0 4.756969451904297 4.756969451904297 0 10.625 0 Z" stroke="none" fill="#707070"/>
  </g>
  <g id="input-checked-active" transform="translate(22.5)">
    <g id="circle-checked-active" fill="#7bed8d">
      <path d="M 11.25 22 C 8.378569602966309 22 5.679009914398193 20.88179969787598 3.648600101470947 18.85140037536621 C 1.618199944496155 16.82098960876465 0.5 14.12143039703369 0.5 11.25 C 0.5 8.378569602966309 1.618199944496155 5.679009914398193 3.648600101470947 3.648600101470947 C 5.679009914398193 1.618199944496155 8.378569602966309 0.5 11.25 0.5 C 14.12143039703369 0.5 16.82098960876465 1.618199944496155 18.85140037536621 3.648600101470947 C 20.88179969787598 5.679009914398193 22 8.378569602966309 22 11.25 C 22 14.12143039703369 20.88179969787598 16.82098960876465 18.85140037536621 18.85140037536621 C 16.82098960876465 20.88179969787598 14.12143039703369 22 11.25 22 Z" stroke="none"/>
      <path d="M 11.25 1 C 5.598129272460938 1 1 5.598129272460938 1 11.25 C 1 16.90187072753906 5.598129272460938 21.5 11.25 21.5 C 16.90187072753906 21.5 21.5 16.90187072753906 21.5 11.25 C 21.5 5.598129272460938 16.90187072753906 1 11.25 1 M 11.25 0 C 17.46319961547852 0 22.5 5.036800384521484 22.5 11.25 C 22.5 17.46319961547852 17.46319961547852 22.5 11.25 22.5 C 5.036800384521484 22.5 0 17.46319961547852 0 11.25 C 0 5.036800384521484 5.036800384521484 0 11.25 0 Z" stroke="none" fill="#707070"/>
    </g>
    <path id="tick" d="M1440.356,4367.538l4.512,4.512,9.488-9.487" transform="translate(-1436.252 -4356.056)" fill="none" stroke="#fff" stroke-linecap="round" stroke-linejoin="round" stroke-width="1"/>
  </g>
</svg>
