<svg id="switch-active" xmlns="http://www.w3.org/2000/svg" width="90" height="45" viewBox="0 0 90 45">
  <g id="input-checked-container" fill="#748a9d">
    <path d="M 68.75 44.5 L 21.25 44.5 C 18.44855308532715 44.5 15.73116493225098 43.95144653320312 13.17331790924072 42.86956405639648 C 10.70248222351074 41.82449340820312 8.483341217041016 40.32826995849609 6.577541351318359 38.42247009277344 C 4.671729564666748 36.51665878295898 3.175505876541138 34.29751586914062 2.130435228347778 31.82668304443359 C 1.048552989959717 29.26884651184082 0.5 26.55145835876465 0.5 23.75 L 0.5 21.25 C 0.5 18.44855308532715 1.048552989959717 15.73116493225098 2.130435228347778 13.17331790924072 C 3.175505876541138 10.70248222351074 4.671729564666748 8.483341217041016 6.577541351318359 6.577541351318359 C 8.483341217041016 4.671729564666748 10.70248222351074 3.175505876541138 13.17331790924072 2.130435228347778 C 15.73116493225098 1.048552989959717 18.44855308532715 0.5 21.25 0.5 L 68.75 0.5 C 71.55146026611328 0.5 74.26884460449219 1.048552989959717 76.82668304443359 2.130435228347778 C 79.29751586914062 3.175505876541138 81.51666259765625 4.671729564666748 83.42247009277344 6.577541351318359 C 85.32826995849609 8.483341217041016 86.82449340820312 10.70248222351074 87.86956787109375 13.17331790924072 C 88.95144653320312 15.73116493225098 89.5 18.44855308532715 89.5 21.25 L 89.5 23.75 C 89.5 26.55145835876465 88.95144653320312 29.26884651184082 87.86956787109375 31.82668304443359 C 86.82449340820312 34.29751586914062 85.32826995849609 36.51665878295898 83.42247009277344 38.42247009277344 C 81.51666259765625 40.32826995849609 79.29751586914062 41.82449340820312 76.82668304443359 42.86956405639648 C 74.26884460449219 43.95144653320312 71.55146026611328 44.5 68.75 44.5 Z" stroke="none"/>
    <path d="M 21.25 1 C 18.51582336425781 1 15.86397552490234 1.535263061523438 13.36808776855469 2.590938568115234 C 10.95686340332031 3.610801696777344 8.7911376953125 5.071037292480469 6.93109130859375 6.931087493896484 C 5.071037292480469 8.7911376953125 3.610801696777344 10.95686340332031 2.590934753417969 13.36808776855469 C 1.535263061523438 15.86397552490234 1 18.51582527160645 1 21.25 L 1 23.75 C 1 26.48417472839355 1.535263061523438 29.13602447509766 2.590934753417969 31.63191223144531 C 3.610801696777344 34.04313659667969 5.071037292480469 36.2088623046875 6.93109130859375 38.06891250610352 C 8.7911376953125 39.92896270751953 10.95686340332031 41.38919830322266 13.36808776855469 42.40906143188477 C 15.86397552490234 43.46473693847656 18.51582336425781 44 21.25 44 L 68.75 44 C 71.48417663574219 44 74.13602447509766 43.46473693847656 76.63191223144531 42.40906143188477 C 79.04313659667969 41.38919830322266 81.2088623046875 39.92896270751953 83.06890869140625 38.06891250610352 C 84.92896270751953 36.2088623046875 86.38919830322266 34.04313659667969 87.40906524658203 31.63191223144531 C 88.46473693847656 29.13602447509766 89 26.48417472839355 89 23.75 L 89 21.25 C 89 18.51582527160645 88.46473693847656 15.86397552490234 87.40906524658203 13.36808776855469 C 86.38919830322266 10.95686340332031 84.92896270751953 8.7911376953125 83.06890869140625 6.931087493896484 C 81.2088623046875 5.071037292480469 79.04313659667969 3.610801696777344 76.63191223144531 2.590938568115234 C 74.13602447509766 1.535263061523438 71.48417663574219 1 68.75 1 L 21.25 1 M 21.25 0 L 68.75 0 C 80.48605346679688 0 90 9.513950347900391 90 21.25 L 90 23.75 C 90 35.48604965209961 80.48605346679688 45 68.75 45 L 21.25 45 C 9.513946533203125 45 0 35.48604965209961 0 23.75 L 0 21.25 C 0 9.513950347900391 9.513946533203125 0 21.25 0 Z" stroke="none" fill="#707070"/>
  </g>
  <g id="input-checked-active" transform="translate(45)">
    <g id="circle-checked-active" fill="#7bed8d">
      <path d="M 22.5 44.5 C 19.52980041503906 44.5 16.64871025085449 43.91838836669922 13.93675994873047 42.77133941650391 C 11.31707000732422 41.66329956054688 8.964249610900879 40.07695007324219 6.943649768829346 38.05635070800781 C 4.923049926757812 36.03575134277344 3.336699962615967 33.68292999267578 2.228660106658936 31.06324005126953 C 1.081609964370728 28.35128974914551 0.5 25.47019958496094 0.5 22.5 C 0.5 19.52980041503906 1.081609964370728 16.64871025085449 2.228660106658936 13.93675994873047 C 3.336699962615967 11.31707000732422 4.923049926757812 8.964249610900879 6.943649768829346 6.943649768829346 C 8.964249610900879 4.923049926757812 11.31707000732422 3.336699962615967 13.93675994873047 2.228660106658936 C 16.64871025085449 1.081609964370728 19.52980041503906 0.5 22.5 0.5 C 25.47019958496094 0.5 28.35128974914551 1.081609964370728 31.06324005126953 2.228660106658936 C 33.68292999267578 3.336699962615967 36.03575134277344 4.923049926757812 38.05635070800781 6.943649768829346 C 40.07695007324219 8.964249610900879 41.66329956054688 11.31707000732422 42.77133941650391 13.93675994873047 C 43.91838836669922 16.64871025085449 44.5 19.52980041503906 44.5 22.5 C 44.5 25.47019958496094 43.91838836669922 28.35128974914551 42.77133941650391 31.06324005126953 C 41.66329956054688 33.68292999267578 40.07695007324219 36.03575134277344 38.05635070800781 38.05635070800781 C 36.03575134277344 40.07695007324219 33.68292999267578 41.66329956054688 31.06324005126953 42.77133941650391 C 28.35128974914551 43.91838836669922 25.47019958496094 44.5 22.5 44.5 Z" stroke="none"/>
      <path d="M 22.5 1 C 19.59708023071289 1 16.78152084350586 1.568321228027344 14.13154029846191 2.689170837402344 C 11.57144927978516 3.771991729736328 9.272048950195312 5.322360992431641 7.297199249267578 7.297199249267578 C 5.322360992431641 9.272048950195312 3.771991729736328 11.57144927978516 2.689170837402344 14.13154029846191 C 1.568321228027344 16.78152084350586 1 19.59708023071289 1 22.5 C 1 25.40291976928711 1.568321228027344 28.21847915649414 2.689170837402344 30.86845970153809 C 3.771991729736328 33.42855072021484 5.322360992431641 35.72795104980469 7.297199249267578 37.70280075073242 C 9.272048950195312 39.67763900756836 11.57144927978516 41.22800827026367 14.13154029846191 42.31082916259766 C 16.78152084350586 43.43167877197266 19.59708023071289 44 22.5 44 C 25.40291976928711 44 28.21847915649414 43.43167877197266 30.86845970153809 42.31082916259766 C 33.42855072021484 41.22800827026367 35.72795104980469 39.67763900756836 37.70280075073242 37.70280075073242 C 39.67763900756836 35.72795104980469 41.22800827026367 33.42855072021484 42.31082916259766 30.86845970153809 C 43.43167877197266 28.21847915649414 44 25.40291976928711 44 22.5 C 44 19.59708023071289 43.43167877197266 16.78152084350586 42.31082916259766 14.13154029846191 C 41.22800827026367 11.57144927978516 39.67763900756836 9.272048950195312 37.70280075073242 7.297199249267578 C 35.72795104980469 5.322360992431641 33.42855072021484 3.771991729736328 30.86845970153809 2.689170837402344 C 28.21847915649414 1.568321228027344 25.40291976928711 1 22.5 1 M 22.5 0 C 34.92641067504883 0 45 10.07358932495117 45 22.5 C 45 34.92641067504883 34.92641067504883 45 22.5 45 C 10.07358932495117 45 0 34.92641067504883 0 22.5 C 0 10.07358932495117 10.07358932495117 0 22.5 0 Z" stroke="none" fill="#707070"/>
    </g>
    <path id="tick" d="M1440.356,4367.538l4.512,4.512,9.488-9.487" transform="translate(-1425.39 -4344.806)" fill="none" stroke="#fff" stroke-linecap="round" stroke-linejoin="round" stroke-width="1"/>
  </g>
</svg>
