<svg id="switch" xmlns="http://www.w3.org/2000/svg" width="96.75" height="58.5" viewBox="0 0 96.75 58.5">
  <path id="checkbox-container" d="M15,0H75A15,15,0,0,1,90,15v1.5a15,15,0,0,1-15,15H15a15,15,0,0,1-15-15V15A15,15,0,0,1,15,0Z" transform="translate(0 13.5)" fill="#748a9d"/>
  <circle id="hover-indicator" cx="29.25" cy="29.25" r="29.25" transform="translate(38.25)" fill="rgba(229,21,21,0)"/>
  <g id="input-checked" transform="translate(45 6.75)">
    <path id="circle-checked-active" d="M22.5,0A22.5,22.5,0,1,1,0,22.5,22.5,22.5,0,0,1,22.5,0Z" fill="#7bed8d"/>
    <path id="tick" d="M1440.356,4367.538l4.512,4.512,9.488-9.487" transform="translate(-1424.856 -4344.806)" fill="none" stroke="#fff" stroke-linecap="round" stroke-linejoin="round" stroke-width="1"/>
    <g id="cross" transform="translate(17.55 17.55)" opacity="0">
      <path id="cR" d="M0,0V14" transform="translate(9.9) rotate(45)" fill="none" stroke="#fff" stroke-linecap="round" stroke-width="1"/>
      <line id="cL" x1="14" transform="translate(0) rotate(45)" fill="none" stroke="#fff" stroke-linecap="round" stroke-linejoin="round" stroke-width="1"/>
    </g>
  </g>
</svg>
