<svg xmlns="http://www.w3.org/2000/svg" xmlns:xlink="http://www.w3.org/1999/xlink" viewBox="0 0 5370.5 989.3"><defs><style>.a{fill:none;}.am,.b{fill:#8cb9ff;}.c{fill:#fff;}.d{fill:#5ccff7;}.e{fill:#df669c;}.f{fill:#f1c154;}.g{fill:#d6a543;}.h{fill:#396099;}.i{fill:#f761af;}.j{fill:#cbe88b;}.k{fill:#fbaa33;}.l{fill:#b77723;}.m{clip-path:url(#a);}.n{clip-path:url(#b);}.o{fill:#8d9b5a;}.p{fill:#a7ba72;}.q{fill:#c2b59b;}.r{fill:#9b8579;}.s{fill:#ad706d;}.t{fill:#231f20;}.u{fill:#ef643f;}.v{fill:#450d20;}.w{fill:#f99591;}.x{fill:#385a64;}.y{fill:#2bcbf7;}.z{fill:#0f122b;}.aa{fill:#314f7c;}.ab{fill:#d1e3ff;}.ac{fill:#619ef7;}.ad{fill:#f241a6;}.ae{fill:#f495cc;}.af{fill:#f8a29a;}.ag{fill:#5d5d5d;}.ah{fill:#e6e7e8;}.ai{fill:#585961;opacity:0.08;}.aj{fill:#f3f4f5;}.ak{fill:#9baf64;}.al{fill:#d1d3d4;}.am{opacity:0.31;}.an{fill:#f7b2da;}</style><clipPath id="a" transform="translate(-176.1 -205.5)"><path class="a" d="M5085.2,1025.6l-117.1-343a83,83,0,0,1,66-109l1.9-.4c51.2-7.8,97,32.4,95.8,84.1l-8.4,362.4C5122.9,1041.6,5092.3,1046.4,5085.2,1025.6Z"/></clipPath><clipPath id="b" transform="translate(-176.1 -205.5)"><path class="a" d="M1005.8,513,643.7,529a83.1,83.1,0,0,1-86.1-94l.3-2a83.1,83.1,0,0,1,107.6-68.2l345.4,109.9C1031.8,481.4,1027.7,512.1,1005.8,513Z"/></clipPath></defs><rect class="b" y="960.9" width="5196.1" height="28.46"/><rect class="b" x="4294.9" y="62.3" width="695" height="898.55"/><rect class="c" x="4330" y="97.4" width="624.8" height="828.36"/><path class="d" d="M4875.3,229.8v-.5a23.9,23.9,0,0,0-23.9-23.8h-75.1a23.9,23.9,0,0,0-23.9,23.8v.5a23.9,23.9,0,0,1-23.9,23.9h-47a23.9,23.9,0,0,0-23.9,23.9v36.5a23.9,23.9,0,0,0,23.9,23.9h264.6a23.9,23.9,0,0,0,23.9-23.9V277.6a23.9,23.9,0,0,0-23.9-23.9h-46.9A23.9,23.9,0,0,1,4875.3,229.8Z" transform="translate(-176.1 -205.5)"/><rect class="c" x="4513.2" y="85.5" width="249.2" height="11.41" rx="5.6"/><rect class="e" x="4400" y="187" width="150.6" height="136.89"/><rect class="c" x="4582.9" y="448.6" width="136.9" height="24.64" transform="translate(860.4 3218.5) rotate(-45)"/><rect class="c" x="4639" y="392.5" width="24.6" height="136.89" transform="translate(860.4 3218.5) rotate(-45)"/><rect class="e" x="4400" y="724.4" width="150.6" height="136.89"/><rect class="c" x="4582.9" y="986" width="136.9" height="24.64" transform="translate(480.4 3376) rotate(-45)"/><rect class="c" x="4639" y="929.9" width="24.6" height="136.89" transform="translate(480.4 3376) rotate(-45)"/><circle class="d" cx="4651.4" cy="729.6" r="91.2" transform="translate(670.4 3297.2) rotate(-45)"/><polygon class="c" points="4472.3 595.8 4412.5 514.6 4427.2 503.8 4469.5 561.2 4517.6 467.6 4533.8 475.9 4472.3 595.8"/><rect class="b" x="4602.2" y="840.3" width="293.6" height="21.06"/><rect class="b" x="4602.2" y="758.6" width="293.6" height="21.06"/><rect class="b" x="4602.2" y="677" width="293.6" height="21.06"/><rect class="b" x="4602.2" y="595.3" width="293.6" height="21.06"/><rect class="b" x="4602.2" y="513.6" width="293.6" height="21.06"/><rect class="b" x="4602.2" y="432" width="293.6" height="21.06"/><rect class="b" x="4602.2" y="350.3" width="293.6" height="21.06"/><rect class="b" x="4602.2" y="268.7" width="293.6" height="21.06"/><rect class="b" x="4602.2" y="187" width="293.6" height="21.06"/><path class="f" d="M4893.8,794.6c-37.8-83.3-39.6-170.3-11-230.8,7-14.8-7-30.8-22.7-26.2a133.7,133.7,0,0,0-16,5.9c-87.1,39.6-111.5,173.2-54.7,298.5s173.6,194.9,260.7,155.3a108.5,108.5,0,0,0,15-8.1c13.8-8.7,10.9-29.8-4.8-34.3C4995.9,936.6,4931.6,877.9,4893.8,794.6Z" transform="translate(-176.1 -205.5)"/><path class="g" d="M4875,541.8c-29.3,66.1-35.8,166.3,6.1,258.6s121.6,153.4,190.6,174.8l2,.8a18.9,18.9,0,0,0-13.4-21.1c-64.4-18.3-128.7-77-166.5-160.3s-39.6-170.3-11-230.8a18.8,18.8,0,0,0-7.1-24A11.8,11.8,0,0,1,4875,541.8Z" transform="translate(-176.1 -205.5)"/><path class="c" d="M4872.8,926.7c-25.3-26.8-46.4-58.5-62.6-94.1l5.3-2.5c16,35.1,36.7,66.2,61.5,92.5Z" transform="translate(-176.1 -205.5)"/><path class="c" d="M4795.2,772.8l-5.6,1.5c-8-30.9-11.4-61.4-10.1-90.8l5.9.2C4784.1,712.6,4787.4,742.5,4795.2,772.8Z" transform="translate(-176.1 -205.5)"/><rect class="g" x="4859.7" y="518.1" width="50.9" height="24.57" rx="12.2" transform="translate(1387 3945.6) rotate(-53.7)"/><path class="f" d="M2957.5,432.9c-91.4.5-171.6-33.3-215.2-84.1-10.7-12.4-31-6.2-33.2,10.1a136.1,136.1,0,0,0-1.1,17c.6,95.6,112.6,172.4,250.2,171.6s248.7-79,248.2-174.6a137.5,137.5,0,0,0-1.3-17c-2.4-16.2-22.8-22.2-33.3-9.6C3128.8,397.6,3049,432.3,2957.5,432.9Z" transform="translate(-176.1 -205.5)"/><path class="g" d="M2719.1,347c48.3,53.7,137.2,100.5,238.5,99.9s189.7-48.5,237.4-102.7l1.5-1.6a18.8,18.8,0,0,0-24.7,3.7c-43,51.3-122.8,86-214.3,86.6s-171.6-33.3-215.2-84.1a18.8,18.8,0,0,0-24.8-3.3A11,11,0,0,1,2719.1,347Z" transform="translate(-176.1 -205.5)"/><path class="c" d="M3069.5,505.9c-34.8,12.3-72.3,18.6-111.4,18.8v-5.8c38.6-.3,75.4-6.5,109.6-18.5Z" transform="translate(-176.1 -205.5)"/><path class="c" d="M2897.4,514l-.9,5.8c-31.5-5.3-60.7-14.7-87-27.9l2.6-5.2C2837.9,499.6,2866.6,508.8,2897.4,514Z" transform="translate(-176.1 -205.5)"/><rect class="g" x="2700.4" y="307.6" width="24.6" height="50.89" rx="12.2" transform="translate(13.2 1177.3) rotate(-29.6)"/><path class="h" d="M4226.3,722.5v443.8H4085.7V527h145.1l206.6,438.1V527H4578v639.3H4435.6Z" transform="translate(-176.1 -205.5)"/><polygon class="d" points="2409.5 387.8 2363.1 387.8 2363.1 385.1 2406.8 385.1 2406.8 341.5 2409.5 341.5 2409.5 387.8"/><path class="d" d="M2521.8,593.3h-86.9v-2.7h86.9Zm-104.3,0h-86.9v-2.7h86.9Z" transform="translate(-176.1 -205.5)"/><polygon class="d" points="2137.2 387.8 2090.9 387.8 2090.9 341.5 2093.6 341.5 2093.6 385.1 2137.2 385.1 2137.2 387.8"/><path class="d" d="M2269.6,529.5h-2.7V442.6h2.7Zm0-104.2h-2.7V338.4h2.7Z" transform="translate(-176.1 -205.5)"/><polygon class="d" points="2093.6 115.5 2090.9 115.5 2090.9 69.2 2137.2 69.2 2137.2 71.9 2093.6 71.9 2093.6 115.5"/><path class="d" d="M2521.8,277.3h-86.9v-2.7h86.9Zm-104.3,0h-86.9v-2.7h86.9Z" transform="translate(-176.1 -205.5)"/><polygon class="d" points="2409.5 115.5 2406.8 115.5 2406.8 71.9 2363.1 71.9 2363.1 69.2 2409.5 69.2 2409.5 115.5"/><path class="d" d="M2585.5,529.5h-2.7V442.6h2.7Zm0-104.2h-2.7V338.4h2.7Z" transform="translate(-176.1 -205.5)"/><rect class="i" x="2279.4" y="101.6" width="102.6" height="125.54"/><circle class="c" cx="2330.7" cy="141.6" r="23.8"/><path class="c" d="M2538.3,409.3v23.3h-63.1V409.3a31.3,31.3,0,0,1,31.3-31.2h.6A31.2,31.2,0,0,1,2538.3,409.3Z" transform="translate(-176.1 -205.5)"/><rect class="d" x="2117.9" y="254.6" width="264.6" height="18.9"/><rect class="j" x="2117.9" y="295.1" width="205" height="18.9"/><rect class="d" x="2117.9" y="336.5" width="159.3" height="18.9"/><polygon class="j" points="2243.4 158.5 2198.6 158.5 2198.6 113.7 2174.8 113.7 2174.8 158.5 2130 158.5 2130 182.4 2174.8 182.4 2174.8 227.1 2198.6 227.1 2198.6 182.4 2243.4 182.4 2243.4 158.5"/><path class="k" d="M5085.2,1025.6l-117.1-343a83,83,0,0,1,66-109l1.9-.4c51.2-7.8,97,32.4,95.8,84.1l-8.4,362.4C5122.9,1041.6,5092.3,1046.4,5085.2,1025.6Z" transform="translate(-176.1 -205.5)"/><path class="l" d="M5036,573.2h-.2c44.8,1.1,82,38.4,80.9,85l-8.4,362.4a18.8,18.8,0,0,1-10.9,17.2c11.3,3.7,25.7-3.2,26-18.2l8.4-362.4C5133,605.6,5087.2,565.4,5036,573.2Z" transform="translate(-176.1 -205.5)"/><path class="c" d="M5019.3,768.1a2.4,2.4,0,0,1-2.7-1.6l-33.4-97.7a2.4,2.4,0,1,1,4.6-1.6l33.4,97.7a2.3,2.3,0,0,1-1.5,3.1Z" transform="translate(-176.1 -205.5)"/><path class="c" d="M5074.8,930.8a2.5,2.5,0,0,1-2.7-1.6l-36-105.5a2.5,2.5,0,0,1,1.5-3.1,2.6,2.6,0,0,1,3.2,1.5l36,105.5a2.5,2.5,0,0,1-1.5,3.1Z" transform="translate(-176.1 -205.5)"/><ellipse class="l" cx="5037.9" cy="591.6" rx="21.9" ry="10.2" transform="translate(-207.4 569.2) rotate(-8.8)"/><path class="j" d="M5030.7,456.6l18,117c1.8,11.7-2.6,22-9.9,23.2h-.3c-7.3,1.1-14.7-7.4-16.5-19.1l-18-117c-1.8-11.7,2.7-22.1,10-23.2h.2C5021.5,436.3,5028.9,444.9,5030.7,456.6Z" transform="translate(-176.1 -205.5)"/><path class="j" d="M4974.7,473l66,98.3c6.6,9.8,7,21.1.8,25.2l-.2.2c-6.1,4.1-16.4-.5-23-10.3l-66-98.3c-6.6-9.8-7-21.1-.8-25.2l.2-.2C4957.8,458.6,4968.1,463.2,4974.7,473Z" transform="translate(-176.1 -205.5)"/><path class="j" d="M5062.3,459.5,5029,573.1c-3.3,11.3-.3,22.2,6.8,24.3h.3c7.1,2.1,15.5-5.4,18.9-16.8l33.3-113.6c3.3-11.3.3-22.2-6.8-24.3h-.3C5074.1,440.7,5065.7,448.2,5062.3,459.5Z" transform="translate(-176.1 -205.5)"/><rect class="l" x="5019.6" y="675.8" width="64.9" height="3.93" transform="translate(-218.2 649.5) rotate(-9.6)"/><rect class="l" x="5057.1" y="757.5" width="64.9" height="3.93" transform="translate(-231.4 656.8) rotate(-9.6)"/><rect class="l" x="5073" y="854.5" width="52.1" height="3.93" transform="translate(-247.4 680) rotate(-9.9)"/><g class="m"><rect class="l" x="4956" y="649.8" width="64.9" height="3.93" transform="translate(-214.8 638.4) rotate(-9.6)"/><rect class="l" x="4975.6" y="738.3" width="64.9" height="3.93" transform="translate(-229.3 642.9) rotate(-9.6)"/><rect class="l" x="4996.6" y="816.6" width="64.9" height="3.93" transform="translate(-242.1 647.5) rotate(-9.6)"/><rect class="l" x="5035.2" y="913" width="52.1" height="3.93" transform="translate(-258 674.4) rotate(-9.9)"/><rect class="l" x="5047.3" y="971.8" width="52.1" height="3.93" transform="translate(-267.9 677.5) rotate(-9.9)"/></g><path class="k" d="M1005.8,513,643.7,529a83.1,83.1,0,0,1-86.1-94l.3-2a83.1,83.1,0,0,1,107.6-68.2l345.4,109.9C1031.8,481.4,1027.7,512.1,1005.8,513Z" transform="translate(-176.1 -205.5)"/><path class="l" d="M557.9,433v.3c13.7-42.7,60-67.9,104.4-53.8l345.4,110a18.6,18.6,0,0,1,13.4,15.3c6.8-9.8,4.2-25.5-10.1-30.1L665.5,364.8A83.1,83.1,0,0,0,557.9,433Z" transform="translate(-176.1 -205.5)"/><path class="c" d="M740.2,503.9a2.6,2.6,0,0,1-2.3,2.2l-103.2,4.5a2.5,2.5,0,0,1-2.6-2.3,2.5,2.5,0,0,1,2.4-2.6l103.1-4.5a2.3,2.3,0,0,1,2.6,2.3Z" transform="translate(-176.1 -205.5)"/><path class="c" d="M911.9,496.4a2.5,2.5,0,0,1-2.3,2.1l-111.3,4.9a2.5,2.5,0,0,1-2.6-2.3,2.4,2.4,0,0,1,2.3-2.6l111.4-4.9a2.5,2.5,0,0,1,2.6,2.3A.9.9,0,0,1,911.9,496.4Z" transform="translate(-176.1 -205.5)"/><ellipse class="l" cx="576" cy="436.5" rx="21.9" ry="10.2" transform="translate(-108.5 744.5) rotate(-82.4)"/><path class="j" d="M444.4,405.3l117.4,15.6c11.7,1.6,20.4,8.8,19.4,16.1v.3c-1,7.3-11.3,12-23,10.4L440.9,432.1c-11.7-1.5-20.5-8.7-19.5-16v-.3C422.4,408.5,432.7,403.8,444.4,405.3Z" transform="translate(-176.1 -205.5)"/><path class="j" d="M444.5,463.7,557.3,428c11.3-3.6,22.2-.7,24.5,6.3v.3c2.3,7-5.1,15.6-16.3,19.2L452.6,489.5c-11.2,3.5-22.2.7-24.4-6.3v-.3C425.9,475.9,433.2,467.3,444.5,463.7Z" transform="translate(-176.1 -205.5)"/><path class="j" d="M456.1,375.8l99.7,63.9c9.9,6.4,21.2,6.5,25.2.3l.2-.2c3.9-6.2-.9-16.4-10.8-22.8l-99.7-63.9c-9.9-6.4-21.2-6.6-25.2-.3v.2C441.4,359.2,446.2,369.4,456.1,375.8Z" transform="translate(-176.1 -205.5)"/><rect class="l" x="630.2" y="445.1" width="64.9" height="3.93" transform="translate(-34.7 847.6) rotate(-83.3)"/><rect class="l" x="719.2" y="432.1" width="64.9" height="3.93" transform="translate(56.8 924.5) rotate(-83.3)"/><rect class="l" x="821.3" y="450.3" width="52.1" height="3.93" transform="translate(126.4 1037.7) rotate(-83.5)"/><g class="n"><rect class="l" x="587.4" y="498.9" width="64.9" height="3.93" transform="translate(-125.9 852.6) rotate(-83.3)"/><rect class="l" x="677.8" y="504.9" width="64.9" height="3.93" transform="translate(-52.1 947.7) rotate(-83.3)"/><rect class="l" x="758.8" y="506.8" width="64.9" height="3.93" transform="translate(17.6 1029.8) rotate(-83.3)"/><rect class="l" x="866.9" y="502.9" width="52.1" height="3.93" transform="translate(114.5 1129.7) rotate(-83.5)"/><rect class="l" x="926.7" y="507.9" width="52.1" height="3.93" transform="translate(162.6 1193.5) rotate(-83.5)"/></g><path class="j" d="M5508.1,657a73.3,73.3,0,0,0-6.9-3.4c.8-26.1-13.1-52.2-38.4-66.4a75.5,75.5,0,0,0-33.8-9.8,75.1,75.1,0,0,0-37-50.3c-32.5-18.3-72.2-10.5-93.3,16.8a76.4,76.4,0,0,0-9.4-6.2c-35.5-20-79.7-8.8-98.7,24.9s-5.9,76.7,28.9,96.9l-62.9,270.8,93.7,48.3,176.1-208.2a82.4,82.4,0,0,0,12.7,8.9c35.5,20,79.7,8.8,98.7-25S5543.6,677,5508.1,657Z" transform="translate(-176.1 -205.5)"/><path class="o" d="M5500.3,666a73.7,73.7,0,0,0-6.9-3.4c.9-26.1-13.1-52.2-38.3-66.4a75.5,75.5,0,0,0-33.9-9.8,75,75,0,0,0-37-50.3c-32.5-18.3-72.2-10.5-93.3,16.9a77,77,0,0,0-9.4-6.3c-29.5-16.6-65-11.7-87,9.9a61.7,61.7,0,0,0-3.9,6c-18.9,33.5-5.9,76.7,28.9,96.9l-2.7,11.7a73.8,73.8,0,0,0,15.5,5.6c2.4,18.5,14.2,36.5,33.1,47.2s41.4,11.5,58.6,3.4c1.6,19.2,13.5,38.2,33.1,49.3s43.2,11.3,60.7,1.9a3.9,3.9,0,0,0,1,.8l7.6-9a82.4,82.4,0,0,0,12.7,8.9c29.5,16.6,65,11.7,87.1-9.8a56,56,0,0,0,3.8-6.1C5549.1,729.6,5535.8,686,5500.3,666Z" transform="translate(-176.1 -205.5)"/><path class="p" d="M5508.1,657a73.3,73.3,0,0,0-6.9-3.4c.8-26.1-13.1-52.2-38.4-66.4a75.5,75.5,0,0,0-33.8-9.8,75.1,75.1,0,0,0-37-50.3c-32.5-18.3-72.2-10.5-93.3,16.8a76.4,76.4,0,0,0-9.4-6.2c-35.5-20-79.7-8.8-98.7,24.9s-5.7,77.4,29.7,97.4a80.7,80.7,0,0,0,19.8,7.8c2.3,18.5,14.1,36.5,33.1,47.2s41.4,11.4,58.6,3.3c1.6,19.3,13.5,38.3,33,49.3s43.3,11.4,60.8,2a82.7,82.7,0,0,0,13.5,9.7c35.5,20,79.7,8.8,98.7-25S5543.6,677,5508.1,657Z" transform="translate(-176.1 -205.5)"/><path class="j" d="M5253.2,640.2c14.7-26,48.4-34.9,76.1-20.5l-1.8-1c-30-16.9-66.4-9.1-81.4,17.5s-2.9,61.9,27.1,78.8l1.8,1C5248.3,699.8,5238.5,666.3,5253.2,640.2Z" transform="translate(-176.1 -205.5)"/><path class="j" d="M5339.6,698.4c12.9-22.7,44.4-29.3,71.2-15.2l-1.8-1.1c-29-16.3-63.2-10.8-76.3,12.4s-.1,55.3,29,71.7l1.8.9C5337.5,751.5,5326.8,721.1,5339.6,698.4Z" transform="translate(-176.1 -205.5)"/><path class="o" d="M5450.5,660.1c-5.5,14.4-34.6-2.3-45.8-6.7-18.3-7.2-36.2-15.8-52.6-26.7-10.1-6.7-50.3-33-43.7-39.8,26.5-27.4,78.4,21.3,115.1,39.4,8.8,4.4,29.6,18.8,27.7,31.2A16.3,16.3,0,0,1,5450.5,660.1Z" transform="translate(-176.1 -205.5)"/><ellipse class="j" cx="5485.3" cy="710.7" rx="11.1" ry="14.6" transform="translate(1996.4 4934.6) rotate(-60.6)"/><ellipse class="j" cx="5242.5" cy="563.8" rx="11.1" ry="14.6" transform="translate(2000.9 4648.3) rotate(-60.6)"/><ellipse class="j" cx="5372.6" cy="549.8" rx="11.1" ry="14.6" transform="translate(2079.3 4754.5) rotate(-60.6)"/><rect class="p" x="5131" y="820.9" width="190.4" height="15.21" transform="translate(2582.3 5303.8) rotate(-71.2)"/><rect class="p" x="5190.1" y="854.3" width="190.4" height="15.21" transform="translate(1218.3 4335.8) rotate(-52.7)"/><path class="q" d="M5417.7,878.7v2.9a284.4,284.4,0,0,1-5,53.4c-1.1,6-2.4,11.8-3.9,17.6-31.5,123-143.2,214-276,214H5007.7c-132.9,0-244.5-91-276-214-1.5-5.8-2.8-11.6-3.9-17.6a284.4,284.4,0,0,1-5-53.4v-2.9Z" transform="translate(-176.1 -205.5)"/><path class="c" d="M4839.3,1082.8a2.7,2.7,0,0,1-2.1-.9,288.3,288.3,0,0,1-66.3-109,2.9,2.9,0,1,1,5.5-1.8,283.9,283.9,0,0,0,65,106.7,2.9,2.9,0,0,1-.1,4.1A2.8,2.8,0,0,1,4839.3,1082.8Z" transform="translate(-176.1 -205.5)"/><path class="c" d="M4935.5,1148.1a2.3,2.3,0,0,1-1.1-.2,293.2,293.2,0,0,1-48.9-25.9,2.9,2.9,0,1,1,3.2-4.9,278.7,278.7,0,0,0,48,25.4,2.9,2.9,0,0,1-1.2,5.6Z" transform="translate(-176.1 -205.5)"/><path class="r" d="M5381.5,878.7v2.9a302.2,302.2,0,0,1-4.8,53.4c-1,6-2.3,11.8-3.7,17.6-29.9,123-135.7,214-261.6,214h21.4c132.8,0,244.5-91,276-214,1.5-5.8,2.8-11.6,3.9-17.6a284.4,284.4,0,0,0,5-53.4v-2.9Z" transform="translate(-176.1 -205.5)"/><path class="c" d="M5412.7,935c-1.1,6-2.4,11.8-3.9,17.6H4731.7c-1.5-5.8-2.8-11.6-3.9-17.6Z" transform="translate(-176.1 -205.5)"/><path class="h" d="M535.2,1165.4V527.9l235.5.4q97.5,0,166.5,69.1t69,166.5V930.4q0,97.5-69,166.5t-166.5,69ZM675.9,612v471.9H772c26.1,0,48.5-9.2,67-27.8s27.8-41,27.8-67.4V706.9c0-26.1-9.2-48.5-27.8-67S798.1,612,772,612Z" transform="translate(-176.1 -205.5)"/><path class="h" d="M1718.5,807v79.7H1422.9v199l295.6.5v80.1H1282.2V527h436.3v80.6H1422.9V807Z" transform="translate(-176.1 -205.5)"/><path class="h" d="M2052.4,608.5v557.8H1911.7V608.5H1771.5V527h421.6v81.5Z" transform="translate(-176.1 -205.5)"/><path class="h" d="M2787.8,527q73,0,124.7,51.7t51.6,124.6V710q0,73.1-51.6,124.9t-124.7,51.8H2616v279.6H2475.3V527ZM2616,607.6V807.5h137.1q29.4,0,50.3-20.9c14-14,20.9-30.9,20.9-50.8V678.4c0-19.3-6.9-35.9-20.9-49.9s-30.7-20.9-50.3-20.9Z" transform="translate(-176.1 -205.5)"/><path class="h" d="M3166.7,1085.7h295.6v80.6H3026V527l140.7.5Z" transform="translate(-176.1 -205.5)"/><path class="b" d="M1733,533.8H1389.3c-12.3,0-21.4-10-20.4-22.4l21-239.5a24.9,24.9,0,0,1,24.3-22.3h343.7a20.2,20.2,0,0,1,20.4,22.3l-21,239.5A24.8,24.8,0,0,1,1733,533.8Z" transform="translate(-176.1 -205.5)"/><path class="c" d="M1446.8,504.5h-31.9l2.6-29.8h31.9Zm-30.8-1h29.9l2.4-27.8h-29.9Z" transform="translate(-176.1 -205.5)"/><path class="c" d="M1491.1,504.5h-31.9l2.6-29.8h31.9Zm-30.8-1h29.9l2.4-27.8h-29.9Z" transform="translate(-176.1 -205.5)"/><path class="c" d="M1535.4,504.5h-31.9l2.6-29.8H1538Zm-30.8-1h29.9l2.4-27.8H1507Z" transform="translate(-176.1 -205.5)"/><path class="c" d="M1579.7,504.5h-31.9l2.6-29.8h31.9Zm-30.8-1h29.9l2.4-27.8h-29.9Z" transform="translate(-176.1 -205.5)"/><path class="c" d="M1624,504.5h-31.9l2.6-29.8h31.9Zm-30.8-1h29.9l2.4-27.8h-29.9Z" transform="translate(-176.1 -205.5)"/><polygon class="c" points="1491.8 298.6 1460.9 298.6 1463.4 269.7 1494.3 269.7 1491.8 298.6"/><polygon class="c" points="1536.1 298.6 1505.2 298.6 1507.7 269.7 1538.6 269.7 1536.1 298.6"/><path class="c" d="M1461.1,341.8h-32l2.6-29.9h32Zm-30.8-1.1h29.8l2.5-27.8h-29.9Z" transform="translate(-176.1 -205.5)"/><path class="c" d="M1505.4,341.8h-32l2.6-29.9h32Zm-30.9-1.1h29.9l2.5-27.8H1477Z" transform="translate(-176.1 -205.5)"/><path class="c" d="M1549.7,341.8h-32l2.6-29.9h32Zm-30.9-1.1h29.9l2.4-27.8h-29.8Z" transform="translate(-176.1 -205.5)"/><path class="c" d="M1593.9,341.8H1562l2.6-29.9h32Zm-30.8-1.1H1593l2.4-27.8h-29.8Z" transform="translate(-176.1 -205.5)"/><path class="c" d="M1638.2,341.8h-31.9l2.6-29.9h32Zm-30.8-1.1h29.9l2.4-27.8h-29.8Z" transform="translate(-176.1 -205.5)"/><polygon class="c" points="1506 135.8 1475.1 135.8 1477.6 107 1508.5 107 1506 135.8"/><polygon class="c" points="1550.3 135.8 1519.4 135.8 1521.9 107 1552.8 107 1550.3 135.8"/><path class="c" d="M1457.5,382.5h-31.9l2.6-29.9h31.9Zm-30.8-1.1h29.9l2.4-27.8h-29.9Z" transform="translate(-176.1 -205.5)"/><path class="c" d="M1501.8,382.5h-31.9l2.6-29.9h31.9Zm-30.8-1.1h29.9l2.4-27.8h-29.9Z" transform="translate(-176.1 -205.5)"/><path class="c" d="M1546.1,382.5h-31.9l2.6-29.9h31.9Zm-30.8-1.1h29.9l2.4-27.8h-29.9Z" transform="translate(-176.1 -205.5)"/><path class="c" d="M1590.4,382.5h-31.9l2.6-29.9H1593Zm-30.8-1.1h29.8l2.5-27.8H1562Z" transform="translate(-176.1 -205.5)"/><path class="c" d="M1634.7,382.5h-32l2.7-29.9h31.9Zm-30.8-1.1h29.8l2.5-27.8h-29.9Z" transform="translate(-176.1 -205.5)"/><polygon class="c" points="1502.4 176.5 1471.5 176.5 1474.1 147.6 1505 147.6 1502.4 176.5"/><polygon class="c" points="1546.7 176.5 1515.8 176.5 1518.4 147.6 1549.3 147.6 1546.7 176.5"/><path class="c" d="M1453.9,423.2H1422l2.6-29.9h32Zm-30.8-1.1H1453l2.4-27.8h-29.8Z" transform="translate(-176.1 -205.5)"/><path class="c" d="M1498.2,423.2h-31.9l2.6-29.9h32Zm-30.8-1.1h29.9l2.4-27.8h-29.8Z" transform="translate(-176.1 -205.5)"/><path class="c" d="M1542.5,423.2h-31.9l2.6-29.9h31.9Zm-30.8-1.1h29.9l2.4-27.8h-29.8Z" transform="translate(-176.1 -205.5)"/><path class="c" d="M1586.8,423.2h-31.9l2.6-29.9h31.9Zm-30.8-1.1h29.9l2.4-27.8h-29.9Z" transform="translate(-176.1 -205.5)"/><path class="c" d="M1631.1,423.2h-31.9l2.6-29.9h31.9Zm-30.8-1.1h29.9l2.4-27.8h-29.9Z" transform="translate(-176.1 -205.5)"/><polygon class="c" points="1498.9 217.2 1468 217.2 1470.5 188.3 1501.4 188.3 1498.9 217.2"/><polygon class="c" points="1543.2 217.2 1512.3 217.2 1514.8 188.3 1545.7 188.3 1543.2 217.2"/><path class="c" d="M1450.4,463.8h-31.9l2.6-29.8H1453Zm-30.8-1h29.8l2.5-27.8H1422Z" transform="translate(-176.1 -205.5)"/><path class="c" d="M1494.7,463.8h-32l2.7-29.8h31.9Zm-30.8-1h29.8l2.5-27.8h-29.9Z" transform="translate(-176.1 -205.5)"/><path class="c" d="M1539,463.8h-32l2.7-29.8h31.9Zm-30.8-1H1538l2.5-27.8h-29.9Z" transform="translate(-176.1 -205.5)"/><path class="c" d="M1583.3,463.8h-32l2.6-29.8h32Zm-30.8-1h29.8l2.5-27.8h-29.9Z" transform="translate(-176.1 -205.5)"/><path class="c" d="M1627.6,463.8h-32l2.6-29.8h32Zm-30.9-1h29.9l2.5-27.8h-29.9Z" transform="translate(-176.1 -205.5)"/><polygon class="c" points="1495.3 257.9 1464.4 257.9 1466.9 229 1497.8 229 1495.3 257.9"/><polygon class="c" points="1539.6 257.9 1508.7 257.9 1511.2 229 1542.1 229 1539.6 257.9"/><path class="j" d="M1465.6,283.9h-15a8.7,8.7,0,0,1-8.7-9.5l3-33.5a10.5,10.5,0,0,1,10.3-9.5h15a8.6,8.6,0,0,1,8.7,9.5l-3,33.5A10.6,10.6,0,0,1,1465.6,283.9Z" transform="translate(-176.1 -205.5)"/><path class="j" d="M1530.4,283.9h-14.9a8.6,8.6,0,0,1-8.7-9.5l2.9-33.5a10.6,10.6,0,0,1,10.4-9.5H1535a8.5,8.5,0,0,1,8.7,9.5l-2.9,33.5A10.7,10.7,0,0,1,1530.4,283.9Z" transform="translate(-176.1 -205.5)"/><path class="j" d="M1595.3,283.9h-15a8.7,8.7,0,0,1-8.7-9.5l3-33.5a10.5,10.5,0,0,1,10.3-9.5h15a8.6,8.6,0,0,1,8.7,9.5l-3,33.5A10.6,10.6,0,0,1,1595.3,283.9Z" transform="translate(-176.1 -205.5)"/><path class="j" d="M1660.1,283.9h-14.9a8.6,8.6,0,0,1-8.7-9.5l2.9-33.5a10.6,10.6,0,0,1,10.4-9.5h14.9a8.5,8.5,0,0,1,8.7,9.5l-2.9,33.5A10.7,10.7,0,0,1,1660.1,283.9Z" transform="translate(-176.1 -205.5)"/><path class="j" d="M1725,283.9h-15a8.7,8.7,0,0,1-8.7-9.5l3-33.5a10.5,10.5,0,0,1,10.3-9.5h15a8.6,8.6,0,0,1,8.7,9.5l-3,33.5A10.6,10.6,0,0,1,1725,283.9Z" transform="translate(-176.1 -205.5)"/><polygon class="c" points="1600.8 81.7 1212.6 81.7 1212.1 87.8 1600.2 87.8 1600.8 81.7"/><path class="s" d="M1608,768.9l13.3,9.7c68-53.2,99.2-141.2,111.1-174.9,3.7-10.7,3.9-18.8,2.4-25.1-4-15.8-24.7-19.4-34.2-6.2a74.9,74.9,0,0,0-8.4,16.2C1676.3,629.7,1608,768.9,1608,768.9Z" transform="translate(-176.1 -205.5)"/><path class="c" d="M1710.2,560.4a22.1,22.1,0,0,1,25.9,9.3,24.2,24.2,0,0,1,2.9,15c-.8,7.8-9.7,46.5-29.3,81.9-26.5,47.8-65.5,94.2-65.5,94.2l-20.3-24.9,75.6-165.1a18.8,18.8,0,0,1,10.4-10.3Z" transform="translate(-176.1 -205.5)"/><path class="s" d="M1595.4,781.8s-17.2,8.8-17.8,7.3c-1.7-3.7,22.1-16.7,20.2-19.1s-8.7-1.3-12.1-.3a1.3,1.3,0,0,1-1.6-1c-.3-1.4-.2-3.6,3.3-4.9a67.9,67.9,0,0,1,26.2-4,169.1,169.1,0,0,1,11.9,13.7c-2,3.6-15.4,26.4-24.5,31.9a.9.9,0,0,1-1.4-.8c0-1.6.9-4.7,5.6-10.7,0,0-13.1,9.8-16.2,9.4s11.3-15.3,11.3-15.3-16,9.5-18.6,8.1S1595.4,781.8,1595.4,781.8Z" transform="translate(-176.1 -205.5)"/><path class="s" d="M1787,704.6s37,25.9,43.5,85.8c2.3,20.7,4.1,67.8,5.5,120.4,35.8,82.9,74.9,177.4,79.7,189a51.2,51.2,0,0,1,9.3,17.3c.9,3-46.8,3.1-45.5,1l-40.7-74.6L1781.6,941a76.9,76.9,0,0,1-9.2-27.6l-20.8-161.2-2.1-16.1Z" transform="translate(-176.1 -205.5)"/><path class="t" d="M1836.2,1166.3a2,2,0,0,0,1.3-.2l76.4-31.2,2.7-1.1,7.6-3.1a8,8,0,0,0,4.2-10.9l-3.9-8-1.2-2.6-1.9-3.7a8.8,8.8,0,0,0-11.2-4.4l-33.3,13.4.2,8-43.5,34.5c-.6.6-.7,2.1-.4,3.7a11.9,11.9,0,0,0,.7,2.7C1834.5,1164.9,1835.3,1166.2,1836.2,1166.3Z" transform="translate(-176.1 -205.5)"/><path class="c" d="M1913.9,1134.8h0l2.7-1.1-.5-.7a13.4,13.4,0,0,1,2.8-18.7,13.7,13.7,0,0,1,5.6-2.6l-1.2-2.6a18.3,18.3,0,0,0-6.1,3A16.1,16.1,0,0,0,1913.9,1134.8Z" transform="translate(-176.1 -205.5)"/><rect class="c" x="1874.3" y="1126.7" width="2.8" height="7.2" transform="translate(-406.8 1523.7) rotate(-46.9)"/><rect class="c" x="1865.7" y="1133.4" width="2.8" height="7.2" transform="translate(-414.5 1519.5) rotate(-46.9)"/><rect class="c" x="1857.1" y="1140.2" width="2.8" height="7.2" transform="translate(-422.1 1515.4) rotate(-46.9)"/><rect class="c" x="1848.5" y="1147" width="2.8" height="7.2" transform="translate(-429.8 1511.4) rotate(-46.9)"/><path class="c" d="M1833.9,1163.4l78.9-34.2-1.1-2.6-78.5,34.1A11.9,11.9,0,0,0,1833.9,1163.4Z" transform="translate(-176.1 -205.5)"/><polygon class="t" points="1688.7 886 1730.3 872.1 1726.5 862.3 1688.7 886"/><path class="s" d="M1654.6,1119.5c1.8-24.6,20.8-281.3,36.1-336.5,2.6-9.1,5.3-17.4,8.2-24.9,6.2,1.4,12.5,2.6,19,3.4,9.4,1.1,19,1.3,28.4,2.6,7.6,1,14.8,3.4,22.2,5.1l-79.1,356.6a50.8,50.8,0,0,1-2.6,20.1C1685.7,1148.8,1650.4,1120.9,1654.6,1119.5Z" transform="translate(-176.1 -205.5)"/><polygon class="t" points="1480.4 891.2 1515.4 911.6 1517.6 901.7 1480.4 891.2"/><polygon class="d" points="1452.7 883.5 1528.9 904.9 1574.6 673.9 1574.9 671.2 1579.2 635.8 1593.9 514.4 1594.2 511.7 1596 496.5 1565.3 497.1 1530.6 497.8 1527.4 512.5 1526.9 515.2 1493.5 671.2 1492.9 673.9 1452.7 883.5"/><polygon class="t" points="1579.2 635.7 1572.9 597.8 1575.6 663.6 1579.2 635.7"/><path class="d" d="M1741.3,701.9a2,2,0,0,0,.1.7c.1,2.2.7,7.6,1.4,15.1l.3,2.7c2.8,28.1,8.2,81.3,12.2,120.8,1.4,14.2,2.7,26.6,3.6,35.4,0,1,8.3,55.4,8.4,56.3.7,7,79.1,168.2,79.1,168.2l60.9-32.3,2.5-1.3,6-3.1c0-3.7-76.1-181.4-76.1-185v-2.8a638.6,638.6,0,0,0-11-112.2,29.3,29.3,0,0,1-.5-2.9c-3.5-17.7-7.1-32-9.9-42.2a26.8,26.8,0,0,1-.7-2.7c-2.8-9.5-4.6-14.7-4.6-14.7Z" transform="translate(-176.1 -205.5)"/><path class="s" d="M1706.5,624.1c1.9,18.7,3,41.6,3.6,55.4h97c-.1-23.2,5.1-53.7,10.8-86.9,3.4-19.7-1.8-30.2-7.7-35.8a24.4,24.4,0,0,0-15.9-6.3,34,34,0,0,1-13.4-3c-5.8-18.3-.1-52.8.6-57.3a.6.6,0,0,0,.1-.4l-47.4,26.7a12.3,12.3,0,0,1,1.4,5.2,45.9,45.9,0,0,1-.2,9c-.2,1.9-.5,3.7-.8,5.5s-1.3,6.4-1.9,8.8l-.9,3.5c-5,6.1-12,8.3-22.1,14.4C1694.2,572.2,1703.8,598,1706.5,624.1Z" transform="translate(-176.1 -205.5)"/><path class="i" d="M1731,547.7c12.6,39,49.9.5,49.9.5s12.8,1.9,20.7,2.3,19.7,7,18.4,30.8-3.8,64.1-4,67.1-3.2,53.8-3.2,53.8l-106.9,2.7-6.4-127.4a20.1,20.1,0,0,1,14.6-18.6C1728.7,554.2,1731,547.7,1731,547.7Z" transform="translate(-176.1 -205.5)"/><path class="t" d="M1587.6,1130.6a4.1,4.1,0,0,0,1.1.7l79.7,21.9,2.8.8,7.8,2.1a7.9,7.9,0,0,0,10-6.1l1.8-8.7.6-2.7.8-4.1a8.7,8.7,0,0,0-6.2-10.3l-32.2-9.3-7.1,6-55.6.8c-.8.1-1.8,1.2-2.5,2.7a20.3,20.3,0,0,0-1.1,2.6C1587.1,1128.5,1586.9,1130,1587.6,1130.6Z" transform="translate(-176.1 -205.5)"/><path class="c" d="M1668.4,1153.1h0l2.8.8a3.1,3.1,0,0,1-.1-.9,13.3,13.3,0,0,1,13.6-13.1,15.1,15.1,0,0,1,6.1,1.3l.6-2.7a16.7,16.7,0,0,0-6.7-1.4A16.1,16.1,0,0,0,1668.4,1153.1Z" transform="translate(-176.1 -205.5)"/><rect class="c" x="1639.4" y="1122.6" width="2.8" height="7.2" transform="matrix(0.99, -0.16, 0.16, 0.99, -337, 75.59)"/><rect class="c" x="1628.5" y="1122.7" width="2.8" height="7.2" transform="translate(-337.1 73.8) rotate(-9.3)"/><rect class="c" x="1617.6" y="1122.8" width="2.8" height="7.2" transform="translate(-337.3 72) rotate(-9.3)"/><rect class="c" x="1606.7" y="1122.9" width="2.8" height="7.2" transform="translate(-337.5 70.2) rotate(-9.3)"/><path class="c" d="M1587.5,1127l83.4,21,.7-2.7-83-20.9A20.3,20.3,0,0,0,1587.5,1127Z" transform="translate(-176.1 -205.5)"/><path class="c" d="M1790.1,718.7v1l1.5,7.9a45.4,45.4,0,0,0,25.7,33.2,14.8,14.8,0,0,0,2.9,1.2,40.4,40.4,0,0,0,8.4,2.4,29.3,29.3,0,0,1-.5-2.9,43.1,43.1,0,0,1-33.8-34.4l-1.4-7.4-.2-1.5Z" transform="translate(-176.1 -205.5)"/><path class="c" d="M1702.9,720.7l22.2-.3,44.8-.5,13.6-.2h3.5l31.3-.4-.9-2.7-47.1.6-45.5.5-21.3.3Z" transform="translate(-176.1 -205.5)"/><path class="s" d="M1847.2,781.9l16.3-2.1c13.1-85.3-24.5-170.7-39-203.4-4.5-10.4-10-16.4-15.4-19.9-13.7-8.8-31.3,2.7-29.1,18.9a70.4,70.4,0,0,0,4.9,17.5C1801.5,633.8,1847.2,781.9,1847.2,781.9Z" transform="translate(-176.1 -205.5)"/><path class="c" d="M1780.2,564.4a21.9,21.9,0,0,1,25.2-10.8,23.3,23.3,0,0,1,12.4,8.9c4.7,6.3,24.6,40.7,34.3,79.9,13.2,53.1,16.2,113.7,16.2,113.7l-31.7-4.5-57.2-172.4a18.1,18.1,0,0,1,.7-14.6A.3.3,0,0,1,1780.2,564.4Z" transform="translate(-176.1 -205.5)"/><polygon class="c" points="1641.4 555.2 1641.4 555.4 1650.7 677.5 1650.8 677.8 1731.3 863.4 1733.7 862.1 1653.5 676.9 1644.2 556.6 1644.1 555 1641.4 555.2"/><path class="t" d="M1732.7,545c25.4,2.7,38.2-27.6,38.7-28.8-4.8,7.6-11.7,11.4-18.4,13.3a51.4,51.4,0,0,1-17.6,1.2c-.2,1.9-.5,3.7-.8,5.5S1733.3,542.6,1732.7,545Z" transform="translate(-176.1 -205.5)"/><path class="s" d="M1716.7,445.7c6.2-15.9,36.1-21.2,56.4-3.5,8.4,7.4,10.9,20,11,32.3a12.5,12.5,0,0,1,12.2,12.3,12.3,12.3,0,0,1-7.1,11.1,13.4,13.4,0,0,1-2.3,1.3,18.8,18.8,0,0,1-5.5.5,41.3,41.3,0,0,1-13.6,23.1,37.3,37.3,0,0,1-31.6,8c-8.8-1.8-21.9-7.5-25.1-16.6a23.7,23.7,0,0,1-.9-7.5C1709.9,487.4,1709.7,463.9,1716.7,445.7Z" transform="translate(-176.1 -205.5)"/><path class="t" d="M1723.6,479.2c0,2.1-1.2,3.9-2.6,3.9s-2.6-1.8-2.6-3.9,1.1-3.9,2.6-3.9S1723.6,477.1,1723.6,479.2Z" transform="translate(-176.1 -205.5)"/><path class="t" d="M1741,479.2c0,2.1,1.2,3.9,2.6,3.9s2.6-1.8,2.6-3.9-1.1-3.9-2.6-3.9S1741,477.1,1741,479.2Z" transform="translate(-176.1 -205.5)"/><path class="t" d="M1750.5,451.5a24.3,24.3,0,0,1,5.3-.8,12.5,12.5,0,0,1,9.5,4c4.2,4.4,3.9,10.7,3.8,16.3,0,3.6-.8,11.8,4.6,12.3s10.9-15.5,20.9-2c0,0,5.2-4.2,2.7-14.9-1.2-5.4-1.2-11-2.6-16.3s-4.4-10-9.2-11.6c-1.2-.5-2.5-.6-3.7-1-3.1-1.3-4.7-4.4-6.8-6.6s-4.9-4.9-8.2-5.8-8.5.3-12.8-.1-8.6-2.8-13.1-3.3-11.8,2.1-17.2,4.8c-9.9,4.9-16.8,7.7-16.8,19.6s5.2,19.5,5.2,19.5l3.8-16.2c-.2,1.1,17.1,3.5,18.6,3.6a79.5,79.5,0,0,0,10.9-.4Z" transform="translate(-176.1 -205.5)"/><path class="u" d="M1724,500.7c-.5,1,1.2,2.8,3.7,3.9s5,1,5.5,0-1.3-2.9-3.8-4S1724.4,499.6,1724,500.7Z" transform="translate(-176.1 -205.5)"/><path class="u" d="M1739.2,501c.5,1.1-1.1,2.8-3.6,3.7s-4.9.9-5.4-.2,1.1-2.8,3.6-3.8S1738.7,499.9,1739.2,501Z" transform="translate(-176.1 -205.5)"/><path class="v" d="M1732,504.3h-.4c-3.4-.1-7.9-2-9.5-5.2a.8.8,0,1,1,1.5-.7c1.2,2.5,5.1,4.2,8.1,4.3s6.1-2,8.6-3.8a.8.8,0,0,1,1.1.1.8.8,0,0,1-.2,1.2C1738.7,502,1735.7,504.3,1732,504.3Z" transform="translate(-176.1 -205.5)"/><path class="t" d="M1724.9,461.4h-.6l-1.5.3a19,19,0,0,0-4.5,1.4,10.5,10.5,0,0,0-2.3,1.3,9.8,9.8,0,0,0-1.8,1.7,5.6,5.6,0,0,0-.8,1.5l-.3.6a1.3,1.3,0,0,0,.7,1.6,1.2,1.2,0,0,0,1.5-.5l.2-.3.2-.3a2.4,2.4,0,0,1,.6-.9l1.3-1,1.9-.7a14.4,14.4,0,0,1,3.8-.8h1.9a2,2,0,0,0-.1-3.9Z" transform="translate(-176.1 -205.5)"/><path class="t" d="M1738.7,462.7h.6l1.5.2a25.2,25.2,0,0,1,4.5,1.4l2.3,1.4a8.8,8.8,0,0,1,1.7,1.6,4.4,4.4,0,0,1,.9,1.6l.3.6a1.4,1.4,0,0,1-.7,1.6,1.3,1.3,0,0,1-1.6-.6v-.2l-.2-.4-.6-.8-1.3-1-1.9-.8a19.2,19.2,0,0,0-3.8-.7h-1.9a2,2,0,0,1,.1-3.9Z" transform="translate(-176.1 -205.5)"/><path class="v" d="M1781.7,494.4a.4.4,0,0,1-.4-.3c-.7-3.3-1.3-8.9,2.9-10.5a5.6,5.6,0,0,1,4.7.4,5.7,5.7,0,0,1,2.8,3.7c.1.2-.1.4-.3.5a.5.5,0,0,1-.5-.4,4.4,4.4,0,0,0-2.4-3,4.8,4.8,0,0,0-4-.4c-3.6,1.4-3.1,6.5-2.4,9.5a.5.5,0,0,1-.3.5Z" transform="translate(-176.1 -205.5)"/><path class="v" d="M1785.5,491.6a3.3,3.3,0,0,1-1.6-.5c-1.9-1-2.6-3.7-2.6-3.8a.3.3,0,0,1,.3-.5c.2-.1.4.1.5.3s.6,2.4,2.2,3.3a2.5,2.5,0,0,0,2.1.2.5.5,0,0,1,.5.3c.1.2-.1.4-.3.5Z" transform="translate(-176.1 -205.5)"/><path class="v" d="M1730.8,491.9a11,11,0,0,1-2.5-.2,1.8,1.8,0,0,1-1.5-1.2c-1.9-3.5,3.1-15.5,3.7-16.9a.8.8,0,0,1,1.1-.4.8.8,0,0,1,.4,1.1c-2.1,4.8-4.9,13.3-3.8,15.5l.4.3a10.7,10.7,0,0,0,6.4-.7.8.8,0,0,1,1.1.3.8.8,0,0,1-.3,1.1A10.3,10.3,0,0,1,1730.8,491.9Z" transform="translate(-176.1 -205.5)"/><ellipse class="w" cx="1569.9" cy="284.3" rx="7" ry="2.2"/><ellipse class="w" cx="1542.7" cy="284.3" rx="7" ry="2.2"/><path class="v" d="M1748.7,476.4h-.2c-.1,0-2.5-3.9-5.4-4h0a4.5,4.5,0,0,0-3.4,2.2c-.1.1-.2.1-.4,0s-.1-.2,0-.3a4.7,4.7,0,0,1,3.9-2.4c3.1.1,5.6,4,5.7,4.2a.2.2,0,0,1-.1.4Z" transform="translate(-176.1 -205.5)"/><path class="v" d="M1726.2,476.4h-.3s-2.5-3.9-5.3-4h-.1c-1.2,0-2.3.8-3.3,2.2a.3.3,0,0,1-.4,0c-.1,0-.1-.2,0-.3,1.1-1.7,2.4-2.5,3.8-2.4,3.2.1,5.7,4,5.8,4.2s0,.3-.1.4Z" transform="translate(-176.1 -205.5)"/><path class="s" d="M1857.3,806.3s-.2,19.3-1.9,19.2c-4-.2-4.4-27.3-7.3-26.7s-5.2,7-6,10.4a1.3,1.3,0,0,1-1.6,1c-1.4-.3-3.3-1.5-2.8-5.2a68.1,68.1,0,0,1,8.7-25c5.8-1.5,11.9-3.2,17.8-4.1,2.2,3.5,16,26,16.6,36.6a.9.9,0,0,1-1.4.8c-1.3-.7-3.7-3-6.8-9.9,0,0,2.6,16.1.7,18.7s-8.2-17.2-8.2-17.2.9,18.6-1.6,20.2S1857.3,806.3,1857.3,806.3Z" transform="translate(-176.1 -205.5)"/><path class="c" d="M1742.7,563.4c-4.6-2-8.7-6.8-11.6-15.7,0,0-3.1,5-17.7,9.7s-13.7,20.7-13.7,20.7l-6.8,143-34.5,201.4,88.1,2.3Z" transform="translate(-176.1 -205.5)"/><path class="c" d="M1800.9,549c-7.9-.4-20.7-2.3-20.7-2.3a76.4,76.4,0,0,1-17,13.6l-.7,364.9,94.3-9s-34.7-209.5-34.5-212.5-4.3-100.1-3-123.9S1808.9,549.3,1800.9,549Z" transform="translate(-176.1 -205.5)"/><polygon class="d" points="1587.1 499.2 1586.8 355 1604.1 341 1621 346.5 1610.4 355.3 1591.9 359.1 1604 371.7 1587.1 499.2"/><path class="d" d="M1743.9,563.8l-.2,140.5-18.5-123.6,10.6-12.9-11.7-1.2-5.9-8.9,12.8-10s4.1,9.2,7.6,12.4A62.5,62.5,0,0,0,1743.9,563.8Z" transform="translate(-176.1 -205.5)"/><polygon class="t" points="1527.8 423.9 1523.8 470.7 1518.3 486.9 1527.8 423.9"/><polygon class="t" points="1647.5 507.1 1627.8 450.2 1651.5 533 1647.5 507.1"/><path class="t" d="M2876,1036.6h-2c.2-1.6,14-154-47-252.6l1.7-1.1C2890,882.1,2876.1,1035.1,2876,1036.6Z" transform="translate(-176.1 -205.5)"/><path class="t" d="M2870.3,1037.7c-.3-.8-31.2-75.7-110.2-87.2l.3-1.9c80.1,11.6,111.4,87.6,111.7,88.4Z" transform="translate(-176.1 -205.5)"/><path class="t" d="M2879,1037.7l-1.9-.7c.3-.8,31.7-76.8,111.8-88.4l.3,1.9C2910.2,962,2879.3,1036.9,2879,1037.7Z" transform="translate(-176.1 -205.5)"/><polygon class="i" points="2774.9 853.7 2768.2 890.7 2766.7 899 2762.5 922.2 2761 930.4 2755.3 962.6 2649.3 962.6 2643.5 930.4 2642 922.2 2637.8 899 2636.3 890.7 2629.6 853.7 2774.9 853.7"/><polygon class="c" points="2768.2 890.7 2766.7 899 2637.8 899 2636.3 890.7 2768.2 890.7"/><polygon class="c" points="2762.5 922.2 2761 930.4 2643.5 930.4 2642 922.2 2762.5 922.2"/><polygon class="t" points="2770.8 876.2 2774.9 853.7 2629.6 853.7 2633.7 876.2 2770.8 876.2"/><rect class="i" x="2621.3" y="830.1" width="161.9" height="38.28"/><path class="j" d="M2913.3,767c-7.3,35.6-24.4,67.2-54.7,87.3C2858.1,808.1,2913.7,765.2,2913.3,767Z" transform="translate(-176.1 -205.5)"/><path class="x" d="M2910.4,771.2s-2.9,4.9-7.4,12.1l-7.7,12.3-8.9,14.1-8.9,14-7.9,12.2-7.8,11.9s3-4.8,7.4-12.1l7.7-12.3,8.9-14.1c3.1-4.8,6.1-9.6,9-14l7.9-12.2Z" transform="translate(-176.1 -205.5)"/><path class="j" d="M2940.1,849.3c-12.7,33-34.2,60.4-66.7,74.2C2880.1,878.7,2940.8,847.6,2940.1,849.3Z" transform="translate(-176.1 -205.5)"/><path class="x" d="M2936.6,852.8l-9.1,10.3-9.3,10.5-10.9,11.9-10.9,11.9-9.5,10.3-9.4,10,9.1-10.2c2.7-3.1,5.9-6.7,9.4-10.5l10.8-12,10.9-11.9,9.5-10.3Z" transform="translate(-176.1 -205.5)"/><path class="j" d="M2950.6,922.5c-17.3,27.1-41.6,46.3-73.3,49.8C2891.4,932.6,2951.5,921.1,2950.6,922.5Z" transform="translate(-176.1 -205.5)"/><path class="x" d="M2946.9,924.8l-10,6.9-10.4,7.1-11.9,8-11.9,7.9-10.5,6.9-10.2,6.6,10-7,10.4-7,11.8-8,12-8,10.4-6.8Z" transform="translate(-176.1 -205.5)"/><path class="j" d="M2989.5,1033.7c-30-8.7-54.4-26-65.6-54.9C2965.2,980.8,2991.1,1034.2,2989.5,1033.7Z" transform="translate(-176.1 -205.5)"/><path class="x" d="M2986.4,1030.8l-9.1-7.4-9.3-7.8-10.5-8.9-10.5-9-9.2-7.9-8.8-7.7s3.7,2.9,9.1,7.4l9.3,7.8,10.6,8.9,10.5,9,9.1,7.9Z" transform="translate(-176.1 -205.5)"/><path class="j" d="M2749.1,1026c30-8.6,54.4-26,65.6-54.9C2773.4,973.1,2747.5,1026.5,2749.1,1026Z" transform="translate(-176.1 -205.5)"/><path class="x" d="M2752.2,1023.2l9.1-7.5,9.3-7.7,10.5-9,10.5-9c3.4-2.8,6.5-5.5,9.1-7.8l8.9-7.8-9.1,7.4-9.3,7.8-10.6,8.9c-3.5,3.1-7.1,6.1-10.5,9l-9.1,7.9Z" transform="translate(-176.1 -205.5)"/><path class="j" d="M3054,1004.3c-30-8.7-54.3-26.1-65.6-55C3029.7,951.4,3055.6,1004.7,3054,1004.3Z" transform="translate(-176.1 -205.5)"/><path class="x" d="M3050.9,1001.4l-9.1-7.5-9.2-7.7-10.6-8.9-10.5-9-9.1-7.9-8.8-7.8,9.1,7.5,9.2,7.7,10.6,8.9c3.6,3.1,7.1,6.2,10.5,9l9.1,7.9Z" transform="translate(-176.1 -205.5)"/><path class="j" d="M3071.4,928.6c-24.7,19.1-53.1,28.5-83.1,20.6C3014.3,917,3072.7,927.6,3071.4,928.6Z" transform="translate(-176.1 -205.5)"/><path class="x" d="M3067.2,929.4l-11.4,2.9-11.7,3-13.4,3.2-13.5,3.2-11.7,2.7L2994,947l11.4-3,11.7-2.9,13.4-3.3,13.5-3.2,11.7-2.7Z" transform="translate(-176.1 -205.5)"/><path class="j" d="M2829.2,699.9c12.5,28.7,14.7,58.5-.3,85.6C2804.1,752.5,2828.6,698.4,2829.2,699.9Z" transform="translate(-176.1 -205.5)"/><path class="x" d="M2829,704.2s0,4.7.1,11.7c0,3.6-.1,7.7-.1,12.1s0,9.1-.1,13.8-.1,9.4-.2,13.9-.1,8.5-.2,12c-.2,7.1-.3,11.8-.3,11.8s-.1-4.7-.1-11.8V755.6c0-4.4.1-9.1.1-13.8s.1-9.4.2-13.8.2-8.6.2-12.1C2828.8,708.9,2829,704.2,2829,704.2Z" transform="translate(-176.1 -205.5)"/><path class="j" d="M2760.2,734.8c30.5,6.8,55.9,22.6,69,50.7C2787.8,786.1,2758.6,734.5,2760.2,734.8Z" transform="translate(-176.1 -205.5)"/><path class="x" d="M2763.5,737.5l9.5,6.9,9.8,7.1,11.1,8.2,11,8.4c3.6,2.6,6.8,5.1,9.6,7.3l9.3,7.2-9.5-6.9-9.8-7.1-11.1-8.3-11-8.3-9.6-7.3Z" transform="translate(-176.1 -205.5)"/><path class="j" d="M2697.4,1004.7c30-8.7,54.3-26.1,65.6-55C2721.7,951.8,2695.8,1005.1,2697.4,1004.7Z" transform="translate(-176.1 -205.5)"/><path class="x" d="M2700.4,1001.8l9.1-7.5c2.8-2.2,5.9-4.9,9.3-7.7l10.6-8.9,10.5-9,9.1-7.9,8.8-7.8-9.1,7.5-9.2,7.7-10.6,8.9-10.5,9-9.1,7.9Z" transform="translate(-176.1 -205.5)"/><path class="j" d="M2679.8,929.2c24.7,19.2,53.1,28.6,83,20.6C2736.8,917.7,2678.5,928.2,2679.8,929.2Z" transform="translate(-176.1 -205.5)"/><path class="x" d="M2683.9,930l11.4,3,11.7,2.9,13.5,3.3,13.4,3.2,11.8,2.7,11.4,2.5-11.4-2.9-11.7-3-13.4-3.2-13.5-3.2-11.7-2.7Z" transform="translate(-176.1 -205.5)"/><path class="j" d="M2790.5,809.8c15.6,35.6,40.3,65.7,75.9,82.3C2856.5,844.4,2789.7,808,2790.5,809.8Z" transform="translate(-176.1 -205.5)"/><path class="x" d="M2794.4,813.8l10.4,11.3,10.7,11.7,12.3,13.2,12.3,13.2,10.9,11.5c6.4,6.6,10.6,11.1,10.6,11.1l-10.3-11.4-10.7-11.6-12.3-13.3-12.4-13.2-10.8-11.4Z" transform="translate(-176.1 -205.5)"/><path class="j" d="M2794.7,896.6c20.9,24.6,47.4,43.8,78.9,51.3C2854.1,913.5,2793.6,895.4,2794.7,896.6Z" transform="translate(-176.1 -205.5)"/><path class="x" d="M2798.7,899l10.8,7.2,11.1,7.2,12.8,8.3,12.8,8.2,11.2,7.1,11,6.9-10.8-7.2-11.1-7.2-12.8-8.3-12.8-8.2-11.2-7.1Z" transform="translate(-176.1 -205.5)"/><path class="y" d="M621.3,961.7l-44-3.7a9.8,9.8,0,0,1-8.9-10.5v-.2a9.8,9.8,0,0,1,10.6-8.9l44,3.7a9.7,9.7,0,0,1,8.9,10.5v.2A9.8,9.8,0,0,1,621.3,961.7Z" transform="translate(-176.1 -205.5)"/><path class="z" d="M606.8,950.6a6.7,6.7,0,1,1-6.1-7.3A6.7,6.7,0,0,1,606.8,950.6Z" transform="translate(-176.1 -205.5)"/><path class="j" d="M583.8,952.9l-5.1-.4a4.2,4.2,0,0,1-3.8-4.5h0a4.2,4.2,0,0,1,4.5-3.8l5.1.4a4.2,4.2,0,0,1,3.8,4.5h0A4.2,4.2,0,0,1,583.8,952.9Z" transform="translate(-176.1 -205.5)"/><rect class="j" x="613.9" y="944.8" width="8.4" height="13.43" rx="4.1" transform="translate(-557.9 1282.3) rotate(-85.2)"/><path class="aa" d="M692.6,953.8H603.7a3.7,3.7,0,0,1-3.5-3.8,3.4,3.4,0,0,1,3.2-3.8h88.3a3.8,3.8,0,0,1,3.5,3.8A3.4,3.4,0,0,1,692.6,953.8Z" transform="translate(-176.1 -205.5)"/><rect class="ab" x="882.1" y="570.2" width="15.1" height="88.64" transform="translate(-322.9 101.3) rotate(-18.1)"/><path class="d" d="M953.8,727.4h-.1l-4.1-41.9h.1a11.8,11.8,0,0,1,12.9,10.6l1.8,18.4A11.8,11.8,0,0,1,953.8,727.4Z" transform="translate(-176.1 -205.5)"/><rect class="z" x="563.8" y="708.2" width="15.1" height="82.25" transform="translate(-468.1 166.3) rotate(-29.1)"/><polygon class="ac" points="195.5 782.9 398.8 565 415.4 580.5 250.8 756.9 509.3 741.9 745.5 496.8 761.9 512.6 519.5 764 195.5 782.9"/><rect class="ac" x="607.8" y="766.4" width="321.4" height="22.72" transform="translate(-423.5 168) rotate(-23.6)"/><path class="ac" d="M680.6,964.1,569.8,770.5a2.7,2.7,0,0,1,1.1-3.8l14.8-8.5a2.8,2.8,0,0,1,3.8,1L700.3,952.8Z" transform="translate(-176.1 -205.5)"/><path class="z" d="M690.3,1022.3c-36.8,0-66.7-28.7-66.7-63.9s29.9-63.9,66.7-63.9S757,923.2,757,958.4,727,1022.3,690.3,1022.3Zm0-113.2c-28.8,0-52.1,22.1-52.1,49.3s23.3,49.3,52.1,49.3,52.1-22.1,52.1-49.3S719,909.1,690.3,909.1Z" transform="translate(-176.1 -205.5)"/><ellipse class="z" cx="516.4" cy="752.7" rx="17.7" ry="17.2"/><rect class="j" x="366.1" y="814.4" width="2.3" height="175.09" transform="translate(-461 -26.7) rotate(-19.9)"/><rect class="j" x="304.4" y="900.8" width="175.5" height="2.27" transform="translate(-765.8 751.3) rotate(-69.7)"/><rect class="j" x="279.7" y="1063.7" width="175.1" height="2.27" transform="translate(-935.1 842.3) rotate(-70.1)"/><rect class="j" x="391" y="977.1" width="2.3" height="175.54" transform="translate(-521 -3.3) rotate(-20.3)"/><rect class="j" x="327.1" y="831.7" width="2.3" height="175.09" transform="translate(-762.3 372.5) rotate(-49.9)"/><rect class="j" x="348.6" y="819" width="2.3" height="175.54" transform="translate(-323.9 -133.5) rotate(-9.7)"/><rect class="j" x="408.5" y="972.8" width="2.3" height="175.09" transform="translate(-355.8 -117.1) rotate(-10.1)"/><rect class="j" x="430.1" y="960.1" width="2.3" height="175.54" transform="translate(-826.5 504.8) rotate(-50.3)"/><rect class="j" x="301.9" y="866.1" width="2.3" height="175.09" transform="translate(-865.1 879.2) rotate(-79.9)"/><rect class="j" x="314.4" y="844.4" width="2.3" height="175.54" transform="translate(-698.8 211.1) rotate(-39.7)"/><rect class="j" x="443" y="947.6" width="2.3" height="175.09" transform="translate(-738.5 324.2) rotate(-40.1)"/><rect class="j" x="455.5" y="925.8" width="2.3" height="175.54" transform="translate(-795.5 1087.3) rotate(-80.3)"/><rect class="j" x="211" y="995" width="175.1" height="2.27" transform="translate(-497.4 -44.3) rotate(-19.9)"/><rect class="j" x="297.4" y="883.5" width="2.3" height="175.54" transform="translate(-892 708.9) rotate(-69.7)"/><rect class="j" x="460.3" y="908.6" width="2.3" height="175.09" transform="translate(-808.3 885.7) rotate(-70.1)"/><rect class="j" x="373.7" y="970.1" width="175.5" height="2.27" transform="translate(-484.4 15) rotate(-20.3)"/><rect class="j" x="228.3" y="1034" width="175.1" height="2.27" transform="translate(-855.5 404.5) rotate(-49.9)"/><rect class="j" x="215.6" y="1012.5" width="175.5" height="2.27" transform="translate(-342.6 -139.8) rotate(-9.7)"/><rect class="j" x="369.4" y="952.6" width="175.1" height="2.27" transform="translate(-336.6 -110.3) rotate(-10.1)"/><rect class="j" x="356.7" y="931" width="175.5" height="2.27" transform="translate(-732.6 473.2) rotate(-50.3)"/><rect class="j" x="262.8" y="1059.2" width="175.1" height="2.27" transform="translate(-931 1013.7) rotate(-79.9)"/><rect class="j" x="241" y="1046.7" width="175.5" height="2.27" transform="translate(-769.6 246.2) rotate(-39.7)"/><rect class="j" x="344.3" y="918.1" width="175.1" height="2.27" transform="translate(-666.8 289.2) rotate(-40.1)"/><rect class="j" x="322.5" y="905.6" width="175.5" height="2.27" transform="translate(-728.8 952.7) rotate(-80.3)"/><path class="i" d="M379.4,1165.7c-96.7,0-175.4-81.4-175.4-181.5s78.7-181.5,175.4-181.5,175.3,81.4,175.3,181.5S476,1165.7,379.4,1165.7Zm0-343.5c-86,0-155.9,72.7-155.9,162s69.9,162.1,155.9,162.1,155.8-72.7,155.8-162.1S465.3,822.2,379.4,822.2Z" transform="translate(-176.1 -205.5)"/><rect class="j" x="1004.7" y="814.4" width="2.3" height="175.09" transform="translate(-422.9 190.5) rotate(-19.9)"/><rect class="j" x="943" y="900.8" width="175.5" height="2.27" transform="translate(-348.7 1350.4) rotate(-69.7)"/><rect class="j" x="918.3" y="1063.7" width="175.1" height="2.27" transform="translate(-513.8 1442.8) rotate(-70.1)"/><rect class="j" x="1029.6" y="977.1" width="2.3" height="175.54" transform="translate(-481.4 218.1) rotate(-20.3)"/><rect class="j" x="965.7" y="831.7" width="2.3" height="175.09" transform="translate(-535.1 860.9) rotate(-49.9)"/><rect class="j" x="987.2" y="819" width="2.3" height="175.54" transform="translate(-314.8 -25.9) rotate(-9.7)"/><rect class="j" x="1047.1" y="972.8" width="2.3" height="175.09" transform="translate(-345.9 -5) rotate(-10.1)"/><rect class="j" x="1068.7" y="960.1" width="2.3" height="175.54" transform="translate(-595.8 996.1) rotate(-50.3)"/><rect class="j" x="940.5" y="866.1" width="2.3" height="175.09" transform="translate(-338.6 1507.9) rotate(-79.9)"/><rect class="j" x="953" y="844.4" width="2.3" height="175.54" transform="translate(-551.5 619.1) rotate(-39.7)"/><rect class="j" x="1081.6" y="947.6" width="2.3" height="175.09" transform="translate(-588.3 735.6) rotate(-40.1)"/><rect class="j" x="1094.1" y="925.8" width="2.3" height="175.54" transform="translate(-264.6 1716.8) rotate(-80.3)"/><rect class="j" x="849.6" y="995" width="175.1" height="2.27" transform="translate(-459.2 173) rotate(-19.9)"/><rect class="j" x="936" y="883.5" width="2.3" height="175.54" transform="translate(-474.9 1307.9) rotate(-69.7)"/><rect class="j" x="1098.9" y="908.6" width="2.3" height="175.09" transform="translate(-386.9 1486.3) rotate(-70.1)"/><rect class="j" x="1012.3" y="970.1" width="175.5" height="2.27" transform="translate(-444.7 236.6) rotate(-20.3)"/><rect class="j" x="866.9" y="1034" width="175.1" height="2.27" transform="translate(-628.2 893) rotate(-49.9)"/><rect class="j" x="854.2" y="1012.5" width="175.5" height="2.27" transform="translate(-333.5 -32.1) rotate(-9.7)"/><rect class="j" x="1008" y="952.6" width="175.1" height="2.27" transform="translate(-326.7 2) rotate(-10.1)"/><rect class="j" x="995.3" y="931" width="175.5" height="2.27" transform="translate(-502 964.5) rotate(-50.3)"/><rect class="j" x="901.4" y="1059.2" width="175.1" height="2.27" transform="translate(-404.5 1642.4) rotate(-79.9)"/><rect class="j" x="879.6" y="1046.7" width="175.5" height="2.27" transform="translate(-622.3 654.2) rotate(-39.7)"/><rect class="j" x="982.9" y="918.1" width="175.1" height="2.27" transform="translate(-516.5 700.8) rotate(-40.1)"/><rect class="j" x="961.1" y="905.6" width="175.5" height="2.27" transform="translate(-197.8 1582.2) rotate(-80.3)"/><path class="i" d="M1018,1165.7c-96.7,0-175.4-81.4-175.4-181.5S921.3,802.7,1018,802.7s175.3,81.4,175.3,181.5S1114.6,1165.7,1018,1165.7Zm0-343.5c-86,0-155.9,72.7-155.9,162S932,1146.3,1018,1146.3s155.8-72.7,155.8-162.1S1103.9,822.2,1018,822.2Z" transform="translate(-176.1 -205.5)"/><path class="ac" d="M1007,982.7,888.9,649.6a6.5,6.5,0,0,1,4-8.4l9-3.2a6.6,6.6,0,0,1,8.4,4l118.2,333.1Z" transform="translate(-176.1 -205.5)"/><ellipse class="z" cx="203.3" cy="778.8" rx="21.2" ry="20.7"/><rect class="z" x="367.5" y="926.6" width="315.2" height="7.57" transform="translate(-335.8 -95) rotate(-10.4)"/><rect class="z" x="531" y="859.4" width="7.6" height="311.01" transform="translate(-669 1319.1) rotate(-88.6)"/><path class="z" d="M379.4,1015.9c-17.9,0-32.5-14.2-32.5-31.7s14.6-31.7,32.5-31.7,32.4,14.2,32.4,31.7S397.2,1015.9,379.4,1015.9Zm0-53.7c-12.6,0-22.7,9.9-22.7,22s10.1,22,22.7,22,22.6-9.9,22.6-22S391.9,962.2,379.4,962.2Z" transform="translate(-176.1 -205.5)"/><path class="y" d="M605.5,728.2H492a14.8,14.8,0,0,1-14.8-14.8V701.2a14.8,14.8,0,0,1,16.4-14.7L607,698.4a14.8,14.8,0,0,1,13.3,14.7v.3A14.8,14.8,0,0,1,605.5,728.2Z" transform="translate(-176.1 -205.5)"/><path class="ab" d="M825.3,604.4l-4.8-14.3c15.3-5.1,26.6-9.3,34.7-13,11.7-5.3,13.9-8.2,14.2-8.7,4.7-7.5,2.4-18.1-2-25.2-5.4-8.9-14.3-15.7-23-22.3l9.3-12c9.2,7.1,19.7,15.1,26.6,26.4,8.3,13.5,9.1,29.6,2,41C877.2,584.7,861.2,592.6,825.3,604.4Z" transform="translate(-176.1 -205.5)"/><rect class="d" x="778.9" y="590" width="57.3" height="26.58" rx="13.2" transform="translate(-329.6 94) rotate(-19.2)"/><path class="d" d="M857.4,504.8l-25.1-18.1a13,13,0,0,0-18.3,2.9l-.2.2a13.2,13.2,0,0,0,3,18.4l25,18.2a13.2,13.2,0,0,0,18.4-3l.2-.2A13.2,13.2,0,0,0,857.4,504.8Z" transform="translate(-176.1 -205.5)"/><path class="ac" d="M956.9,732h-.2a23.6,23.6,0,0,1-26.5-20.4l-.7-5.5a23.6,23.6,0,0,1,20.4-26.5h.2Z" transform="translate(-176.1 -205.5)"/><ellipse class="z" cx="842.6" cy="778.8" rx="17.7" ry="17.2"/><path class="aa" d="M794,999.9l-1.4-.2-101.5-38a3.8,3.8,0,0,1,2.7-7.1l101.5,38a3.9,3.9,0,0,1,2.2,4.9A3.8,3.8,0,0,1,794,999.9Z" transform="translate(-176.1 -205.5)"/><rect class="y" x="589.8" y="780.8" width="63.7" height="19.75" rx="9.8"/><ellipse class="c" cx="621.7" cy="790.7" rx="6.7" ry="6.8"/><rect class="j" x="596.4" y="786.5" width="13.4" height="8.38" rx="4.1"/><rect class="j" x="633" y="786.5" width="13.4" height="8.38" rx="4.1"/><circle class="d" cx="3249.8" cy="175" r="97.3"/><path class="c" d="M3419.4,445.8l-51-72.8a4.8,4.8,0,0,1,1.1-6.8,4.9,4.9,0,0,1,6.8,1.2l42.4,60.4,56.5-96.5a4.8,4.8,0,0,1,6.6-1.8,5,5,0,0,1,1.8,6.7Z" transform="translate(-176.1 -205.5)"/><path class="i" d="M3555.7,774.6c-26.9-34.3-69.3-52.4-112.8-49.2-20.6,1.4-45,0-70.7-4.9a307.3,307.3,0,0,1-46.7-12.7c-46-16.7-97.9-7.1-133.5,26.5-24.8,23.3-42.3,54.5-49.7,93.2-21.9,115.5,60,228.1,183.1,251.4s240.5-51.3,262.4-166.8C3597.9,858.8,3584.8,811.9,3555.7,774.6Z" transform="translate(-176.1 -205.5)"/><path class="c" d="M3216.2,1010.8a2.5,2.5,0,0,1-2.1-1c-25.8-28-43.9-61.8-52.3-97.7a2.9,2.9,0,0,1,2.2-3.5,2.9,2.9,0,0,1,3.4,2.2,213.2,213.2,0,0,0,50.9,95.1,2.9,2.9,0,0,1-.2,4.1A2.7,2.7,0,0,1,3216.2,1010.8Z" transform="translate(-176.1 -205.5)"/><path class="c" d="M3162.8,830.8h-.5a2.9,2.9,0,0,1-2.3-3.4c7.2-38.1,24.2-70,50.5-94.8a2.9,2.9,0,0,1,4.1.1,3,3,0,0,1-.1,4.1c-25.4,23.9-41.8,54.8-48.8,91.7A3,3,0,0,1,3162.8,830.8Z" transform="translate(-176.1 -205.5)"/><path class="ad" d="M3555.7,774.6a130.1,130.1,0,0,0-89.8-48.9,115.2,115.2,0,0,1,61.5,43.6c26.5,36.8,38.1,83.4,28,136.6C3534,1018.8,3428.2,1094,3317,1077.2l8.4,1.7c123,23.4,240.5-51.3,262.4-166.8C3597.9,858.8,3584.8,811.9,3555.7,774.6Z" transform="translate(-176.1 -205.5)"/><path class="ae" d="M3222.8,762c-29.1,33.8-76.7,108.1-23.3,187.3a5.4,5.4,0,0,0,9.8-3.1c-.8-34,.3-112.6,22.7-179.1A5.4,5.4,0,0,0,3222.8,762Z" transform="translate(-176.1 -205.5)"/><ellipse class="ad" cx="3380.1" cy="754.3" rx="15.4" ry="29.3" transform="translate(1665.3 3651.4) rotate(-76.2)"/><path class="j" d="M3513.3,719.6c-51.9,41.8-128.5,34-128.2,33s7.8-76.4,59.7-118.1,127.6-32.9,128.2-33S3565.2,677.9,3513.3,719.6Z" transform="translate(-176.1 -205.5)"/><path class="c" d="M3571.4,603.2l-1.9,1.8-5.6,5-8.6,7.8-11.4,9.9-13.5,11.6-15.2,12.8c-5.4,4.4-10.8,9-16.5,13.5l-17,13.8L3464.5,693l-16.8,13.1-15.8,12-14.3,10.7-12.2,8.9-9.5,6.8-6.1,4.2-2.2,1.5,2-1.8,5.5-5,8.6-7.8,11.4-9.9,13.5-11.6c4.8-4.1,9.9-8.4,15.3-12.8s10.7-9,16.4-13.5l17-13.8,17.3-13.6c5.6-4.5,11.3-8.8,16.7-13.1l15.9-12c5-3.9,9.8-7.4,14.2-10.7l12.2-8.9,9.5-6.8,6.1-4.2Z" transform="translate(-176.1 -205.5)"/><path class="r" d="M3370.4,754.1l.2-1.9c.1-1.2.2-2.9.5-5.1.5-4.4,1.3-10.6,2.8-18,.8-3.6,1.7-7.6,2.8-11.8s2.3-8.6,3.8-13.1,3.1-9.2,5-13.9c.9-2.4,1.9-4.7,2.9-7.1s2.2-4.7,3.4-7.1,2.3-4.7,3.6-6.9l1.9-3.5,2-3.4c1.4-2.2,2.8-4.4,4.3-6.6a70.7,70.7,0,0,1,4.4-6.3,139.4,139.4,0,0,1,9.4-11.6c1.6-1.8,3.3-3.5,4.9-5.2l2.3-2.4,2.4-2.2c3.1-3,6.3-5.5,9-7.8l7.5-5.5,6.8-4.5,19.3,26.7-5.6,2.9-6.2,3.7c-2.3,1.6-5,3.3-7.7,5.4l-2.1,1.6-2.2,1.8c-1.4,1.2-2.9,2.4-4.3,3.8a105.1,105.1,0,0,0-8.9,8.8c-1.5,1.6-3,3.2-4.4,5s-2.9,3.4-4.3,5.3l-2.1,2.7-2,2.9c-1.4,1.8-2.6,3.8-3.9,5.8s-2.5,4-3.7,5.9-2.3,4.1-3.4,6.1c-2.2,4.1-4.2,8.2-6,12.2s-3.5,7.9-4.9,11.7-2.8,7.3-3.8,10.7c-2.2,6.7-3.7,12.4-4.6,16.3-.5,2-.8,3.5-1,4.6l-.3,1.5Z" transform="translate(-176.1 -205.5)"/><path class="h" d="M1207.4,527v639.3H1066.7V527Z" transform="translate(-176.1 -205.5)"/><path class="x" d="M1384.1,573.7c-3.7-2.8-7.6-5.4-8.8-9.7-2.1-7.5,5.4-15.2,3.6-22.8-1.1-5-5.9-8.3-8.8-12.5s-4.2-9.9-5.2-15.2c-3.4-18.1-4.7-37.5-9.2-55.2a25.7,25.7,0,0,0-12.5,1,12.7,12.7,0,0,1,4.7,7.7c1.7,8.7,3.9,26,3.9,26a166.6,166.6,0,0,1,0,27.1,17.8,17.8,0,0,1-5.2,11.1c-7.8,7.6-19.6,9.9-19.6,9.9-.8,11,3.8,26.8,3.8,26.8l.8,1c3.2,1.9,7.8,3.6,10.5,6.2,4.7,4.6,2.3,8,3.7,14.8,2.7,13.7,14.4,25.8,28.5,27.3,6,.6,12.7-.7,16.6-5.3s4-9.1,4.1-14.1c.1-7.3-1.3-15-6.3-20.3A29.1,29.1,0,0,0,1384.1,573.7Z" transform="translate(-176.1 -205.5)"/><path class="s" d="M1482.4,787.6s18.6,5.5,18.9,3.9c1-3.9-24.8-12.3-23.3-15s8.2-2.9,11.7-2.6a1.3,1.3,0,0,0,1.5-1.2c0-1.4-.5-3.6-4.2-4.2a66.4,66.4,0,0,0-28.2,1.2c-7.2-8.8-33.8-35.2-57.7-64.9-10.4-36.8-16.2-74.7-19.9-92.9a68.5,68.5,0,0,0-5.7-17.3c-7.1-14.7-28.2-14.5-34.6.5-2.4,5.4-3.6,12.7-2.2,22.5a18.7,18.7,0,0,0,.4,2.5c3.4,19.7,9.9,56.8,25.1,96.9a37.2,37.2,0,0,0,8.5,12.9,301.3,301.3,0,0,0,52.3,41.5,238.6,238.6,0,0,0,25.5,13.7c1.6,1.6,3.2,3.1,4.7,4.4,6.4,7,18.5,19.5,26.2,22.3a.9.9,0,0,0,1.2-1c-.3-1.5-1.8-4.4-7.5-9.5,0,0,14.6,7.3,17.7,6.3s-14-13-14-13,17.5,6.4,19.8,4.6S1482.4,787.6,1482.4,787.6Z" transform="translate(-176.1 -205.5)"/><path class="s" d="M1366.5,584.2a21.9,21.9,0,0,0-26.6,6.9,24.1,24.1,0,0,0-4.4,14.6c.2,18.3,12.4,59.7,12.4,59.7l48.5-10.8-19.3-58.8a20.3,20.3,0,0,0-10.3-11.4Z" transform="translate(-176.1 -205.5)"/><path class="s" d="M1367.5,661s14.4-22.9-7.4-53.3c0,0,16.6,28-2.3,55.5l-7.5,9.9,2.6,9.5,39.1-27.1Z" transform="translate(-176.1 -205.5)"/><path class="s" d="M1345.9,1125.7c6.6-51.1,34.9-276,31.6-326.6-1.4-21.9-5.4-37.9-10.4-49.5h-63.2l10.9,373C1317.8,1125,1333.8,1129.4,1345.9,1125.7Z" transform="translate(-176.1 -205.5)"/><path class="t" d="M1394.6,1166.3h-82.7c-3.7,0-6.7-3.4-6.7-7.6v-14.5l80,3.3,16.1,11.2C1401.3,1162.9,1398.3,1166.3,1394.6,1166.3Z" transform="translate(-176.1 -205.5)"/><path class="d" d="M1400.3,1159.7a2.5,2.5,0,0,1-1.2.1l-77.7-9.1-2.8-.3-7.6-.9a7.6,7.6,0,0,1-6.6-8.9l1.5-8.3.5-2.6.7-3.9a8.5,8.5,0,0,1,9.1-6.9l31.6,3.4,4.1,7.8,48.4,20.5c.7.3,1.2,1.7,1.3,3.2a12.2,12.2,0,0,1,0,2.7C1401.5,1158,1401.1,1159.3,1400.3,1159.7Z" transform="translate(-176.1 -205.5)"/><path class="c" d="M1312.7,1130.8a15.5,15.5,0,0,0-6.3-1.1l-.5,2.6a13.2,13.2,0,0,1,5.8,1,12.6,12.6,0,0,1,7.3,16.3,3,3,0,0,1-.4.8l2.8.3h0A15.4,15.4,0,0,0,1312.7,1130.8Z" transform="translate(-176.1 -205.5)"/><rect class="c" x="1351.8" y="1135.5" width="6.8" height="2.61" transform="translate(-497.6 1494.9) rotate(-58.6)"/><rect class="c" x="1361.3" y="1139.5" width="6.8" height="2.61" transform="translate(-496.4 1504.9) rotate(-58.6)"/><rect class="c" x="1370.8" y="1143.5" width="6.8" height="2.61" transform="translate(-495.2 1515) rotate(-58.6)"/><rect class="c" x="1380.4" y="1147.5" width="6.8" height="2.61" transform="translate(-494.1 1525.1) rotate(-58.6)"/><path class="c" d="M1401.6,1156.5l-80.6-11.3.3-2.6,80.3,11.2A12.2,12.2,0,0,1,1401.6,1156.5Z" transform="translate(-176.1 -205.5)"/><path class="s" d="M1306.9,1128.7l8.6-379.1-60.1-.8c-4.7,13.3-13.9,30.5-13.6,50.3.8,53.8,25.6,280,30.9,327.2C1285.4,1131.7,1293,1131.4,1306.9,1128.7Z" transform="translate(-176.1 -205.5)"/><path class="s" d="M1360.1,583.6c-10.2-6.1-17.2-8.3-22.1-14.3-.6-2-1.8-6.9-2.8-12.4s-1.5-10.2-1-14.5h0a12.3,12.3,0,0,1,1.4-5.2l-47.4-26.7a.9.9,0,0,0,.1.5c.7,4.4,6.4,38.9.6,57.3a35.8,35.8,0,0,1-13.4,3,24.4,24.4,0,0,0-15.9,6.3c-6,5.6-11.1,16.1-7.7,35.7,6.7,39.3,14.8,83.9,12.2,107.9h89.2s11.9-48.8,17.9-75.2S1375.6,592.9,1360.1,583.6Z" transform="translate(-176.1 -205.5)"/><path class="i" d="M1288.9,568.3s42.5,36,50.1,2.2c0,0,17.8,10.2,22,12.9s11.6,12.4,14.5,22.1-2.9,47.7-7.9,62.5-13.7,61-13.7,61l-88,1.8s-17.8-114.4-16.3-134.7,18.4-25.2,23.6-26.2S1288.9,568.3,1288.9,568.3Z" transform="translate(-176.1 -205.5)"/><path class="t" d="M1288.7,613.9l-22.1,45S1289.6,625.6,1288.7,613.9Z" transform="translate(-176.1 -205.5)"/><path class="t" d="M1335.2,557.6c-25.4,1.8-43.1-32.6-43.6-33.7,4.6,7.7,16.9,14.8,23.6,16.8s14.5,1.4,18.6,1.1C1333.9,543.6,1334.7,555.2,1335.2,557.6Z" transform="translate(-176.1 -205.5)"/><path class="s" d="M1352.1,459.4c-6.2-15.9-36-21.2-56.4-3.5-8.4,7.4-10.9,20-10.9,32.3a12.3,12.3,0,0,0-5.1,23.4,12.7,12.7,0,0,0,2.2,1.3,20,20,0,0,0,5.6.5,41.1,41.1,0,0,0,13.5,23.1,37.3,37.3,0,0,0,31.6,8c8.9-1.8,21.9-7.5,25.1-16.6a21.2,21.2,0,0,0,1-7.5C1358.9,501.1,1359.2,477.6,1352.1,459.4Z" transform="translate(-176.1 -205.5)"/><path class="t" d="M1344.1,492.2c0,2.1,1.2,3.9,2.6,3.9s2.6-1.8,2.6-3.9-1.1-3.8-2.6-3.8S1344.1,490.1,1344.1,492.2Z" transform="translate(-176.1 -205.5)"/><path class="t" d="M1327.8,492.9c0,2.1-1.1,3.9-2.6,3.9s-2.6-1.8-2.6-3.9,1.2-3.9,2.6-3.9S1327.8,490.8,1327.8,492.9Z" transform="translate(-176.1 -205.5)"/><path class="u" d="M1344.9,514.4c.4,1-1.2,2.8-3.8,3.9s-5,1-5.4-.1,1.2-2.8,3.7-3.9S1344.4,513.3,1344.9,514.4Z" transform="translate(-176.1 -205.5)"/><path class="u" d="M1329.6,514.7c-.5,1.1,1.1,2.8,3.6,3.7s4.9.9,5.5-.2-1.1-2.8-3.6-3.8S1330.1,513.6,1329.6,514.7Z" transform="translate(-176.1 -205.5)"/><path class="v" d="M1336.9,518c-3.7,0-6.8-2.3-9.3-4.1a.9.9,0,0,1-.2-1.2.9.9,0,0,1,1.2-.1c2.4,1.7,5.1,3.8,8.3,3.8h.3c3-.1,6.8-1.8,8.1-4.3a.8.8,0,0,1,1.1-.4.8.8,0,0,1,.3,1.1c-1.5,3.2-6.1,5.1-9.5,5.2Z" transform="translate(-176.1 -205.5)"/><path class="x" d="M1344.8,475.6h2.1a23.1,23.1,0,0,1,4.7.8,17.3,17.3,0,0,1,2.4,1,7.8,7.8,0,0,1,2,1.4,9.2,9.2,0,0,1,1.1,1.5l.3.6a1.2,1.2,0,0,1-.5,1.6,1.2,1.2,0,0,1-1.6-.3V482l-.3-.4-.7-.7-1.4-.8-2-.6a27.5,27.5,0,0,0-3.9-.2h-1.8a1.9,1.9,0,0,1-2.2-1.7,1.9,1.9,0,0,1,1.7-2.2Z" transform="translate(-176.1 -205.5)"/><path class="x" d="M1328.7,476.7h-2.1a21.8,21.8,0,0,0-4.6.9,13.3,13.3,0,0,0-2.4,1.1l-2,1.5-1,1.5-.3.6a1.2,1.2,0,0,0,.6,1.6,1.1,1.1,0,0,0,1.5-.4l.2-.2.2-.4.7-.8,1.4-.8,1.9-.6a14.3,14.3,0,0,1,4-.3h1.8a2,2,0,0,0,.4-3.9Z" transform="translate(-176.1 -205.5)"/><path class="v" d="M1287.2,508.1h-.1c-.2-.1-.4-.3-.3-.5.6-3,1.2-8.1-2.5-9.5a4.8,4.8,0,0,0-4,.4,5,5,0,0,0-2.4,3c0,.3-.2.4-.5.4a.5.5,0,0,1-.3-.5,5.7,5.7,0,0,1,2.8-3.7,5.6,5.6,0,0,1,4.7-.4c4.2,1.6,3.7,7.2,3,10.4C1287.5,507.9,1287.4,508.1,1287.2,508.1Z" transform="translate(-176.1 -205.5)"/><path class="v" d="M1283.3,505.3l-1.1-.2a.4.4,0,0,1-.2-.5.3.3,0,0,1,.5-.3,2.3,2.3,0,0,0,2-.2,6.3,6.3,0,0,0,2.3-3.3.4.4,0,0,1,.5-.3c.2,0,.3.3.3.5s-.8,2.8-2.7,3.8A3,3,0,0,1,1283.3,505.3Z" transform="translate(-176.1 -205.5)"/><path class="v" d="M1338.1,505.6a10.3,10.3,0,0,1-5-1.1.7.7,0,0,1-.3-1.1.8.8,0,0,1,1.1-.3,10.2,10.2,0,0,0,6.3.7.5.5,0,0,0,.4-.3c1.2-2.2-1.7-10.7-3.7-15.5a.8.8,0,0,1,1.5-.7c.6,1.4,5.6,13.4,3.7,16.9a2.1,2.1,0,0,1-1.6,1.2A10.6,10.6,0,0,1,1338.1,505.6Z" transform="translate(-176.1 -205.5)"/><path class="w" d="M1355.8,505.1c0,2.5-2.5,4.4-5.5,4.4s-5.6-1.9-5.6-4.4,2.5-4.3,5.6-4.3S1355.8,502.7,1355.8,505.1Z" transform="translate(-176.1 -205.5)"/><path class="w" d="M1329.8,505.1c0,2.5-2.5,4.4-5.5,4.4s-5.5-1.9-5.5-4.4,2.4-4.3,5.5-4.3S1329.8,502.7,1329.8,505.1Z" transform="translate(-176.1 -205.5)"/><path class="v" d="M1341.5,490.1h-.2a.2.2,0,0,1,0-.3c.1-.1,5.2-5,9.6-1.2a.3.3,0,0,1,0,.4c-.1.1-.2.1-.4,0-4-3.5-8.7,1.1-8.8,1.1S1341.6,490.1,1341.5,490.1Z" transform="translate(-176.1 -205.5)"/><path class="v" d="M1320.8,490.1h-.2a.2.2,0,0,1,0-.3c.1-.1,5.2-5,9.6-1.2a.3.3,0,0,1,0,.4.2.2,0,0,1-.3,0c-4.1-3.5-8.8,1.1-8.9,1.1S1320.9,490.1,1320.8,490.1Z" transform="translate(-176.1 -205.5)"/><path class="d" d="M1355.4,726.9h-93.1s-22.7,34.1-22.4,74.1c.2,18.4,4.7,71.5,9.6,123.8h119.9c5.4-52.9,10.5-106.8,10.7-125.2C1380.4,759.6,1355.4,726.9,1355.4,726.9Z" transform="translate(-176.1 -205.5)"/><path class="t" d="M1356,1166.3h-82.7c-3.7,0-6.7-3.4-6.7-7.6v-14.5l80,3.3,16.1,11.2C1362.7,1162.9,1359.7,1166.3,1356,1166.3Z" transform="translate(-176.1 -205.5)"/><path class="d" d="M1361.7,1159.7a2.8,2.8,0,0,1-1.3.1l-77.6-9.1-2.8-.3-7.6-.9a7.6,7.6,0,0,1-6.6-8.9l1.5-8.3.4-2.6.8-3.9a8.5,8.5,0,0,1,9.1-6.9l31.6,3.4,4,7.8,48.5,20.5c.7.3,1.2,1.7,1.3,3.2a12.2,12.2,0,0,1,0,2.7C1362.9,1158,1362.5,1159.3,1361.7,1159.7Z" transform="translate(-176.1 -205.5)"/><path class="c" d="M1274.1,1130.8a15.7,15.7,0,0,0-6.4-1.1l-.4,2.6a13.2,13.2,0,0,1,5.8,1,12.6,12.6,0,0,1,7.3,16.3l-.4.8,2.8.3h0A15.4,15.4,0,0,0,1274.1,1130.8Z" transform="translate(-176.1 -205.5)"/><rect class="c" x="1313.2" y="1135.5" width="6.8" height="2.61" transform="translate(-516 1462) rotate(-58.6)"/><rect class="c" x="1322.7" y="1139.5" width="6.8" height="2.61" transform="translate(-514.9 1472) rotate(-58.6)"/><rect class="c" x="1332.2" y="1143.5" width="6.8" height="2.61" transform="translate(-513.7 1482.1) rotate(-58.6)"/><rect class="c" x="1341.8" y="1147.5" width="6.8" height="2.61" transform="translate(-512.6 1492.1) rotate(-58.6)"/><path class="c" d="M1363,1156.5l-80.6-11.3.3-2.6,80.3,11.2A12.2,12.2,0,0,1,1363,1156.5Z" transform="translate(-176.1 -205.5)"/><polygon class="t" points="1133.1 719.3 1193.3 719.3 1134.4 737.9 1133.1 719.3"/><polygon class="t" points="1075.4 719.3 1133.1 719.3 1077.2 735.6 1075.4 719.3"/><rect class="t" x="1339.3" y="976.8" width="21" height="2.76" transform="translate(-318.3 29.2) rotate(-9.4)"/><rect class="t" x="1280" y="976.8" width="21" height="2.76" transform="translate(-319.1 19.5) rotate(-9.4)"/><path class="t" d="M1322.3,493.2a6.6,6.6,0,0,1-3.3-.9.8.8,0,0,1-.2-1.2.8.8,0,0,1,1.1-.2,5.6,5.6,0,0,0,4.1.4.8.8,0,0,1,1.1.5.8.8,0,0,1-.5,1A7.6,7.6,0,0,1,1322.3,493.2Z" transform="translate(-176.1 -205.5)"/><path class="t" d="M1349,492.5a5.9,5.9,0,0,1-2.2-.4.8.8,0,0,1,.5-1.5,5.6,5.6,0,0,0,4.1-.4.9.9,0,0,1,1.2.3.8.8,0,0,1-.3,1.1A6.1,6.1,0,0,1,1349,492.5Z" transform="translate(-176.1 -205.5)"/><path class="c" d="M1308.1,583.8c-11.9-3.8-24.4-15.5-24.4-15.5s-9.2.7-13.9,1.6-19.8,5.5-21.2,26.2c-1.2,18,11.4,130.8,11.4,130.8s-20.4,34.1-20.1,74.1c.2,18.4,4.2,71.5,8.6,123.8h59.6Z" transform="translate(-176.1 -205.5)"/><path class="c" d="M1356,726.9s8.1-46,12.5-58.9c5.2-14.8,11.1-52.9,8.2-62.5s-10.6-19.5-14.9-22.1-22.6-12.9-22.6-12.9c-1.4,6.2-4,10-7.3,12.2V924.8h38.5c5.6-52.9,10.8-106.8,11-125.2C1381.8,759.6,1356,726.9,1356,726.9Z" transform="translate(-176.1 -205.5)"/><path class="s" d="M1361.6,756s18.6,0,20.1-2.5-19.1-5.4-19.1-5.4,19.3-1.1,19.1-2.7c-.4-4-27.5-3.2-27.1-6.2s6.8-5.5,10.2-6.4a1.4,1.4,0,0,0,1-1.7c-.5-1.4-1.7-3.2-5.4-2.5a67,67,0,0,0-26,10.7c-10-5.1-50-21-87.1-40.6,12.9-33,30.2-67.2,37.6-82.9a71.1,71.1,0,0,0,6-17.2c3.1-16-13.8-28.6-28-20.5-5.6,3.1-11.4,8.9-16.5,18.9-8.1,15.7-22.5,43.7-34,78.4-3.2,9.5-6.1,19.5-8.7,29.9a18.3,18.3,0,0,0,10.1,21c7.2,3.3,14.8,6.6,22.6,9.6,29,11.3,61.7,19.8,95.9,20.5v-.2c3.1,1.8,26.8,15,37.5,15.1a.9.9,0,0,0,.8-1.4c-.8-1.4-3.2-3.6-10.2-6.4,0,0,16.2,1.8,18.7-.1S1361.6,756,1361.6,756Z" transform="translate(-176.1 -205.5)"/><path class="c" d="M1292,587.5a21.9,21.9,0,0,0-24.2-13,23,23,0,0,0-13.1,7.8c-12.3,13.6-31.4,52.2-31.4,52.2l45.2,25.3,22.9-57.5a17.9,17.9,0,0,0,.7-14.5A.4.4,0,0,1,1292,587.5Z" transform="translate(-176.1 -205.5)"/><polygon class="d" points="1131.9 521.6 1132.9 377.7 1107.4 362.9 1096.7 366.1 1109.2 379.3 1128 381.5 1117.1 395.1 1131.9 521.6"/><polygon class="t" points="1090.5 453.4 1051.2 431.3 1045.1 445.9 1090.5 453.4"/><polygon class="d" points="1155.8 377.7 1156 523.2 1169.2 397.7 1158.6 384.9 1171.5 384.9 1179.2 375.6 1162.9 365.1 1155.8 377.2 1155.8 377.7"/><path class="x" d="M1344.2,471.7a10.5,10.5,0,0,1,2.4-.6c6.1-.5,9.7,7.4,15.6,8.4s8.8-3.2,11.7-6.9c1.4-1.8,2.9-3.9,2.5-6.2a12.7,12.7,0,0,1-13.7,2.2c-3.6-1.8-6.2-5.1-8.1-8.7s-3.2-7.4-5.2-10.9a34.4,34.4,0,0,0-22.8-16.3,42,42,0,0,0-15.8.3,29.6,29.6,0,0,0-9.2,3.2,34.7,34.7,0,0,0-5.7,4.4c-5.4,4.7-12.8,10.6-15,17.7-1.3,4.1,3.7,4.2,6.9,5s7.8,1,11.5,2,3.1,3.1,5.7,4a10.9,10.9,0,0,0,6.2,0,22.5,22.5,0,0,0,5.7-1.9c3.1-1.4,6.8-3.4,9.6-1.5s2.3,3.5,3.6,5.3a8,8,0,0,0,8.5,3.1C1340.6,473.8,1342.3,472.5,1344.2,471.7Z" transform="translate(-176.1 -205.5)"/><path class="x" d="M1284.3,457.7a3.2,3.2,0,0,0-.1.7c-25.7,4.9-20.4,44.3-18.2,62.7.4,3.6.7,7.7-1.6,10.5s-9.6,3.1-13.2,6.5c-6.2,5.9,1,17.3-3.4,24.6-2.8,4.7-9.1,5.7-13.4,9.1s-5,6.4-6.4,10.1a33.3,33.3,0,0,0-.5,21.4c1.6,5.8,0,10,4.4,11.2a2.4,2.4,0,0,0,2.8-1.6c2.1-5.4,5.7-9.8,9.1-14.5,6.9-9.8,13.7-22.7,26-26.3a96.9,96.9,0,0,1,17.6-3.4,2.3,2.3,0,0,0,2.1-1.7c8.2-26.8.4-47.3-1.9-52.4a2.3,2.3,0,0,0-1.8-1.4c-8.5-1.1-10.3-7.2-11.1-10.8a10,10,0,0,1,.9-7,7.1,7.1,0,0,1,11.7-1c4.7,5.7,6.4,4.2,6.4,4.2a18.1,18.1,0,0,0,7.5-6.4c3.7-5.4,4.7-12.1,3.7-18.6-1.7-11.2,4.9-13.5,4.9-13.5a27.4,27.4,0,0,1,5.9-1.3C1305.3,457.9,1294.2,462,1284.3,457.7Z" transform="translate(-176.1 -205.5)"/><path class="d" d="M4444,1043.7l1.6,1.8,4.6,4.3,3.1,2.9,3.6,3,3.9,3.1c1.3,1.1,2.8,2,4.2,3l4.2,3c1.4,1,2.9,1.7,4.3,2.6l4,2.4a11.8,11.8,0,0,0,1.9,1.1l1.8.9,7.8,3.9-32.3,71.1-11.9-5.9-2.8-1.4-2.8-1.7-6.2-3.7c-2.2-1.3-4.4-2.5-6.6-4l-6.5-4.6c-2.2-1.5-4.4-3-6.5-4.6l-6-4.9-5.5-4.5-4.8-4.4-6.9-6.6-2.5-2.7Z" transform="translate(-176.1 -205.5)"/><polygon class="c" points="4310.4 869 4312.9 870.3 4280.6 941.3 4276.8 939.4 4310.4 869"/><polygon class="c" points="4267.3 881.7 4269.2 883.1 4243.1 919.6 4240.7 917.9 4267.3 881.7"/><polygon class="c" points="4281.8 891.3 4283.9 892.5 4261.5 931.4 4259 929.9 4281.8 891.3"/><polygon class="c" points="4253.7 870.7 4255.4 872.4 4225.9 906.1 4223.8 904.1 4253.7 870.7"/><path class="d" d="M4411.3,995.8s.4.9,1.2,2.3.8,1.7,1.3,2.7,1.1,2.2,1.8,3.4l4.7,8.3,5.8,9.1,6.2,8.6c2.1,2.6,4.1,5,5.7,7.1l2.4,2.6,1.9,2.1,1.7,1.7-56.3,54.1-2.5-2.6-2.8-3.1c-1.1-1.2-2.4-2.5-3.6-4l-8.5-10.4-8.9-12.3c-2.7-4.4-5.5-8.7-8.1-12.7s-4.5-8-6.4-11.3l-2.4-4.6-1.7-3.5-1.6-3.1Z" transform="translate(-176.1 -205.5)"/><polygon class="c" points="4266 836.2 4267.9 838.3 4211.6 892.4 4208.7 889.2 4266 836.2"/><polygon class="c" points="4220.9 832.2 4222.2 834.2 4184.9 859.2 4183.4 856.8 4220.9 832.2"/><polygon class="c" points="4231.1 846.5 4232.6 848.3 4197.6 876.4 4195.8 874.1 4231.1 846.5"/><polygon class="c" points="4211.8 817.1 4213 819.2 4174 841.4 4172.6 838.9 4211.8 817.1"/><path class="d" d="M4389.7,936.9s1.1,3.8,2.7,9.7,4.1,13.4,6.9,20.7c1.2,3.8,2.8,7.3,4.1,10.7s2.7,6.5,3.9,9.2l2.8,6.3,1.2,2.3-70.1,34.4-1.5-3.1c-1-1.9-2.2-4.8-3.7-8.1s-3.3-7.4-5-11.7-3.6-8.8-5.1-13.3c-3.4-9.2-6.2-18.3-8.3-25.2s-3.3-11.4-3.3-11.4Z" transform="translate(-176.1 -205.5)"/><polygon class="c" points="4233.9 787.6 4235.2 790.3 4165.2 824.8 4163.4 821.1 4233.9 787.6"/><polygon class="c" points="4191 770.3 4191.8 772.6 4149.6 787.8 4148.7 785.3 4191 770.3"/><polygon class="c" points="4197.3 786.9 4198.2 789.1 4156.8 806.5 4155.8 804 4197.3 786.9"/><polygon class="c" points="4185.4 753.4 4186.1 755.7 4143.3 769.1 4142.5 766.5 4185.4 753.4"/><path class="d" d="M4375.9,872s.7,4.2,1.8,10.4,2.6,14.4,4.4,22.5c.8,4.1,1.7,8.1,2.6,11.9l1.2,5.4q.6,2.5,1.2,4.8,1.2,4.5,1.8,7.2a16.7,16.7,0,0,0,.6,2l.2.7-75.4,20.5-.2-.8c-.1-.6-.4-1.3-.6-2.3s-1.2-4.9-2.1-8.3c-.5-1.7-.9-3.6-1.4-5.5s-.9-4.1-1.4-6.2c-1-4.3-2.1-8.8-3-13.4-1.9-9.1-3.5-18.1-4.8-24.9s-1.9-11.3-1.9-11.3Z" transform="translate(-176.1 -205.5)"/><path class="c" d="M4388.8,933.7l.4,1.6c.2.8.5,1.6.5,1.6l-75.4,20.5s-.2-.9-.5-1.9-.5-1.8-.5-1.8Z" transform="translate(-176.1 -205.5)"/><polygon class="c" points="4172.9 703.2 4173.4 705.6 4129.4 714.8 4128.9 712.2 4172.9 703.2"/><polygon class="c" points="4176.7 720.7 4177.2 723.1 4133.6 733.4 4133 730.9 4176.7 720.7"/><polygon class="c" points="4169.5 685.7 4169.9 688.1 4125.8 696.2 4125.3 693.6 4169.5 685.7"/><path class="d" d="M4366.4,803.9s.5,4.3,1.4,10.8,1.9,15.1,3.1,23.6c.5,4.2,1.2,8.5,1.7,12.4s1.2,7.7,1.7,10.8c1,6.3,1.6,10.5,1.6,10.5l-77,12.7s-.7-4.5-1.8-11.2c-.5-3.4-1.1-7.3-1.7-11.5s-1.3-8.6-1.9-13.1c-1.2-8.9-2.3-17.7-3.2-24.3s-1.4-11-1.4-11Z" transform="translate(-176.1 -205.5)"/><polygon class="c" points="4199.3 663.2 4199.9 666.5 4122.8 679.3 4122.2 675.6 4199.3 663.2"/><polygon class="c" points="4161.5 634.3 4161.8 636.7 4117.4 642.8 4117 640.3 4161.5 634.3"/><polygon class="c" points="4164 652 4164.4 654.5 4120 661.1 4119.6 658.6 4164 652"/><polygon class="c" points="4159.1 616.4 4159.5 618.8 4115 624.6 4114.6 622.1 4159.1 616.4"/><path class="d" d="M4356.9,733s.8,4.6,1.7,11.3c.5,3.4,1.1,7.3,1.7,11.5s1.1,8.6,1.7,13l4.4,35.1-77.5,9.7s-2.1-17.4-4.3-34.7c-.6-4.3-1.2-8.6-1.7-12.6s-1.1-7.7-1.5-10.8c-.9-6.3-1.6-10.4-1.6-10.4Z" transform="translate(-176.1 -205.5)"/><polygon class="c" points="4189.9 594.9 4190.3 598.4 4112.9 608.1 4112.4 604.6 4189.9 594.9"/><polygon class="c" points="4152.6 564.5 4152.9 567 4108.4 572.7 4108.1 570.4 4152.6 564.5"/><polygon class="c" points="4154.9 582.4 4155.2 584.9 4110.7 590.4 4110.4 588 4154.9 582.4"/><polygon class="c" points="4150.2 546.6 4150.5 549 4106.1 555.3 4105.7 552.9 4150.2 546.6"/><path class="d" d="M4341.8,660.2l.8,3.1c.5,2,1.2,4.8,2,8.2s1.8,7.4,2.8,11.6,2,8.8,2.9,13.4,1.8,9.1,2.7,13.4,1.5,8.3,2.1,11.7,1,6.3,1.3,8.3.5,3.1.5,3.1l-77.1,12.1s-.2-1.1-.4-2.9-.7-4.4-1.3-7.4-1.1-6.7-1.8-10.5-1.6-7.8-2.4-11.9-1.8-8.1-2.6-11.9-1.7-7.3-2.5-10.3-1.4-5.5-1.8-7.2-.7-2.8-.7-2.8Z" transform="translate(-176.1 -205.5)"/><polygon class="c" points="4180.3 523.9 4180.9 527.5 4103.8 539.6 4103.2 536.2 4180.3 523.9"/><polygon class="c" points="4141.1 494.7 4141.6 497.1 4097.7 506.3 4097.2 504.1 4141.1 494.7"/><polygon class="c" points="4144.7 512.5 4145.1 515 4100.9 523 4100.5 520.7 4144.7 512.5"/><polygon class="c" points="4137.1 477 4137.6 479.4 4094 489.8 4093.4 487.5 4137.1 477"/><path class="d" d="M4318.7,589.2l1.1,3c.7,2,1.9,4.7,3,8l4.1,11.3c1.5,4.1,2.8,8.5,4.3,13s2.9,8.9,4.1,13,2.5,8.1,3.4,11.5c1.8,6.7,3.1,11.2,3.1,11.2l-75.5,20s-1.1-4-2.8-9.9c-.7-3.1-1.8-6.5-2.9-10.2s-2.3-7.7-3.7-11.6-2.5-7.8-3.8-11.4l-3.5-10-2.7-6.9-1-2.7Z" transform="translate(-176.1 -205.5)"/><polygon class="c" points="4164.7 451.1 4165.7 454.8 4090.2 474.8 4089.3 471.5 4164.7 451.1"/><polygon class="c" points="4122.6 426.3 4123.3 428.6 4080.7 442.5 4080 440.3 4122.6 426.3"/><polygon class="c" points="4128 443.6 4128.7 446 4085.7 458.6 4085 456.4 4128 443.6"/><polygon class="c" points="4116.6 409 4117.5 411.4 4075.2 426.5 4074.5 424.3 4116.6 409"/><path class="d" d="M4287,520.9s9.1,16.6,17,33.7c1.9,4.3,3.9,8.6,5.7,12.6l4.6,11.1c.7,1.7,1.3,3.2,1.9,4.5s.9,2.5,1.3,3.4,1.2,3,1.2,3l-72.8,28.3s-.4-.9-1-2.6l-1.2-3-1.6-3.9c-1.2-2.8-2.6-6.1-4-9.7l-5-10.9c-6.8-14.8-14.6-29.1-14.6-29.1Z" transform="translate(-176.1 -205.5)"/><polygon class="c" points="4141.2 380.2 4142.6 383.8 4069.8 412.1 4068.7 409 4141.2 380.2"/><polygon class="c" points="4096.5 360.2 4097.5 362.5 4056.8 381.4 4055.9 379.3 4096.5 360.2"/><polygon class="c" points="4103.9 376.9 4104.9 379.2 4063.6 396.7 4062.7 394.6 4103.9 376.9"/><polygon class="c" points="4088.4 343.9 4089.6 346.1 4049.6 366.3 4048.5 364.3 4088.4 343.9"/><path class="d" d="M4245.3,456.9l2.1,2.6c1.2,1.7,3.2,4,5.2,7l7.1,10c2.6,3.7,5.2,7.7,7.8,11.7s5.1,8.1,7.5,11.9,4.5,7.3,6.2,10.5c3.5,6.1,5.8,10.3,5.8,10.3l-68.5,37.4-4.9-8.8c-1.5-2.6-3.4-5.6-5.3-8.8s-4-6.7-6.3-10.1-4.3-6.7-6.5-9.7l-5.9-8.4c-1.7-2.5-3.3-4.3-4.4-5.7l-1.6-2.2Z" transform="translate(-176.1 -205.5)"/><polygon class="c" points="4109.1 312.1 4111 315.4 4042.5 352.9 4040.9 350 4109.1 312.1"/><polygon class="c" points="4061.9 298.2 4063.2 300.2 4025.6 324.7 4024.4 322.8 4061.9 298.2"/><polygon class="c" points="4071.6 313.6 4072.9 315.7 4034.3 338.7 4033.2 336.8 4071.6 313.6"/><polygon class="c" points="4051.5 283.1 4052.9 285.1 4016.4 311.1 4015.1 309.3 4051.5 283.1"/><path class="d" d="M4192.2,400l.7.6,1.9,1.7,6.5,6,4.3,4,4.7,4.7,5,5c1.7,1.7,3.4,3.5,5,5.3l9.6,10.6,7.9,9.5,3.2,3.8,2.3,3,2,2.7-61.7,47.7-1.7-2.2L4180,500c-.7-1-1.6-2-2.6-3.2l-6.4-7.7-7.8-8.6c-1.3-1.5-2.7-2.8-4-4.2l-4-4-3.7-3.7c-1.2-1.2-2.4-2.2-3.5-3.2l-5.1-4.8-1.5-1.3-.5-.5Z" transform="translate(-176.1 -205.5)"/><polygon class="c" points="4066.9 248.3 4069.3 251.4 4007.5 299.1 4005.6 296.6 4066.9 248.3"/><path class="c" d="M4193.9,447.6l.8.9.9.9-32.8,30.7-.7-.8-.8-.8Z" transform="translate(-176.1 -205.5)"/><polygon class="c" points="4030.1 255.8 4031.7 257.7 3997.4 286.7 3996 285 4030.1 255.8"/><polygon class="c" points="4004.8 229.2 4006.7 230.9 3975.5 263.2 3973.9 261.7 4004.8 229.2"/><path class="d" d="M4126.9,355.1l11,6c6.4,3.9,15,8.9,23.1,14.7l6.1,4.2,5.7,4.3,5.3,4.1c1.7,1.2,3.3,2.5,4.7,3.7l9.4,7.9-51.3,58.8-7.4-6.2a39.8,39.8,0,0,0-3.7-2.9l-4.1-3.1-4.4-3.4-4.7-3.2c-6.2-4.5-12.8-8.3-17.7-11.3l-8.3-4.5Z" transform="translate(-176.1 -205.5)"/><polygon class="c" points="4013.1 192 4016.2 194.6 3964.8 253.4 3962.4 251.4 4013.1 192"/><polygon class="c" points="3963.4 195.8 3965.5 197.2 3940.1 234.2 3938.3 233 3963.4 195.8"/><polygon class="c" points="3978.3 206.6 3980.3 208.1 3952.7 243.5 3951 242.2 3978.3 206.6"/><polygon class="c" points="3947.9 186 3950 187.3 3926.9 225.7 3925.1 224.6 3947.9 186"/><path class="d" d="M4052.2,327l3.3.8,8.8,2.4,5.8,1.6,3.2.9,3.3,1.1,13.9,4.8,13.6,5.6,3.2,1.3,3,1.4,5.5,2.6c3.3,1.6,6.2,2.9,8.1,4l3,1.6-36.3,69.1-2.3-1.3c-1.4-.8-3.6-1.7-6.2-3L4078,418l-2.3-1.1-2.4-1-10.3-4.2-10.5-3.6-2.4-.8-2.5-.7-4.4-1.2-6.6-1.9-2.5-.6Z" transform="translate(-176.1 -205.5)"/><polygon class="c" points="3947.3 147.7 3950.9 149.6 3914.5 218.7 3911.8 217.2 3947.3 147.7"/><polygon class="c" points="3899.7 163.2 3902.1 164 3886.4 206.1 3884.4 205.4 3899.7 163.2"/><path class="c" d="M4092.9,375.5l1.1.5,1.2.5-18.4,40.9-.9-.4a3.5,3.5,0,0,0-1-.4Z" transform="translate(-176.1 -205.5)"/><polygon class="c" points="3882.2 157.5 3884.6 158.2 3871.7 201.2 3869.7 200.6 3882.2 157.5"/><path class="d" d="M3974.3,317.3h3.3l8.9.4,5.9.3,6.6.6c4.6.3,9.4.9,14.3,1.4l14.3,2c4.5.9,8.7,1.5,12.4,2.3l12.2,2.7-18.1,75.9-9.3-2c-2.8-.7-6.2-1.1-9.7-1.8l-11.3-1.6-11.4-1.2-5.3-.4-4.7-.2-7-.3h-2.7Z" transform="translate(-176.1 -205.5)"/><polygon class="c" points="3872.2 120.7 3876.1 121.5 3858 197.5 3855 196.8 3872.2 120.7"/><polygon class="c" points="3830 147.2 3832.5 147.4 3827.1 192 3825 191.7 3830 147.2"/><polygon class="c" points="3848.2 149.7 3850.6 150.1 3842.9 194.3 3840.8 194 3848.2 149.7"/><path class="c" d="M3987.8,351h2.5l-3,44.7h-2.2Z" transform="translate(-176.1 -205.5)"/><path class="d" d="M3896.5,323.4h.9l2.4-.5,8.8-1.4,12.4-1.6,14.3-1.4,14.3-.9,6.6-.2h18.1l-1.6,78H3970c-1.7-.1-4.2,0-7.1,0h-4.7l-5.3.2c-3.7.1-7.6.5-11.5.7l-11.4,1.1-9.9,1.3-7,1.2-1.9.3h-.7Z" transform="translate(-176.1 -205.5)"/><polygon class="c" points="3794.3 111.7 3798.2 111.8 3796.6 189.9 3793.5 189.8 3794.3 111.7"/><path class="c" d="M3934.7,351.8l1.3-.2h1.2l3.6,44.8h-2.1Z" transform="translate(-176.1 -205.5)"/><polygon class="c" points="3777 145.2 3779.4 145.1 3780.8 189.9 3778.6 190 3777 145.2"/><polygon class="c" points="3740.5 148.4 3742.9 148.1 3748.9 192.5 3746.7 192.8 3740.5 148.4"/><path class="d" d="M3821,345.8l3.1-1.3c2.1-.8,4.9-2.1,8.4-3.3,7-2.6,16.3-6,25.8-8.7s19-5.1,26.2-6.7l8.7-1.7,3.3-.7,14,76.8-2.6.5-6.9,1.4c-5.7,1.3-13.3,3.1-20.7,5.3l-5.5,1.7-5.2,1.7c-3.5,1.1-6.6,2.4-9.3,3.4s-4.9,1.9-6.4,2.5l-2.5,1Z" transform="translate(-176.1 -205.5)"/><polygon class="c" points="3716.5 118.7 3720.4 118 3734.4 194.8 3731.4 195.4 3716.5 118.7"/><polygon class="c" points="3688.6 159.8 3690.9 159.1 3703.7 202.1 3701.7 202.7 3688.6 159.8"/><path class="c" d="M3882.3,360.4l1.2-.3,1.2-.3,10.4,43.7-1.1.2-1,.3Z" transform="translate(-176.1 -205.5)"/><polygon class="c" points="3671.2 165.7 3673.5 164.8 3688.7 207 3686.7 207.8 3671.2 165.7"/><path class="d" d="M3751.6,386.3l2.8-2.2c1.7-1.4,4.3-3.2,7.4-5.4l5.1-3.6,5.7-3.7c3.9-2.7,8.3-5.2,12.6-7.8s8.8-4.8,12.9-7,8.1-4.2,11.5-5.7l8.2-3.7,2.4-1,.8-.4,30.4,71.9-.6.3-1.8.7-6.3,2.9-8.7,4.3-9.7,5.3c-3.2,1.9-6.5,3.8-9.4,5.8l-4.2,2.7-3.7,2.6-5.4,4-2,1.6Z" transform="translate(-176.1 -205.5)"/><path class="c" d="M3817.3,347.4l1.8-.8,1.9-.8,30.4,71.9-1.4.6-1.4.6Z" transform="translate(-176.1 -205.5)"/><polygon class="c" points="3623 188.6 3625.2 187.3 3647.8 226 3646 227.1 3623 188.6"/><polygon class="c" points="3639.2 179.7 3641.4 178.6 3661.4 218.7 3659.5 219.6 3639.2 179.7"/><path class="c" d="M3783.6,404l1-.8,1-.7,25.2,37.2-.8.5-.9.6Z" transform="translate(-176.1 -205.5)"/><path class="d" d="M3695.3,445.6l.5-.8,1.5-2.1,5.6-7.5c2.3-3.2,5.2-6.6,8.3-10.3,1.5-1.9,3.2-3.7,4.9-5.6l5.2-5.7c3.6-3.6,7.1-7.4,10.7-10.6l5.1-4.7,4.7-4c2.9-2.5,5.3-4.6,7.1-5.9l2.7-2.1,48,61.6-2,1.5-5.2,4.3c-1,.9-2.2,1.8-3.3,2.9l-3.7,3.4c-2.6,2.2-5,4.9-7.6,7.5s-2.5,2.7-3.7,4-2.4,2.6-3.5,4-4.2,5-5.8,7.2l-3.9,5.3c-.5.6-.8,1.2-1.1,1.5a1.1,1.1,0,0,1-.4.5Z" transform="translate(-176.1 -205.5)"/><polygon class="c" points="3572.3 183.3 3575.6 180.8 3623.5 242.4 3621.2 244.2 3572.3 183.3"/><path class="c" d="M3743.1,438.9l.9-.9.8-1,32.6,30.9-.7.7-.7.8Z" transform="translate(-176.1 -205.5)"/><polygon class="c" points="3580.2 220.4 3582 218.7 3612.1 252 3610.6 253.4 3580.2 220.4"/><polygon class="c" points="3555 247.5 3556.6 245.5 3591.5 273.7 3590.2 275.3 3555 247.5"/><path class="d" d="M3659.3,518.5s.4-1.2,1-3.3,1.9-5,3.2-8.6,2.8-7.8,4.8-12.1l3-6.7a37.3,37.3,0,0,1,1.6-3.5l1.7-3.4c1.1-2.3,2.3-4.6,3.4-6.8s1.2-2.2,1.7-3.3l1.8-3.2c2.5-4.1,4.7-8,6.7-11.3l7.1-10.7,64.1,44.4-5,7.7-4.8,8.1a25.3,25.3,0,0,1-1.3,2.2l-1.2,2.4c-.8,1.7-1.6,3.3-2.5,4.9l-1.2,2.5-1.2,2.5-2.1,4.9c-1.5,3.1-2.5,6.2-3.5,8.8s-1.9,4.8-2.4,6.3-.7,2.5-.7,2.5Z" transform="translate(-176.1 -205.5)"/><polygon class="c" points="3516.9 243.6 3519.2 240.1 3583.4 284.6 3581.8 287.1 3516.9 243.6"/><polygon class="c" points="3526.9 292.9 3528 290.7 3568.3 310.4 3567.4 312.2 3526.9 292.9"/><polygon class="c" points="3535.5 276.6 3536.7 274.4 3575.5 297.1 3574.4 298.9 3535.5 276.6"/><polygon class="c" points="3519.6 309.9 3520.5 307.6 3562.1 324.2 3561.4 326.2 3519.6 309.9"/><path class="d" d="M3644.9,597.8s0-1.2.1-3.4.3-5.4.7-9.2c.2-1.8.4-3.9.6-6l.3-3.4c.1-1.1.3-2.2.5-3.4s.7-4.8,1-7.2.7-5,1.3-7.5c1-4.9,1.9-9.9,2.9-14.5s2.3-8.9,3.3-12.5,2-6.7,2.6-8.8l1.1-3.4,74.2,24.3-.8,2.4c-.4,1.6-1.2,3.8-1.9,6.5s-1.6,5.8-2.4,9.2-1.5,7.1-2.2,10.8a52.5,52.5,0,0,0-.9,5.5c-.3,1.8-.6,3.6-.8,5.3s-.3,1.8-.4,2.6-.1,1.7-.2,2.5-.3,3.1-.4,4.5-.5,5.1-.6,6.8-.1,2.5-.1,2.5Z" transform="translate(-176.1 -205.5)"/><polygon class="c" points="3482 317 3483.2 313.1 3557.4 337.3 3556.5 340.2 3482 317"/><path class="c" d="M3681.5,566.8a8.4,8.4,0,0,0,.1-1.2,8.7,8.7,0,0,0,.3-1.3l44.2,7.9a11,11,0,0,0-.3,1.1v1Z" transform="translate(-176.1 -205.5)"/><polygon class="c" points="3509.1 343.3 3509.8 340.9 3553.3 351.8 3552.7 353.8 3509.1 343.3"/><polygon class="c" points="3503 379.6 3503.2 377.1 3547.8 382 3547.6 384.1 3503 379.6"/><path class="d" d="M3651.9,678.1s-.3-1.2-.7-3.4-1.3-5.3-1.8-9-1.5-8.1-2.1-12.8-1.1-9.7-1.7-14.8-.6-10-.9-14.8-.1-9.1-.2-12.9.1-6.9.2-9.1.2-3.5.2-3.5l77.9,3.6s0,1-.1,2.6-.2,4-.1,6.8,0,6.1.1,9.6.4,7.2.7,11,.8,7.4,1.2,10.9,1.1,6.6,1.6,9.4a64,64,0,0,0,1.3,6.6l.5,2.5Z" transform="translate(-176.1 -205.5)"/><polygon class="c" points="3468.6 396.4 3468.8 392.4 3546.8 396 3546.7 399 3468.6 396.4"/><polygon class="c" points="3503 433 3502.7 430.5 3547.4 426.5 3547.6 428.5 3503 433"/><polygon class="c" points="3501.8 414.6 3501.7 412.1 3546.6 411.1 3546.6 413.2 3501.8 414.6"/><polygon class="c" points="3505.5 451.2 3505 448.8 3549.3 441.7 3549.7 443.7 3505.5 451.2"/><path class="d" d="M3675.1,750.3l-4-10.6c-2.4-6.5-5.5-15.1-8.5-24.1s-5.8-18.2-7.7-25.3c-.5-1.8-.9-3.5-1.3-4.9s-.7-2.8-.9-3.9l-.8-3.4,76.1-17.3.6,2.5c.2.8.4,1.8.6,2.9s.7,2.4,1.1,3.8c1.4,5.6,3.7,13.2,6.3,20.9s5.5,15.6,7.7,21.5,3.7,9.9,3.7,9.9Z" transform="translate(-176.1 -205.5)"/><polygon class="c" points="3476.8 476.6 3475.9 472.6 3552 455.3 3552.6 458.3 3476.8 476.6"/><polygon class="c" points="3519 502.6 3518.2 500.3 3560.8 486 3561.5 488.2 3519 502.6"/><polygon class="c" points="3513.5 485.2 3512.8 482.9 3555.8 470.3 3556.5 472.4 3513.5 485.2"/><polygon class="c" points="3525.1 519.8 3524.3 517.4 3566.4 502 3567.2 504.2 3525.1 519.8"/><path class="d" d="M3700,815.1s-1.5-3.9-3.7-9.9-5.2-13.9-8.3-22l-12.9-32.9,72.9-28s6.4,16.3,12.7,32.6c3.2,8.3,6.5,16.8,8.8,23.2l4,10.7Z" transform="translate(-176.1 -205.5)"/><polygon class="c" points="3500.4 548.2 3499.1 544.8 3572 516.9 3573.2 520.1 3500.4 548.2"/><polygon class="c" points="3544 568.6 3543.1 566.3 3584.9 550.1 3585.8 552.4 3544 568.6"/><polygon class="c" points="3537.4 551.8 3536.5 549.6 3578.3 533.2 3579.2 535.5 3537.4 551.8"/><polygon class="c" points="3550.4 585.4 3549.5 583.1 3591.5 567.3 3592.4 569.7 3550.4 585.4"/><path class="d" d="M3717.3,876.5s-.1-.9-.4-2.5-.8-4-1.4-6.8c-1.2-5.7-3.2-13.3-5.4-21s-4.8-15.4-6.7-21.3-3.4-9.8-3.4-9.8l73.5-26.3,3.8,11c2.2,6.6,5.2,15.5,7.8,24.8s5.1,18.6,6.6,25.9c.8,3.6,1.5,6.6,1.8,8.8s.7,3.3.7,3.3Z" transform="translate(-176.1 -205.5)"/><polygon class="c" points="3525 612.8 3523.9 609.7 3597.4 583.4 3598.7 586.9 3525 612.8"/><polygon class="c" points="3566.8 634.5 3566.1 632.2 3609.3 619.8 3610 622.4 3566.8 634.5"/><polygon class="c" points="3561.6 617.5 3560.9 615.2 3603.5 601.2 3604.3 603.7 3561.6 617.5"/><path class="c" d="M3747.3,857.2a9.1,9.1,0,0,1-.3-1.2,9,9,0,0,1-.3-1.2l43.7-10.3a8.7,8.7,0,0,0,.3,1.3,8.4,8.4,0,0,0,.3,1.3Z" transform="translate(-176.1 -205.5)"/><path class="d" d="M3718.7,933s.2-.9.4-2.3.5-3.5.8-6c.1-.7.1-1.3.2-2a15.5,15.5,0,0,0,.1-2.2c.1-1.4.2-3,.3-4.6,0-3.2.2-6.7,0-10.3s-.3-7.1-.6-10.5-.7-6.5-1.1-9.3-.7-5.1-1-6.7l-.5-2.6,76.9-13.9s.2,1.3.6,3.4.8,5.3,1.4,9.1,1,8.2,1.5,13,.8,10,.9,15.3,0,10.5-.1,15.5c-.1,2.5-.3,4.9-.4,7.2s-.1,2.3-.2,3.4-.3,2.1-.4,3.1c-.4,4.1-.7,7.4-1.2,9.8s-.6,3.7-.6,3.7Z" transform="translate(-176.1 -205.5)"/><polygon class="c" points="3541.8 674.1 3541.3 671.1 3618.1 657.2 3618.8 661.2 3541.8 674.1"/><polygon class="c" points="3577.8 702.2 3577.7 699.9 3622.5 698.7 3622.6 701.6 3577.8 702.2"/><polygon class="c" points="3576.7 684.7 3576.5 682.4 3621.1 677.5 3621.4 680.3 3576.7 684.7"/><polygon class="c" points="3577.2 719.7 3577.3 717.3 3622.1 720.5 3621.9 723.5 3577.2 719.7"/><path class="d" d="M3698.8,983.6l1.3-2c.4-.7.8-1.5,1.4-2.4s1.1-2,1.8-3.1a138.2,138.2,0,0,0,8.1-17.1c1.3-3.2,2.3-6.5,3.4-9.5.5-1.5.8-3.1,1.3-4.5a37.5,37.5,0,0,0,1-3.9c.5-2.4,1-4.4,1.3-5.9l.3-2.2,77,13.1-.6,3.7c-.4,2.3-1.3,5.7-2.1,9.7-.5,2-1.1,4.1-1.7,6.3l-2,7c-.8,2.4-1.6,4.9-2.5,7.4s-1.9,4.9-2.8,7.4a201.2,201.2,0,0,1-12.6,26.5c-.9,1.8-1.8,3.4-2.6,4.8s-1.6,2.5-2.2,3.5l-1.9,3.1Z" transform="translate(-176.1 -205.5)"/><polygon class="c" points="3542.2 730.2 3542.7 727.5 3619.6 740.6 3618.9 745 3542.2 730.2"/><polygon class="c" points="3565.1 768.5 3566 766.3 3607.6 782.9 3606.6 785.7 3565.1 768.5"/><polygon class="c" points="3571 752.1 3571.6 749.8 3614.7 762.1 3613.9 765 3571 752.1"/><path class="c" d="M3733.7,989.7l.6-1,.5-1.1,39.8,20.7-.7,1.3-.7,1.3Z" transform="translate(-176.1 -205.5)"/><path class="d" d="M3660,1027l2-1.7,5.1-4.5c4.1-3.8,9.4-9,14.3-14.4s9.3-11.1,12.4-15.4l3.7-5.3a19.4,19.4,0,0,0,1.3-2.1l65.9,41.9-2,3c-1.3,1.9-3.1,4.7-5.4,7.9a274.1,274.1,0,0,1-17.8,22.2c-6.9,7.6-14.2,14.7-19.8,19.9l-6.8,6-2.6,2.2Z" transform="translate(-176.1 -205.5)"/><path class="c" d="M3697.2,986l.8-1.2.8-1.2,65.9,41.9-1.2,1.8-1.1,1.8Z" transform="translate(-176.1 -205.5)"/><polygon class="c" points="3528 825.4 3529.6 823.6 3562.9 853.7 3560.9 855.8 3528 825.4"/><path class="c" d="M3715.4,1017.5l1.5-1.9,35.6,27.3a8.3,8.3,0,0,1-.9,1.1l-.9,1.2Z" transform="translate(-176.1 -205.5)"/><polygon class="c" points="3515.6 837.8 3517.3 836.2 3548.2 868.7 3546.2 870.6 3515.6 837.8"/><path class="d" d="M3608.4,1061.4s14.1-7.4,27-16.1A268.3,268.3,0,0,0,3660,1027l50.3,59.7-2.7,2.2-7,5.7c-5.9,4.6-13.9,10.4-22.1,15.8-16.3,10.9-33.4,19.8-33.4,19.8Z" transform="translate(-176.1 -205.5)"/><polygon class="c" points="3481.6 823.5 3483.9 821.5 3534.2 881.3 3531.1 883.8 3481.6 823.5"/><polygon class="c" points="3475.1 869.2 3477.1 867.9 3501.8 905.3 3499.6 906.8 3475.1 869.2"/><polygon class="c" points="3489.7 859.2 3491.6 857.7 3518.4 893.8 3516.2 895.4 3489.7 859.2"/><polygon class="c" points="3460 878.5 3462.1 877.3 3484.9 915.9 3482.5 917.3 3460 878.5"/><path class="d" d="M3549.4,1087.1l2.6-1,6.9-2.5c5.8-2.1,13.2-5.2,20.6-8.3s14.7-6.7,20-9.3l6.5-3.3,2.4-1.3,36.7,68.8-2.9,1.6-7.8,4c-6.4,3.2-15,7.3-23.8,11.1s-17.5,7.3-24.2,9.8l-8.1,2.9-3,1.1Z" transform="translate(-176.1 -205.5)"/><polygon class="c" points="3429.5 857.4 3432.3 855.9 3469.1 924.8 3465.6 926.6 3429.5 857.4"/><polygon class="c" points="3413.9 901.5 3416.1 900.5 3433.9 941.7 3431.5 942.8 3413.9 901.5"/><polygon class="c" points="3430.1 894.2 3432.3 893.1 3451.7 933.6 3449.3 934.7 3430.1 894.2"/><polygon class="c" points="3397.4 908.2 3399.6 907.3 3415.8 949.1 3413.4 950.1 3397.4 908.2"/><path class="h" d="M3638.2,1053.2l-33.4,113.1H3522L3708.9,527h114l187.9,639.3H3870.5l-33.3-113.1Zm174.9-82.3-75.7-256.5-75.2,256.5Z" transform="translate(-176.1 -205.5)"/><path class="b" d="M3961.9,551.8h105.6l10.7-56.6a51.4,51.4,0,0,0-50.5-60.9h-1a51.4,51.4,0,0,0-50.5,41.8Z" transform="translate(-176.1 -205.5)"/><path class="af" d="M3805.6,609.7s-9.7-15.9-8.3-18.5,14.5,13.5,14.5,13.5-9.1-17-7.6-17.7c3.6-1.7,17.1,21.8,19.3,19.9s1.2-8.7.2-12.1a1.3,1.3,0,0,1,.9-1.6c1.4-.4,3.7-.3,5,3.2a66.2,66.2,0,0,1,4.4,27.8c9.6,5.9,44,31.7,80,53.2,21.5-28.2,41.7-60.8,51.2-75.3a72.6,72.6,0,0,1,11.6-14.1c12-11,31.5-3.2,32.1,13.2.2,6.4-1.7,14.3-7.6,23.9-9.1,15.1-25.6,42-49.2,69.9-6.4,7.7-13.4,15.4-20.9,23a18.3,18.3,0,0,1-23.2,2.3c-6.6-4.4-13.3-9.1-20-14.3-24.8-18.8-49.1-42.3-67.5-71.1h.1c-3-1.7-26.6-15-32.3-24.2a.9.9,0,0,1,.7-1.4c1.6,0,4.7.9,10.8,5.4,0,0-10-12.9-9.6-16S3805.6,609.7,3805.6,609.7Z" transform="translate(-176.1 -205.5)"/><path class="c" d="M3985.7,581.3a21.8,21.8,0,0,1,23.7,13.8,23.9,23.9,0,0,1,.2,15.3c-5.3,17.6-28.3,54-28.3,54L3936.2,639l37.1-49.5a18,18,0,0,1,12.1-8.2Z" transform="translate(-176.1 -205.5)"/><polygon class="t" points="3761.9 434.7 3801.3 456.7 3792 469.5 3761.9 434.7"/><path class="af" d="M3992.1,1125.7c-6.5-51.1-34.8-276-31.6-326.6,1.4-21.9,5.5-37.9,10.4-49.5h63.2l-10.9,373C4020.2,1125,4004.2,1129.4,3992.1,1125.7Z" transform="translate(-176.1 -205.5)"/><path class="t" d="M3943.4,1166.3h82.7c3.7,0,6.7-3.4,6.7-7.6v-14.5l-80,3.3-16.1,11.2C3936.7,1162.9,3939.7,1166.3,3943.4,1166.3Z" transform="translate(-176.1 -205.5)"/><path class="d" d="M3937.7,1159.7a2.8,2.8,0,0,0,1.3.1l77.7-9.1,2.7-.3,7.6-.9a7.6,7.6,0,0,0,6.7-8.9l-1.6-8.3-.4-2.6-.8-3.9a8.4,8.4,0,0,0-9.1-6.9l-31.6,3.4-4,7.8-48.5,20.5c-.7.3-1.2,1.7-1.3,3.2a12.2,12.2,0,0,0,0,2.7C3936.5,1158,3937,1159.3,3937.7,1159.7Z" transform="translate(-176.1 -205.5)"/><path class="c" d="M4016.6,1150.6h.1l2.7-.3a3,3,0,0,1-.4-.8,12.7,12.7,0,0,1,7.3-16.3,13.2,13.2,0,0,1,5.8-1l-.4-2.6a16,16,0,0,0-6.4,1.1A15.4,15.4,0,0,0,4016.6,1150.6Z" transform="translate(-176.1 -205.5)"/><rect class="c" x="3981.5" y="1133.4" width="2.6" height="6.82" transform="translate(-184.5 2038.2) rotate(-31.4)"/><rect class="c" x="3972" y="1137.4" width="2.6" height="6.82" transform="translate(-187.9 2034) rotate(-31.4)"/><rect class="c" x="3962.5" y="1141.4" width="2.6" height="6.82" transform="matrix(0.85, -0.52, 0.52, 0.85, -191.45, 2029.41)"/><rect class="c" x="3952.9" y="1145.4" width="2.6" height="6.82" transform="translate(-195 2024.9) rotate(-31.4)"/><path class="c" d="M3936.4,1156.5l80.6-11.3-.3-2.6-80.3,11.2A12.2,12.2,0,0,0,3936.4,1156.5Z" transform="translate(-176.1 -205.5)"/><path class="af" d="M4031.1,1128.7l-8.5-379.1,60-.8c4.7,13.3,13.9,30.5,13.6,50.3-.8,53.8-25.6,280-30.9,327.2C4052.6,1131.7,4045.1,1131.4,4031.1,1128.7Z" transform="translate(-176.1 -205.5)"/><path class="af" d="M3977.9,583.6c10.2-6.1,17.2-8.3,22.1-14.3a108,108,0,0,0,2.8-12.4,56.5,56.5,0,0,0,1.1-14.5h0a12.3,12.3,0,0,0-1.5-5.2l47.5-26.7a.9.9,0,0,0-.1.5c-.8,4.4-6.5,38.9-.6,57.3a34.9,34.9,0,0,0,13.4,3,24.2,24.2,0,0,1,15.8,6.3c6,5.6,11.1,16.1,7.8,35.7-6.8,39.3-14.8,83.9-12.3,107.9h-89.2s-11.9-48.8-17.9-75.2S3962.5,592.9,3977.9,583.6Z" transform="translate(-176.1 -205.5)"/><path class="i" d="M4049.2,568.3s-42.6,36-50.2,2.2c0,0-17.8,10.2-22,12.9s-11.6,12.4-14.5,22.1,2.9,47.7,7.9,62.5,13.7,61,13.7,61l88,1.8s17.8-114.4,16.3-134.7-18.3-25.2-23.6-26.2S4049.2,568.3,4049.2,568.3Z" transform="translate(-176.1 -205.5)"/><path class="t" d="M4049.4,613.9l22,45S4048.4,625.6,4049.4,613.9Z" transform="translate(-176.1 -205.5)"/><path class="t" d="M4002.8,557.6c25.4,1.8,43.1-32.6,43.6-33.7-4.5,7.7-16.9,14.8-23.6,16.8s-14.5,1.4-18.5,1.1C4004.1,543.6,4003.3,555.2,4002.8,557.6Z" transform="translate(-176.1 -205.5)"/><path class="af" d="M3985.9,459.4c6.2-15.9,36-21.2,56.4-3.5,8.4,7.4,10.9,20,11,32.3a12.3,12.3,0,0,1,5.1,23.4,13.4,13.4,0,0,1-2.3,1.3,19.2,19.2,0,0,1-5.5.5,41.8,41.8,0,0,1-13.6,23.1,37.3,37.3,0,0,1-31.6,8c-8.8-1.8-21.9-7.5-25.1-16.6a23.8,23.8,0,0,1-1-7.5C3979.1,501.1,3978.8,477.6,3985.9,459.4Z" transform="translate(-176.1 -205.5)"/><path class="t" d="M3993.9,492.2c0,2.1-1.1,3.9-2.6,3.9s-2.6-1.8-2.6-3.9,1.2-3.8,2.6-3.8S3993.9,490.1,3993.9,492.2Z" transform="translate(-176.1 -205.5)"/><path class="t" d="M4010.2,492.9c0,2.1,1.1,3.9,2.6,3.9s2.6-1.8,2.6-3.9-1.2-3.9-2.6-3.9S4010.2,490.8,4010.2,492.9Z" transform="translate(-176.1 -205.5)"/><path class="u" d="M3993.2,514.3c-.5,1.1,1.2,2.9,3.7,4s5,1,5.4-.1-1.2-2.8-3.7-3.9S3993.6,513.3,3993.2,514.3Z" transform="translate(-176.1 -205.5)"/><path class="u" d="M4008.4,514.7c.5,1.1-1.1,2.8-3.6,3.7s-4.9.9-5.4-.2,1.1-2.8,3.6-3.8S4007.9,513.6,4008.4,514.7Z" transform="translate(-176.1 -205.5)"/><path class="v" d="M4001.1,518c3.7,0,6.8-2.3,9.3-4.1a.8.8,0,0,0,.2-1.2.9.9,0,0,0-1.2-.1c-2.4,1.7-5.1,3.8-8.3,3.8h-.2c-3-.1-6.9-1.8-8.1-4.3a.8.8,0,0,0-1.1-.4.8.8,0,0,0-.4,1.1c1.6,3.2,6.1,5.1,9.5,5.2Z" transform="translate(-176.1 -205.5)"/><path class="ag" d="M3993.2,475.6h-2.1a23.1,23.1,0,0,0-4.7.8l-2.4,1a10.1,10.1,0,0,0-2,1.4,4.8,4.8,0,0,0-1,1.5l-.4.6a1.2,1.2,0,0,0,.5,1.6,1.2,1.2,0,0,0,1.6-.3l.2-.2.2-.4a4.5,4.5,0,0,1,.7-.7,5.3,5.3,0,0,1,1.5-.8l1.9-.6a27.5,27.5,0,0,1,3.9-.2h1.9a2.1,2.1,0,0,0,2.2-1.7,2,2,0,0,0-1.7-2.2Z" transform="translate(-176.1 -205.5)"/><path class="ag" d="M4009.3,476.7h2.2a24.5,24.5,0,0,1,4.6.9l2.4,1.1a15.7,15.7,0,0,1,1.9,1.5,7.7,7.7,0,0,1,1,1.5l.3.6a1.2,1.2,0,0,1-.5,1.6,1.3,1.3,0,0,1-1.6-.4l-.2-.2-.2-.4-.7-.8-1.4-.8-1.9-.6a13.6,13.6,0,0,0-3.9-.3h-1.9a2,2,0,0,1-2.1-1.8,1.9,1.9,0,0,1,1.8-2.1Z" transform="translate(-176.1 -205.5)"/><path class="v" d="M4050.8,508.1h.1a.5.5,0,0,0,.4-.5c-.7-3-1.2-8.1,2.4-9.5a4.8,4.8,0,0,1,4,.4,4.7,4.7,0,0,1,2.4,3c0,.3.3.4.5.4s.4-.3.3-.5a5.7,5.7,0,0,0-2.8-3.7,5.6,5.6,0,0,0-4.7-.4c-4.2,1.6-3.7,7.2-3,10.4C4050.5,507.9,4050.7,508.1,4050.8,508.1Z" transform="translate(-176.1 -205.5)"/><path class="v" d="M4054.7,505.3l1.1-.2a.5.5,0,0,0,.3-.5c-.1-.2-.3-.4-.5-.3a2.5,2.5,0,0,1-2.1-.2c-1.6-.9-2.2-3.3-2.2-3.3a.5.5,0,0,0-.6-.3c-.2,0-.3.3-.3.5s.8,2.8,2.7,3.8A3,3,0,0,0,4054.7,505.3Z" transform="translate(-176.1 -205.5)"/><path class="v" d="M4000,505.6a10.3,10.3,0,0,0,5-1.1.9.9,0,0,0,.3-1.1,1,1,0,0,0-1.2-.3,10,10,0,0,1-6.3.7.5.5,0,0,1-.4-.3c-1.1-2.2,1.7-10.7,3.8-15.5a.8.8,0,0,0-.5-1.1.8.8,0,0,0-1.1.4c-.5,1.4-5.5,13.4-3.6,16.9a1.8,1.8,0,0,0,1.5,1.2A11,11,0,0,0,4000,505.6Z" transform="translate(-176.1 -205.5)"/><path class="w" d="M3982.3,505.1c0,2.5,2.4,4.4,5.5,4.4s5.5-1.9,5.5-4.4-2.5-4.3-5.5-4.3S3982.3,502.7,3982.3,505.1Z" transform="translate(-176.1 -205.5)"/><path class="w" d="M4008.2,505.1c0,2.5,2.5,4.4,5.5,4.4s5.6-1.9,5.6-4.4-2.5-4.3-5.6-4.3S4008.2,502.7,4008.2,505.1Z" transform="translate(-176.1 -205.5)"/><path class="v" d="M3996.5,490.1h.2a.2.2,0,0,0,0-.3c-.1-.1-5.2-5-9.6-1.2a.3.3,0,0,0,.4.4c4-3.5,8.8,1.1,8.8,1.1Z" transform="translate(-176.1 -205.5)"/><path class="v" d="M4017.2,490.1h.2a.2.2,0,0,0,0-.3c-.1-.1-5.2-5-9.6-1.2a.3.3,0,0,0,.4.4c4-3.5,8.7,1.1,8.8,1.1S4017.1,490.1,4017.2,490.1Z" transform="translate(-176.1 -205.5)"/><path class="d" d="M3982.7,726.9h93s22.8,34.1,22.4,74.1c-.1,18.4-4.7,71.5-9.6,123.8H3968.7c-5.5-52.9-10.6-106.8-10.8-125.2C3957.6,759.6,3982.7,726.9,3982.7,726.9Z" transform="translate(-176.1 -205.5)"/><path class="t" d="M3982,1166.3h82.8c3.6,0,6.6-3.4,6.6-7.6v-14.5l-80,3.3-16,11.2C3975.4,1162.9,3978.3,1166.3,3982,1166.3Z" transform="translate(-176.1 -205.5)"/><path class="d" d="M3976.3,1159.7a2.8,2.8,0,0,0,1.3.1l77.7-9.1,2.7-.3,7.6-.9a7.6,7.6,0,0,0,6.7-8.9l-1.5-8.3-.5-2.6-.7-3.9a8.6,8.6,0,0,0-9.2-6.9l-31.6,3.4-4,7.8-48.5,20.5c-.7.3-1.1,1.7-1.3,3.2a12.2,12.2,0,0,0,0,2.7C3975.1,1158,3975.6,1159.3,3976.3,1159.7Z" transform="translate(-176.1 -205.5)"/><path class="c" d="M4055.2,1150.6h.1l2.7-.3a3,3,0,0,0-.4-.8,12.8,12.8,0,0,1,7.3-16.3,13.4,13.4,0,0,1,5.9-1l-.5-2.6a15.3,15.3,0,0,0-6.3,1.1C4056,1134.1,4052.1,1142.9,4055.2,1150.6Z" transform="translate(-176.1 -205.5)"/><rect class="c" x="4020.2" y="1133.4" width="2.6" height="6.82" transform="translate(-178.8 2058.3) rotate(-31.4)"/><rect class="c" x="4010.6" y="1137.4" width="2.6" height="6.82" transform="translate(-182.3 2054) rotate(-31.4)"/><rect class="c" x="4001.1" y="1141.4" width="2.6" height="6.82" transform="translate(-185.8 2049.5) rotate(-31.4)"/><rect class="c" x="3991.5" y="1145.4" width="2.6" height="6.82" transform="translate(-189.3 2045.1) rotate(-31.4)"/><path class="c" d="M3975,1156.5l80.6-11.3-.3-2.6-80.3,11.2A12.2,12.2,0,0,0,3975,1156.5Z" transform="translate(-176.1 -205.5)"/><polygon class="t" points="3852.8 719.3 3792.6 719.3 3851.5 737.9 3852.8 719.3"/><polygon class="t" points="3910.5 719.3 3852.8 719.3 3908.7 735.6 3910.5 719.3"/><rect class="t" x="3986.8" y="967.7" width="2.8" height="20.97" transform="translate(2192.9 4546.4) rotate(-80.6)"/><rect class="t" x="4046.1" y="967.7" width="2.8" height="20.97" transform="matrix(0.16, -0.99, 0.99, 0.16, 2242.32, 4604.87)"/><path class="t" d="M4015.7,493.2a6.3,6.3,0,0,0,3.3-.9,1,1,0,0,0,.3-1.2.9.9,0,0,0-1.2-.2,5.6,5.6,0,0,1-4.1.4.8.8,0,0,0-.5,1.5A5.9,5.9,0,0,0,4015.7,493.2Z" transform="translate(-176.1 -205.5)"/><path class="t" d="M3989,492.5a7.6,7.6,0,0,0,2.3-.4.8.8,0,0,0,.5-1,.8.8,0,0,0-1.1-.5,5.6,5.6,0,0,1-4.1-.4.9.9,0,0,0-1.2.3.8.8,0,0,0,.3,1.1A6.3,6.3,0,0,0,3989,492.5Z" transform="translate(-176.1 -205.5)"/><path class="b" d="M3984.5,457.5c14.3-15.8,25.3-21,43.5-16.7l.8.2c21.5,5.2,29.6,26.1,24.4,46.7,0,0-24.4-7.6-32-11C4011.6,472.5,3984.5,457.5,3984.5,457.5Z" transform="translate(-176.1 -205.5)"/><path class="c" d="M4029.9,583.8c11.9-3.8,24.4-15.5,24.4-15.5s9.2.7,14,1.6,19.7,5.5,21.1,26.2c1.2,18-11.4,130.8-11.4,130.8s20.4,34.1,20.1,74.1c-.1,18.4-4.2,71.5-8.6,123.8h-59.6Z" transform="translate(-176.1 -205.5)"/><path class="c" d="M3982,726.9s-8-46-12.5-58.9c-5.1-14.8-11.1-52.9-8.2-62.5s10.7-19.5,15-22.1,22.5-12.9,22.5-12.9c1.4,6.2,4,10,7.3,12.2V924.8h-38.5c-5.6-52.9-10.8-106.8-11-125.2C3956.3,759.6,3982,726.9,3982,726.9Z" transform="translate(-176.1 -205.5)"/><path class="af" d="M3976.5,756s-18.7,0-20.2-2.5,19.1-5.4,19.1-5.4-19.3-1.1-19.1-2.7c.5-4,27.6-3.2,27.1-6.2s-6.8-5.5-10.2-6.4a1.3,1.3,0,0,1-.9-1.7c.4-1.4,1.7-3.2,5.3-2.5a67,67,0,0,1,26,10.7c10.1-5.1,50-21,87.1-40.6-12.9-33-30.2-67.2-37.6-82.9a75.7,75.7,0,0,1-6-17.2c-3-16,13.8-28.6,28-20.5,5.6,3.1,11.4,8.9,16.6,18.9,8,15.7,22.4,43.7,33.9,78.4,3.2,9.5,6.1,19.5,8.7,29.9a18.3,18.3,0,0,1-10,21c-7.3,3.3-14.8,6.6-22.7,9.6-29,11.3-61.7,19.8-95.8,20.5v-.2c-3.1,1.8-26.7,15-37.5,15.1a.9.9,0,0,1-.8-1.4c.8-1.4,3.2-3.6,10.2-6.4,0,0-16.2,1.8-18.7-.1S3976.5,756,3976.5,756Z" transform="translate(-176.1 -205.5)"/><path class="c" d="M4046.1,587.5a21.8,21.8,0,0,1,24.1-13,23.2,23.2,0,0,1,13.2,7.8c12.2,13.6,31.3,52.2,31.3,52.2l-45.2,25.3-22.9-57.5a18.3,18.3,0,0,1-.7-14.5Z" transform="translate(-176.1 -205.5)"/><polygon class="d" points="3854 521.6 3853 377.7 3878.5 362.9 3889.2 366.1 3876.7 379.3 3857.9 381.5 3868.8 395.1 3854 521.6"/><polygon class="t" points="3895.4 453.4 3934.7 431.3 3940.8 445.9 3895.4 453.4"/><polygon class="d" points="3830.1 377.7 3829.9 523.2 3816.7 397.7 3827.3 384.9 3814.4 384.9 3806.7 375.6 3823 365.1 3830.1 377.2 3830.1 377.7"/><path class="ac" d="M2179.6,935.8l-.5,8-.3,5.8-3.2,55.3-4.7,83.7-3.5,60.8a20.1,20.1,0,0,1-20,18.9h-84.2a20.1,20.1,0,0,1-20.1-18.9l-3.4-60.8-4.8-83.7-3.2-55.3-.3-5.8-.5-8Z" transform="translate(-176.1 -205.5)"/><polygon class="h" points="2003.1 738.4 2002.8 744.1 1855.7 744.1 1855.3 738.4 2003.1 738.4"/><path class="h" d="M2172.1,935.8l-4,69.1-4.8,83.7-3.4,60.8a20.1,20.1,0,0,1-20.1,18.9h7.6a20.1,20.1,0,0,0,20-18.9l3.5-60.8,4.7-83.7,4-69.1Z" transform="translate(-176.1 -205.5)"/><path class="ah" d="M2178,1009.1l-4.6,75.7a3.9,3.9,0,0,1-3.9,3.8H2040.1a4,4,0,0,1-4-3.8l-4.5-75.7a4.1,4.1,0,0,1,4-4.2H2174A4.1,4.1,0,0,1,2178,1009.1Z" transform="translate(-176.1 -205.5)"/><path class="ai" d="M2157.5,935.8l-4,69.1-4.8,83.7-3.4,60.8a20.1,20.1,0,0,1-20.1,18.9h14.2a20.1,20.1,0,0,0,20-18.9l3.5-60.8,4.8-83.7,3.9-69.1Z" transform="translate(-176.1 -205.5)"/><path class="ai" d="M2052.2,935.8l3.9,69.1,4.8,83.7,3.5,60.8a20.1,20.1,0,0,0,20,18.9h-14.2a20.1,20.1,0,0,1-20-18.9l-3.5-60.8-4.7-83.7-4-69.1Z" transform="translate(-176.1 -205.5)"/><rect class="aj" x="1858.8" y="701.2" width="144.7" height="29.22" rx="9.5"/><rect class="ah" x="1859.1" y="708.2" width="144.1" height="23.96"/><rect class="aj" x="1843.8" y="711.8" width="170.8" height="26.57" rx="10.2"/><path class="ah" d="M2180.5,917.2h-9.7a10.2,10.2,0,0,1,10.1,10.2v6.3a10.1,10.1,0,0,1-10.1,10.1h9.7a10.2,10.2,0,0,0,10.2-10.1v-6.3A10.2,10.2,0,0,0,2180.5,917.2Z" transform="translate(-176.1 -205.5)"/><rect class="ah" x="1850.9" y="722.9" width="40.3" height="4.86" rx="2.4"/><rect class="ah" x="1899.1" y="722.9" width="23.9" height="4.86" rx="2.4"/><path class="b" d="M2115.9,857.6a140.5,140.5,0,0,0,8.2-16.5c3.3-8.6,4.3-23-3.9-29.8l-2.1-1.7a2.6,2.6,0,0,0-4,3.2c3.6,6.9,4.3,15.7-10.2,21.2-9.6,3.6-14.8,7.8-16.3,13.3a33.3,33.3,0,0,0-.8,12.5,1.3,1.3,0,0,0,2.4.5h.1c3.3-7.1,10.2-7.9,11.9-7.3,5.5,2.2,3.5,8.5-.5,12.4a17.2,17.2,0,0,1-3.3,2.6,12.2,12.2,0,0,0-4.3,15.5c1.3,2.7,2.7,5.4,3.8,7.4l1.3,2c2.4,3.9,4.2,6.5,4.2,6.5s9-5,13.9-21.1a1.3,1.3,0,0,0-2.1-1.4C2108.1,881.5,2100.1,879.5,2115.9,857.6Z" transform="translate(-176.1 -205.5)"/><polygon class="aj" points="1951.8 883.1 1925.3 883.1 1923.1 799.5 1954 799.5 1951.8 883.1"/><polygon class="aj" points="1908.4 883.1 1892.2 883.1 1886.9 799.5 1908.4 799.5 1908.4 883.1"/><path class="q" d="M2409.2,768.1v358.5a41.7,41.7,0,0,1-41.7,41.7H2271a41.7,41.7,0,0,1-41.7-41.7V768.1a41.7,41.7,0,0,1,41.7-41.7h.6a14,14,0,0,0,14-14V650H2353v62.4a14,14,0,0,0,14,14h.5A41.7,41.7,0,0,1,2409.2,768.1Z" transform="translate(-176.1 -205.5)"/><path class="r" d="M2260.9,736.5h.6a14,14,0,0,0,13.6-10.5,13.9,13.9,0,0,1-3.5.4h-.6a41.6,41.6,0,0,0-33.8,17.3A42,42,0,0,1,2260.9,736.5Z" transform="translate(-176.1 -205.5)"/><path class="r" d="M2367.5,726.4h-.5a14,14,0,0,1-14-14V650h-67.4v11.8h57.3v61a13.8,13.8,0,0,0,14,13.7h.5c23,0,41.7,18.2,41.7,40.7v350.4c0,22.5-18.7,40.7-41.7,40.7h10.1a41.7,41.7,0,0,0,41.7-41.7V768.1A41.7,41.7,0,0,0,2367.5,726.4Z" transform="translate(-176.1 -205.5)"/><path class="c" d="M2247.6,816.6h-2.8V768.1a26.2,26.2,0,0,1,26.2-26.2h.6v2.8h-.6a23.4,23.4,0,0,0-23.4,23.4Z" transform="translate(-176.1 -205.5)"/><path class="c" d="M2298.8,1152.8H2271a26.2,26.2,0,0,1-26.2-26.2v-50.2h2.8v50.2A23.4,23.4,0,0,0,2271,1150h27.8Z" transform="translate(-176.1 -205.5)"/><rect class="j" x="2109.5" y="411.8" width="67.5" height="32.65" rx="16.2"/><path class="ak" d="M2285.6,633.5v.3a16.2,16.2,0,0,0,16.1,16.2h35.2a16.2,16.2,0,0,0,16.1-16.2v-.3a24.5,24.5,0,0,0-.2-2.7h-67A12.3,12.3,0,0,0,2285.6,633.5Z" transform="translate(-176.1 -205.5)"/><rect class="c" x="2053.3" y="638.6" width="179.9" height="173.77"/><rect class="al" x="2223.1" y="638.6" width="10.1" height="173.77"/><rect class="i" x="2053.3" y="688.3" width="151.2" height="74.23"/><rect class="r" x="2109.5" y="444.5" width="67.5" height="25.85"/><rect class="j" x="2089.3" y="427.1" width="107.9" height="37.11" rx="18.4"/><polygon class="am" points="2272 749.7 2416.2 749.7 2343.3 798 2272 749.7"/><rect class="b" x="2339" y="801.5" width="10.1" height="156.88"/><rect class="b" x="2273.2" y="946" width="141.7" height="16.87" rx="8.4"/><polygon class="i" points="2286.9 759.8 2343.3 798 2400.9 759.8 2286.9 759.8"/><path class="j" d="M2621.8,876.7,2517.1,981.4a4.6,4.6,0,0,1-6.7,0h-.1a4.8,4.8,0,0,1,0-6.8L2615,869.9a4.8,4.8,0,0,1,6.8,0h0A4.6,4.6,0,0,1,2621.8,876.7Z" transform="translate(-176.1 -205.5)"/><path class="b" d="M2597.1,943.9H2443.2a9.8,9.8,0,0,0-5.5,17.9l76.2,51.6a9.7,9.7,0,0,0,10.8,0l77.8-51.6C2610.6,956.5,2606.8,943.9,2597.1,943.9Zm-77.8,59.6L2448,955.2h144.2Z" transform="translate(-176.1 -205.5)"/><rect class="an" x="1981.3" y="948.1" width="625" height="21.03" transform="translate(-182.1 1697.3) rotate(-45)"/><rect class="an" x="2283.3" y="646.1" width="21" height="625" transform="translate(-182.1 1697.3) rotate(-45)"/></svg>