<svg xmlns="http://www.w3.org/2000/svg" viewBox="0 0 24 24"><defs><style>.a{fill:#fff;opacity:0;}</style></defs><rect class="a" width="24" height="24"/><path d="M16.3,17.3a5.9,5.9,0,0,1-2.6.7A5.1,5.1,0,0,1,10,16.4a6.1,6.1,0,0,1-1.3-3.1h-1v-.8h.9v-.3c0-.3.1-.6.1-.8h-1v-.9H8.8a5.7,5.7,0,0,1,1.5-3A4.7,4.7,0,0,1,13.8,6a5,5,0,0,1,2.4.6l-.4,1.1a4.6,4.6,0,0,0-2-.5,2.9,2.9,0,0,0-2.3,1,4.5,4.5,0,0,0-1.1,2.3h5v.9H10.3v1.1h5.1v.8H10.3a4.4,4.4,0,0,0,1,2.3,3.2,3.2,0,0,0,2.5,1.1,4.3,4.3,0,0,0,2.2-.6Z"/></svg>