<svg xmlns="http://www.w3.org/2000/svg" viewBox="0 0 24 24"><defs><style>.a{fill:#fff;}</style></defs><rect class="a" width="24" height="24.04"/><path d="M6.4,14H5.6a1.3,1.3,0,0,0-.1-.6,3.6,3.6,0,0,1,.2-1.1,2.6,2.6,0,0,1,1.1-1.4,2.2,2.2,0,0,0,.9-.7,3.6,3.6,0,0,0,.4-.9A2,2,0,0,0,8,8.6a1.2,1.2,0,0,0-1.1-.9,1.7,1.7,0,0,0-1.2.2A1.9,1.9,0,0,0,5,9v.2c0,.1,0,.1-.1.1H3.4c-.1,0-.1,0-.1-.1a1.6,1.6,0,0,1,.2-1A2.9,2.9,0,0,1,5.8,6.1H7.3a4.2,4.2,0,0,1,1.9.9,3.3,3.3,0,0,1,.7,1.6,3,3,0,0,1-1.4,3.2l-.8.6a1.3,1.3,0,0,0-.4,1,1.3,1.3,0,0,0-.1.6H6.4Z" transform="translate(5.4 0)"/><path d="M8,16.6a1.3,1.3,0,0,1-.1.6,1.2,1.2,0,0,1-1.1.8H6.1a1.3,1.3,0,0,1-.8-1.1,1.7,1.7,0,0,1,.1-.7,1.3,1.3,0,0,1,1.1-.8H7a1.4,1.4,0,0,1,1,1.2Z" transform="translate(5.4 0)"/></svg>