<svg xmlns="http://www.w3.org/2000/svg" viewBox="0 0 24 24"><defs><style>.a{fill:#cd0ce2;opacity:0;}</style></defs><rect class="a" width="24" height="24.04" rx="12"/><path d="M11.8,14H11a1.3,1.3,0,0,0-.1-.6,4.3,4.3,0,0,1,.2-1.1,2.6,2.6,0,0,1,1.1-1.4,2.2,2.2,0,0,0,.9-.7,3.6,3.6,0,0,0,.4-.9,1.7,1.7,0,0,0-.1-.7,1.2,1.2,0,0,0-1.1-.9,1.7,1.7,0,0,0-1.2.2A1.9,1.9,0,0,0,10.4,9v.2c0,.1,0,.1-.1.1H8.8c-.1,0-.1,0-.1-.1a1.8,1.8,0,0,1,.2-1,2.9,2.9,0,0,1,2.3-2.1h1.5a3.4,3.4,0,0,1,1.9.9,3.3,3.3,0,0,1,.7,1.6,3,3,0,0,1-1.4,3.2l-.8.6a1.3,1.3,0,0,0-.4,1,1.3,1.3,0,0,0-.1.6Z"/><path d="M13.4,16.6a1.3,1.3,0,0,1-.1.6,1.2,1.2,0,0,1-1.1.8h-.7a1.2,1.2,0,0,1-.8-1.1,1.7,1.7,0,0,1,.1-.7,1.2,1.2,0,0,1,1.1-.8h.5A1.5,1.5,0,0,1,13.4,16.6Z"/></svg>