<svg xmlns="http://www.w3.org/2000/svg" viewBox="0 0 4.2 5"><defs><style>.a{fill:#111;}.b{fill:#ec3b00;}</style></defs><path class="a" d="M2.3,4.8h.1A.1.1,0,0,0,2.3,4.8Z"/><path class="a" d="M2.6,4.6H1.7c-.1,0-.1,0-.1.1h1Z"/><path class="a" d="M2.6,4.4h0Z"/><path class="a" d="M2.6,4.2h0Z"/><path class="a" d="M2.1.6A1.5,1.5,0,0,0,.6,2.1a1.4,1.4,0,0,0,.6,1.2h0a.7.7,0,0,1,.3.5.3.3,0,0,0,.3.3h.7a.5.5,0,0,0,.3-.3c0-.3.2-.5.3-.5h0a1.7,1.7,0,0,0,.5-1.2A1.5,1.5,0,0,0,2.1.6ZM1.8,2.2l.3.2.3-.2.2.2a2.6,2.6,0,0,0-.4,1.4H2c.1-.2,0-.7-.4-1.4ZM3,3.2H3a.7.7,0,0,0-.4.6c0,.1,0,.1-.1.1H2.3a1.8,1.8,0,0,1,.1-.5,2.1,2.1,0,0,1,.4-1.1c.1,0,.2-.1.2-.3H2.8c0,.1,0,.1-.1.2H2.6A.2.2,0,0,1,2.4,2H2.3a.2.2,0,0,1-.2.2A.2.2,0,0,1,1.9,2H1.8a.2.2,0,0,1-.2.2H1.5c0-.1-.1-.1-.1-.2H1.2c0,.1.1.3.2.3a4.8,4.8,0,0,1,.5,1.1v.5H1.8c-.1,0-.2,0-.2-.1a1,1,0,0,0-.3-.6H1.2A1.5,1.5,0,0,1,.8,2.1,1.3,1.3,0,0,1,2.1.8,1.3,1.3,0,0,1,3.5,2.1,1.6,1.6,0,0,1,3,3.2Z"/><path class="a" d="M2.1.5h.1V.1H2V.4Z"/><path class="a" d="M.9,1H1L.7.6H.6Z"/><path class="a" d="M.4,2H.1a.1.1,0,0,0,0,.2H.4A.1.1,0,0,0,.4,2Z"/><path class="a" d="M.9,3.2l-.3.3H.7L1,3.3H.9Z"/><path class="a" d="M3.3,3.3H3.2l.3.3h.1Z"/><path class="a" d="M4.2,2.1H3.7c0,.1,0,.1.1.1h.4Z"/><path class="a" d="M3.5.6,3.3.9c-.1,0-.1.1,0,.1h0L3.6.7H3.5Z"/><path class="a" d="M2.1.8A1.3,1.3,0,0,0,.8,2.1a.1.1,0,1,0,.2,0A1.1,1.1,0,0,1,2.1,1h0Z"/><path class="b" d="M2.6,2.4l-.2-.2-.3.2-.3-.2-.2.2c.4.7.5,1.2.4,1.4h.2A2.6,2.6,0,0,1,2.6,2.4Z"/></svg>