<svg xmlns="http://www.w3.org/2000/svg" xmlns:xlink="http://www.w3.org/1999/xlink" viewBox="0 0 122.1 73.6"><defs><style>.a{fill:url(#a);}.b,.o{fill:#ff0;}.b{stroke:#000;stroke-miterlimit:10;stroke-width:0.35px;}.c{fill:url(#b);}.d{fill:#006837;}.e{fill:url(#c);}.f{fill:#60b268;}.g{fill:#009245;}.h{fill:url(#d);}.i{fill:url(#e);}.j{fill:url(#f);}.k{fill:url(#g);}.l{fill:url(#h);}.m{fill:#662d91;}.n{fill:url(#i);}.p{fill:#ed1c24;}</style><linearGradient id="a" x1="1015.21" y1="741.06" x2="1021" y2="741.06" gradientUnits="userSpaceOnUse"><stop offset="0.22" stop-color="#60b268"/><stop offset="1" stop-color="#7bed8d"/></linearGradient><linearGradient id="b" x1="966.18" y1="738.58" x2="1021.06" y2="738.58" gradientUnits="userSpaceOnUse"><stop offset="0" stop-color="#7bed8d"/><stop offset="1" stop-color="#60b268"/></linearGradient><linearGradient id="c" x1="899.78" y1="742.96" x2="906.36" y2="742.96" gradientUnits="userSpaceOnUse"><stop offset="0.29" stop-color="#7bed8d"/><stop offset="0.94" stop-color="#60b268"/></linearGradient><linearGradient id="d" x1="966.18" y1="733.36" x2="973.26" y2="733.36" gradientUnits="userSpaceOnUse"><stop offset="0" stop-color="#60b268"/><stop offset="0.51" stop-color="#79e88a"/><stop offset="1" stop-color="#60b268"/></linearGradient><linearGradient id="e" x1="973.26" y1="734.36" x2="975.78" y2="734.36" xlink:href="#d"/><linearGradient id="f" x1="948.3" y1="733.37" x2="955.38" y2="733.37" xlink:href="#d"/><linearGradient id="g" x1="945.78" y1="734.33" x2="948.3" y2="734.33" xlink:href="#d"/><linearGradient id="h" x1="955.71" y1="744.38" x2="965.85" y2="744.38" gradientUnits="userSpaceOnUse"><stop offset="0" stop-color="#29abe2"/><stop offset="0.51" stop-color="#79e88a"/><stop offset="1" stop-color="#006837"/></linearGradient><linearGradient id="i" x1="959.3" y1="750.04" x2="960.8" y2="750.04" xlink:href="#d"/></defs><path class="a" d="M1021,737.8a20.9,20.9,0,0,1-.1,2.5,58.9,58.9,0,0,1-5.7,23.4V719.3l.9-.3,1.8-.6A62.1,62.1,0,0,1,1021,737.8Z" transform="translate(-898.9 -700.1)"/><path class="b" d="M966.8,702.2a1.5,1.5,0,0,0-.3-.7,3,3,0,0,0-.6-1.1h0c0,.2.1.4,0,.6s-.1.8-.5.9l-.9.4-1.3.7a4.3,4.3,0,0,0-.9,1l-.3.9a.9.9,0,0,1-.1.5v-.2a8.3,8.3,0,0,0-.8-2.2,4.2,4.2,0,0,0-2.6-1.9H956a5.3,5.3,0,0,0-1.2.3l-1.4.2h-.2a3.8,3.8,0,0,1,2.1,2.2,12.4,12.4,0,0,0,1,2,5.6,5.6,0,0,0,1.6,2.1,5.2,5.2,0,0,0,1.9,1.1l1.1.2a1.9,1.9,0,0,1,1,.3,2,2,0,0,1,.8,1.2,5,5,0,0,0-.2-1.2.5.5,0,0,0,.2.4,1.9,1.9,0,0,1-.2-.7,6.8,6.8,0,0,1-.2-1.4.6.6,0,0,1,.3-.6.5.5,0,0,1,.5-.3,2.9,2.9,0,0,1,1-.3l.9-.4.7-.5a5.7,5.7,0,0,0,1.1-1.6A2.8,2.8,0,0,0,966.8,702.2Zm-11.1-.2h1.1a6.8,6.8,0,0,1,2,.7,6.5,6.5,0,0,1,2.9,3.2,5,5,0,0,1,.4,1.3h.1c0,.1,0,.1-.1.2v.2a3.7,3.7,0,0,0,.1,1.1h0c.1,0,.1.1.1.2A11.1,11.1,0,0,0,955.7,702Zm9.8,1.1a6.9,6.9,0,0,1-1.6,1.8l-1.2,1.2a1.7,1.7,0,0,0-.5,1.2V707a.3.3,0,0,1-.1-.2h0v-.3h0c-.1,0-.1,0,0-.1h0a4.3,4.3,0,0,1,1.3-1.7l1.5-1.1.9-.7h0A.9.9,0,0,1,965.5,703.1Z" transform="translate(-898.9 -700.1)"/><path class="c" d="M1021.1,704.5v33.3h-.1a62.1,62.1,0,0,0-3.1-19.4l-1.8.6-.9.3-25.5,29.3h0L977,763.1l-7.7,8.9a4.7,4.7,0,0,1-3.1,1.6V735.7a23.5,23.5,0,0,0,3.7.5h1.6l1.8-.3v21.1l.9-1,5.2-6.1,3.8-4.4,2.1-2.4,8.9-10.2,18.2-21,1.8-2,5.1-5.9A1,1,0,0,1,1021.1,704.5Z" transform="translate(-898.9 -700.1)"/><path class="d" d="M962.4,709.1a10.9,10.9,0,0,0-6.6-7.1l1,.2a4.8,4.8,0,0,1,2,.7,5.9,5.9,0,0,1,2.9,3.1,5,5,0,0,1,.4,1.3c.1,0,.1.1,0,.2a5.9,5.9,0,0,0,.2,1.3C962.3,708.9,962.4,709,962.4,709.1Z" transform="translate(-898.9 -700.1)"/><path class="d" d="M965.8,702.5l-.3.5a9.3,9.3,0,0,1-1.6,1.8l-1.2,1.2a1.7,1.7,0,0,0-.5,1.2,4.3,4.3,0,0,0-.1-.5v-.6c-.1,0,0,0,0-.1a4,4,0,0,1,1.3-1.6l1.5-1.2a2.7,2.7,0,0,0,.8-.7Z" transform="translate(-898.9 -700.1)"/><path class="e" d="M906.4,719.3v47.5a60.1,60.1,0,0,1-6.5-18.4c-.1-1.4-.1-2.8-.1-4.2a59.8,59.8,0,0,1,5.4-25.1Z" transform="translate(-898.9 -700.1)"/><path class="f" d="M955.4,735.6v38.1h0a3.8,3.8,0,0,1-2.7-1.2L943,761.4l-14.4-16.6-22.2-25.5-1.2-.2a59.8,59.8,0,0,0-5.4,25.1c0,1.4,0,2.8.1,4.2a70.5,70.5,0,0,1-.8-7.9h0a23.5,23.5,0,0,1-.1-2.6h-.1v-36h1.6l5.9,6.8,1.8,2.1.9,1.1,15,17.2L935,741.6l1.7,2,3.9,4.5,5.3,6,2.4,2.8V735.7A11.5,11.5,0,0,0,955.4,735.6Z" transform="translate(-898.9 -700.1)"/><path class="g" d="M966.2,730.5v5.2a7.2,7.2,0,0,1-2-.9c-.2-.1-.3,0-.5.1s-.5.5-.8.5a1.1,1.1,0,0,1-.8-.2c-.2-.3.1-.4.2-.6s.7-1.7,1.2-2.5A2.5,2.5,0,0,1,966.2,730.5Z" transform="translate(-898.9 -700.1)"/><path class="h" d="M973.3,732.9v2.9l-1.8.3h-1.6a23.5,23.5,0,0,1-3.7-.5v-5.2h.4A29.4,29.4,0,0,1,973.3,732.9Z" transform="translate(-898.9 -700.1)"/><path class="i" d="M975.5,734.8a7.2,7.2,0,0,1-2.2,1v-2.9l2.2,1.2C976,734.4,975.8,734.6,975.5,734.8Z" transform="translate(-898.9 -700.1)"/><path class="j" d="M955.4,730.5v5.1a11.5,11.5,0,0,1-7.1.1v-2.8a28,28,0,0,1,6.9-2.3Z" transform="translate(-898.9 -700.1)"/><path class="k" d="M948.3,732.9v2.8a5.8,5.8,0,0,1-1.7-.6c-.3-.1-.8-.3-.8-.7s.5-.4.7-.6Z" transform="translate(-898.9 -700.1)"/><path class="g" d="M959.2,735.3a1.3,1.3,0,0,1-1.3-.3c-.3-.3-.4-.2-.8,0a8.5,8.5,0,0,1-1.7.6v-5.1h.3a2.6,2.6,0,0,1,2.1,1.1c.7,1,1.1,2.3,1.7,3.3S959.4,735.3,959.2,735.3Z" transform="translate(-898.9 -700.1)"/><path class="l" d="M965.8,738.8a2,2,0,0,0-.4-1.3,2.5,2.5,0,0,0-3.1-.6c-.3.2-.6.4-.5.8a1.1,1.1,0,0,0,.9.6l.6-.2a.8.8,0,0,1,1.2.6c.2.8-.3,1.1-.9,1.3a19.9,19.9,0,0,1-2.6.9.4.4,0,0,1-.5,0l-2.5-.8-.8-.5a.9.9,0,0,1,0-1.3.7.7,0,0,1,1.1-.2c.5.3,1.3.1,1.4-.3s-.4-.8-.8-1.1h-.4a2.5,2.5,0,0,0-2.6,1.5,1.9,1.9,0,0,0-.2.8,2.1,2.1,0,0,0,1.3,1.8,11.2,11.2,0,0,0,2.2.9,2,2,0,0,0-1.3,2.1c.1.9.9,1.4,1.6,1.8-1.2,1-1.2,2,.1,2.9a1.3,1.3,0,0,1,.6.5l.6.2c1,.7.9,1.1-.2,1.8s-.6.7-.6,1.3c2.4-1.3,2.8-2,1.6-3.5.5-.4,1.2-.8,1.3-1.6s-.2-1.2-.9-1.6c2.1-1.2,2.3-2.4.5-3.9a7.5,7.5,0,0,0,2.7-1.3A2.2,2.2,0,0,0,965.8,738.8Zm-3.5,8.2a1.5,1.5,0,0,1-1.4,1h-.5c-.9-.4-1.3-.9-1.1-1.3a1.9,1.9,0,0,1,2.1-.6C961.8,746.3,962.4,746.4,962.3,747Zm.3-3.7c.1.8-.7,1.1-1.3,1.4h-.9c-.9-.3-1.5-.9-1.5-1.4s.8-.9,1.8-1h.3C961.7,742.4,962.5,742.5,962.6,743.3Z" transform="translate(-898.9 -700.1)"/><path class="m" d="M961.9,732.9a2.1,2.1,0,0,0-.7,1.7c-.1,2.1-.1,4.2-.2,6.3a.4.4,0,0,1-.5,0c0-2.1,0-4.1-.1-6.1a2.3,2.3,0,0,0-.8-2,1.6,1.6,0,0,1,0-2.4,1.7,1.7,0,0,1,2.4.1A1.6,1.6,0,0,1,961.9,732.9Z" transform="translate(-898.9 -700.1)"/><path class="n" d="M960.8,749.5c-.1-.3-.2-.2-.4-.1s-.4.8.2,1.2v.3h0c-.3.5-.6.4-.9,0a1.2,1.2,0,0,1-.3-1.4c.2-.3.2-.8.8-.6l.6.2Z" transform="translate(-898.9 -700.1)"/><path class="o" d="M961,744.8h-.4a4.2,4.2,0,0,1,.1-2.5h.3A20.9,20.9,0,0,1,961,744.8Z" transform="translate(-898.9 -700.1)"/><path class="p" d="M961,746.4a4.2,4.2,0,0,1-.1,1.6h-.3v-1.6c-.1-.2-.1-.4.2-.4S961,746.3,961,746.4Z" transform="translate(-898.9 -700.1)"/></svg>