<svg xmlns="http://www.w3.org/2000/svg" xmlns:xlink="http://www.w3.org/1999/xlink" viewBox="0 0 123.1 108.3"><defs><style>.a{fill:#fe6900;}.b{fill:#ef5200;}.c{fill:#007e00;}.d{fill:#008d00;}.e{fill:#019501;}.f{fill:#008400;}.g{fill:#019901;}.h{fill:#008e00;}.i{fill:#00a400;}.j{fill:#008100;}.k{fill:#00a900;}.l{fill:#00b000;}.m{fill:#00b300;}.n{fill:#d8d9d8;}.o{fill:#dcdddc;}.p{fill:#d3d4d3;}.q{fill:#dfe0df;}.r{fill:#caccca;}.s{fill:#dbdcdb;}.t{fill:#bbbcbb;}.u{fill:#dddedd;}.v{fill:#d5d7d5;}.w{fill:#cdcfcd;}.x{fill:#cccecc;}.y{fill:#d4d9d4;}.z{fill:#cad0ca;}.aa{fill:#dddfdd;}.ab{fill:#babbba;}.ac{fill:#ced0ce;}.ad{fill:#d1d3d1;}.ae{fill:#999d99;}.af{fill:#7e887e;}.ag{fill:#7a867a;}.ah{fill:#5d6e5d;}.ai{fill:#a9aca9;}.aj{fill:#7d877d;}.ak{fill:#aaadaa;}.al{fill:#ddd;}.am{fill:#969996;}.an{fill:#758075;}.ao{fill:#717f71;}.ap{fill:#939893;}.aq{fill:#b8bbb8;}.ar{fill:#a8a9a8;}.as{fill:#a0a2a0;}.at{fill:#7c847c;}.au{fill:#c6c7c6;}.av{fill:#bbc1bb;}.aw{fill:#d3d3d3;}.ax{fill:#657165;}.ay{fill:#6c786c;}.az{fill:#526252;}.ba{fill:#d0d1d0;}.bb{fill:#818881;}.bc{fill:#c5cac5;}.bd{fill:#bbbdbb;}.be{fill:#758175;}.bf{fill:#828982;}.bg{fill:#d9dbd9;}.bh{fill:#c0c1c0;}.bi{fill:#5f6f5f;}.bj{fill:#a2a7a2;}.bk{fill:#a7aaa7;}.bl{fill:#7f8b7f;}.bm{fill:#929a92;}.bn{fill:#c1c3c1;}.bo{fill:#adb1ad;}.bp{fill:#e0e0e0;}.bq{fill:#9ca39c;}.br{fill:#00ac00;}.bs{fill:#afb1af;}.bt{fill:#a5aba5;}.bu{fill:#babeba;}.bv{fill:#00a300;}.bw{fill:#dbdddb;}.bx{fill:#989c98;}.by{fill:#697869;}.bz{fill:#828882;}.ca{fill:#667566;}.cb{fill:#737e73;}.cc{fill:#5b6d5b;}.cd{fill:#d5dad5;}.ce{fill:#768676;}.cf{fill:#405340;}.cg{fill:url(#a);}.ch,.cv{fill:#ff0;}.ch{stroke:#000;stroke-miterlimit:10;stroke-width:0.35px;}.ci{filter:url(#b);}.cj{fill:url(#c);}.ck{fill:#006837;}.cl{fill:url(#d);}.cm{fill:#60b268;}.cn{fill:#009245;}.co{fill:url(#f);}.cp{fill:url(#g);}.cq{fill:url(#h);}.cr{fill:url(#i);}.cs{fill:url(#j);}.ct{fill:#662d91;}.cu{fill:url(#k);}.cw{fill:#ed1c24;}</style><linearGradient id="a" x1="1015.21" y1="741.06" x2="1021" y2="741.06" gradientUnits="userSpaceOnUse"><stop offset="0.22" stop-color="#60b268"/><stop offset="1" stop-color="#7bed8d"/></linearGradient><filter id="b" x="-20%" y="-20%" width="140%" height="140%" name="AI_BevelShadow_1"><feGaussianBlur result="blur" stdDeviation="4" in="SourceAlpha"/><feOffset result="offsetBlur" dx="4" dy="4" in="blur"/><feSpecularLighting result="specOut" surfaceScale="5" specularExponent="10" in="blur"><fePointLight x="-5000" y="-10000" z="-20000"/></feSpecularLighting><feComposite result="specOut" operator="in" in="specOut" in2="SourceAlpha"/><feComposite result="litPaint" operator="arithmetic" k2="1" k3="1" in="SourceGraphic" in2="specOut"/><feMerge><feMergeNode in="offsetBlur"/><feMergeNode in="litPaint"/></feMerge></filter><linearGradient id="c" x1="966.18" y1="738.58" x2="1021.06" y2="738.58" gradientUnits="userSpaceOnUse"><stop offset="0" stop-color="#7bed8d"/><stop offset="1" stop-color="#60b268"/></linearGradient><linearGradient id="d" x1="899.78" y1="742.96" x2="906.36" y2="742.96" gradientUnits="userSpaceOnUse"><stop offset="0.29" stop-color="#7bed8d"/><stop offset="0.94" stop-color="#60b268"/></linearGradient><linearGradient id="f" x1="966.18" y1="733.36" x2="973.26" y2="733.36" gradientUnits="userSpaceOnUse"><stop offset="0" stop-color="#60b268"/><stop offset="0.51" stop-color="#79e88a"/><stop offset="1" stop-color="#60b268"/></linearGradient><linearGradient id="g" x1="973.26" y1="734.36" x2="975.78" y2="734.36" xlink:href="#f"/><linearGradient id="h" x1="948.3" y1="733.37" x2="955.38" y2="733.37" xlink:href="#f"/><linearGradient id="i" x1="945.78" y1="734.33" x2="948.3" y2="734.33" xlink:href="#f"/><linearGradient id="j" x1="955.71" y1="744.38" x2="965.85" y2="744.38" gradientUnits="userSpaceOnUse"><stop offset="0" stop-color="#29abe2"/><stop offset="0.51" stop-color="#79e88a"/><stop offset="1" stop-color="#006837"/></linearGradient><linearGradient id="k" x1="959.3" y1="750.04" x2="960.8" y2="750.04" xlink:href="#f"/></defs><path class="a" d="M1012.4,711.8l-18.2,21L985.3,743l-2.1,2.4-3.8,4.4-5.2,6.1-.9,1v-7.3l.2-.4,4.8-5.4,3.4-4,1.9-2.2,8.1-9.2,16.4-18.9a54.8,54.8,0,0,0-41.7-26.6v-.6A60.9,60.9,0,0,1,1012.4,711.8Z" transform="translate(-898.9 -682)"/><path class="b" d="M966.4,682.3v.6a52.5,52.5,0,0,0-5.6-.3,54.9,54.9,0,0,0-46.7,25.9l.8,1L928.4,725l9.9,11.4,1.5,1.8,3.5,4,4.8,5.5.2.3v8.9l-2.4-2.8-5.3-6-3.9-4.5-1.7-2L924.1,729l-15-17.2-.9-1.1A61.2,61.2,0,0,1,960,682C962.2,682,964.3,682.1,966.4,682.3Z" transform="translate(-898.9 -682)"/><path class="c" d="M978.5,787.5a8.7,8.7,0,0,1-1.7,2.1h-.4a71.2,71.2,0,0,0-8.2-7.3,25.6,25.6,0,0,0-6.7-3.7,1.5,1.5,0,0,0-1.7.3,42,42,0,0,0-11.2,8.5l-1.9,1.8-.2-.2a.5.5,0,0,0-.2-.4l-.7-.7c-.6-.6-.7-1,.1-1.7,3.2-2.4,6.4-4.7,9.7-6.8.5-.3,1.5-.6,1.2-1.2s-1.1,0-1.7.2l-1.5.6a23.9,23.9,0,0,0-4.3,2.7,29.3,29.3,0,0,1-6.8,4.1,13.6,13.6,0,0,1-9.1-.5,21.1,21.1,0,0,1-7.7-4.9l2.9.2.4.2c5.7.4,11.2-.2,16.3-2.7s7.5-3.3,11.8-2.8l3.2.8a2.6,2.6,0,0,0,1.5-.1,15.4,15.4,0,0,1,12.6-.3l2.7,1.2a14.2,14.2,0,0,0,1.8.8l2,.7a32.6,32.6,0,0,0,15.5,1.5c.6,0,1.2-.3,1.8.1h.1a2.3,2.3,0,0,0-1.1.8c-3.2,2.1-6.4,4.1-10.3,4.8a13.6,13.6,0,0,1-9-2.1l-4-2.8a17.2,17.2,0,0,0-6-3.1,9.7,9.7,0,0,0-3.8-.1,3.8,3.8,0,0,0,1.1.8,49.2,49.2,0,0,1,4.3,2.6l5.6,3.8Z" transform="translate(-898.9 -682)"/><path class="d" d="M919.8,750a61.8,61.8,0,0,1,3.6,5.3,24.3,24.3,0,0,1,3,6.8,18.8,18.8,0,0,0,2,5.6,44.6,44.6,0,0,0,3.5,5c.2.2.7.4.3.8s-1.2.2-1.7-.2-.7-.3-1.1-.4a108.1,108.1,0,0,1-13.4-4c-4.4-1.8-7.6-4.8-8.7-9.6a16.1,16.1,0,0,0-.8-3.8V755l.8.9a20.4,20.4,0,0,0,3.1,4,8.6,8.6,0,0,0,3,2.4c3,1.8,6.4,2.5,9.3,4.5C920.6,761.4,920.5,755.6,919.8,750Z" transform="translate(-898.9 -682)"/><path class="e" d="M915.8,738.1a.1.1,0,0,0,.1.1,15.1,15.1,0,0,1,1.3,4.6c.6,3.5.6,7,1,10.4a40.5,40.5,0,0,0,1.6,7.7c.2.9.6,1.7.8,2.6s-.2.2-.4.2a60.8,60.8,0,0,1-10.8-7.4c-3.4-3-6.1-6.4-7.3-11a21.8,21.8,0,0,1-.2-5.7v-.2h.1a1.6,1.6,0,0,1,.4.7,28.2,28.2,0,0,0,9.3,11.3l1.9,2.3c0-.6.1-.8,0-1.1-.5-4.1.2-8.1.9-12.2A4.1,4.1,0,0,1,915.8,738.1Z" transform="translate(-898.9 -682)"/><path class="f" d="M1016.8,754.4c.2,0,.2.2.2.3-.7,2.6-1.2,5.3-2.5,7.7a23.9,23.9,0,0,1-1.3,2.1,22.6,22.6,0,0,1-8.7,4.8c-3.3,1.2-6.7,2-10,2.9-1.1.1-2.1.5-3.2.7s.5-1.3.9-1.8a27,27,0,0,0,4.9-9.9,21.3,21.3,0,0,1,2.3-5.6,59.1,59.1,0,0,1,3.5-5.2l.4-.6c.2,0,.2-.3.5-.3l-.3,1a47.9,47.9,0,0,0-1.6,9.2,21.3,21.3,0,0,1-1.1,5l-.4.8a3.6,3.6,0,0,0-.8,1.5,25.9,25.9,0,0,1,7.2-3.7c3.9-1.3,6.6-4.1,9-7.4.2-.3.5-.5.6-.9Z" transform="translate(-898.9 -682)"/><path class="g" d="M1020.7,720.8a31.2,31.2,0,0,1,1.4,8,22.2,22.2,0,0,1-2,8.8,47,47,0,0,1-8.7,11.6,9.2,9.2,0,0,1-.4-2.9,18.5,18.5,0,0,0-1.1-8.1,39.9,39.9,0,0,1-2.2-8.4,18.8,18.8,0,0,1-.1-6.7l1,1.8c2.1,3.6,4.2,7.2,5.1,11.4v.5l.3,2.1c.9-1.7,1.3-3.5,2.2-5.1,2-3.9,3-8.2,4-12.5v-.4C1020.4,720.7,1020.6,720.7,1020.7,720.8Z" transform="translate(-898.9 -682)"/><path class="h" d="M1021.6,741.6a21.3,21.3,0,0,1-2.8,8.5c-.7,1.1-1.5,2-2.2,3l-3.4,3.2c-.5.2-.7.7-1,1a1.3,1.3,0,0,0-.9.5c-2.7,1.9-5.4,3.7-8.3,5.4-.4-.4,0-.8.1-1.1a57.3,57.3,0,0,0,2.5-14.8c.2-3.2.4-6.4,1.8-9.3l.2-.6h.4c0,.3.1.6.1,1,.8,4.1,1.6,8.3,1.3,12.6-.2.3-.1.7-.2,1.1a4.4,4.4,0,0,0-.3,2c.1,0,.2,0,.2-.1l.3-.4a16.4,16.4,0,0,1,4.2-4.5c3.4-2.6,5.5-6.1,7.4-9.7l.4-.8h0C1021.8,739.6,1021.4,740.6,1021.6,741.6Z" transform="translate(-898.9 -682)"/><path class="i" d="M916,725.3a54.7,54.7,0,0,1-2,11.3,22.8,22.8,0,0,0-1.8,11.8c0,.5.2,1-.1,1.5l-.5-.5a1.4,1.4,0,0,0-.7-.8,41.1,41.1,0,0,1-7.7-10.7,20.9,20.9,0,0,1-1.8-9.3,33.2,33.2,0,0,1,1.1-6.3l.3-1a3,3,0,0,1,.5,1.6,42.7,42.7,0,0,0,3,9.8l1,2,.7,2,.4,1.2.6,1.8a28.6,28.6,0,0,1,3.6-10.4l2.8-4.8.6-.7Z" transform="translate(-898.9 -682)"/><path class="j" d="M1007.8,769.9l-.8,1-1.3,1.3c-2.3,2.5-4.6,4.8-7.8,6l-2.6.6-4.3.2a61.7,61.7,0,0,1-8.6-1.4c-2.3-.8-4.8-1.1-7.2-2.1l1.2-.5c1.9-.9,4-1.4,5.7-2.5a4.4,4.4,0,0,0,2-1.3c1.4-1.3,2.7-2.8,4.1-4s4.1-3.1,6.1-4.7a.7.7,0,0,0,.4-.6h.8a55.7,55.7,0,0,0-3.9,6.7,14.4,14.4,0,0,1-3.9,4.9,6.6,6.6,0,0,0-1.6,1.1,73.4,73.4,0,0,1,9.3-.3c4.3,0,8-1.8,11.5-4.1Z" transform="translate(-898.9 -682)"/><path class="k" d="M919.4,712.5a25.6,25.6,0,0,1-.5,2.7,16.6,16.6,0,0,1-3.4,6.9l-.5.7a18.1,18.1,0,0,0-1.8,2.1,19.5,19.5,0,0,0-4.2,7.9c-.1.5-.1,1.1-.5,1.4l-.2-.6v-.3a135.3,135.3,0,0,1-3.4-14.3,14,14,0,0,1,1.6-10.4l1.8-2.4a1.8,1.8,0,0,1,.9-.6,13.5,13.5,0,0,0-1,6.3c.3,3.1.6,6.3,1,9.4v3.6h.1c.1-.5.3-1,.4-1.5a9.7,9.7,0,0,1,2.5-4.1,21,21,0,0,1,3-2.2,8.5,8.5,0,0,0,3.1-3.4c.3-.3.6-.5.6-1l.5-.7Z" transform="translate(-898.9 -682)"/><path class="l" d="M924.7,701a9.3,9.3,0,0,1-.6,3.7,9.5,9.5,0,0,1-2.1,3.8,26.1,26.1,0,0,1-5.1,3.6,11.9,11.9,0,0,0-4.1,3.6,5.7,5.7,0,0,0-1.2,1.8,4.5,4.5,0,0,0-.6,1.2c-.1.3-.4.5-.4.8s-.1-.2-.2-.4.1-.3,0-.5a42.6,42.6,0,0,1-.3-10.1,12,12,0,0,1,3.5-8.3c1.1-1,2.4-1.7,3.6-2.6l.7-.4h.3a34.5,34.5,0,0,0-2,3.2c-.2.4-.5.8-.7,1.3a15,15,0,0,0-1.8,5.9c0,.7-.4,1.4-.2,2.1a11.8,11.8,0,0,0-.4,2c.3-.4.6-.6.7-.9a21.7,21.7,0,0,1,6.8-6,12.2,12.2,0,0,0,3.6-3.2Z" transform="translate(-898.9 -682)"/><path class="m" d="M930.6,691.2a43.3,43.3,0,0,0-7.4,9.2,27.9,27.9,0,0,1-4.6,4.5c-.9.5-1.5,1.4-2.6,1.7s.1-.1.1-.2.8-2.5,1.2-3.8c.8-2.9,1.9-5.6,4.6-7.4a34.3,34.3,0,0,1,6.3-3.3c.3-.2.8-.1,1-.7S930.1,690.7,930.6,691.2Z" transform="translate(-898.9 -682)"/><path class="n" d="M1007.8,769.9l-.9.4c-1.1-.5-1.8.4-2.5.8a23.9,23.9,0,0,1-6.4,2.6c-3.2.6-6.4.3-9.6.4a.6.6,0,0,1-.7-.5,14.4,14.4,0,0,0,3.9-4.9,55.7,55.7,0,0,1,3.9-6.7,7,7,0,0,0,.9-2.4c.5-1.7,1.5-3.2,2.1-4.9l.6-.9c.7-.6.8-1.5,1.6-2l-.2.6a24.6,24.6,0,0,0-4.2,8.6,22.1,22.1,0,0,1-2.6,6.4c-.8,1.4-1.9,2.8-2.8,4.1s-.7,1.1,0,1.6h.4a9,9,0,0,0,3.2-.9c3.3-.9,6.7-1.7,10-2.9a22.6,22.6,0,0,0,8.7-4.8c-.6,1.4-1.9,2-3.1,2.8l-2,1.1C1007.4,768.8,1007.2,769.2,1007.8,769.9ZM995,773.7c3.6.1,6.7-1.3,9.7-3.2.2-.1.6-.2.5-.6s-.6-.1-.9,0l-5.5,1.7-5.4,1.4c-.3.1-.6.1-.6.4s.4.3.7.3Z" transform="translate(-898.9 -682)"/><path class="o" d="M915,770.1c0-.5-.3-.8-.8-1.1s-3-1.3-4.1-2.7a1.8,1.8,0,0,1,.9.4,12.9,12.9,0,0,0,4.4,2.5,93.1,93.1,0,0,0,14.5,4.4,3.7,3.7,0,0,0,2.3-.1c.4-.4-.1-.6-.3-.8a44.6,44.6,0,0,1-3.5-5,18.8,18.8,0,0,1-2-5.6c.5.4,1-.1,1.5.1a5.1,5.1,0,0,1,2.4,1.3c2.4,1.9,5,3.6,7.1,5.9l.5.7h-.2a85.4,85.4,0,0,0-8.8-7.1c-.3-.2-.4-.6-.9-.3s-.2,1,0,1.6l2.1,3.7c1.1,2.1,2.1,4.3,4,6,.2.1.5.3.3.5s-.4.3-.7.3c-3.3-.3-6.6.1-9.9-.3h-.7a32.4,32.4,0,0,1-7.1-3.8A.9.9,0,0,0,915,770.1Zm13.5,4.3a.6.6,0,0,0,.7-.4c.1-.4-.3-.3-.5-.3-3.6-1-7.1-1.8-10.6-3.1-.2-.1-.6-.3-.7.1s.2.5.4.6a37.4,37.4,0,0,0,4.5,2.2A21.6,21.6,0,0,0,928.5,774.4Z" transform="translate(-898.9 -682)"/><path class="p" d="M937.7,770.1h.2c1.7,2,4,3,6.3,3.9a21.7,21.7,0,0,1,3.5,1.5,1.2,1.2,0,0,0,1.3-.1,16.6,16.6,0,0,1,6.3-.9,15.6,15.6,0,0,1,4.2.8,2.2,2.2,0,0,0,1.8-.1c4-1.6,7.9-2,11.9-.4a1.7,1.7,0,0,0,1.7-.1c1.4-.7,2.8-1.2,4.2-1.8a12.8,12.8,0,0,0,4.9-3.1,39.8,39.8,0,0,1,7.3-6.3l.6-.6c.9-.3,1.6-1.3,2.8-1a.7.7,0,0,1-.4.6,2.8,2.8,0,0,0-1.3.3,58.3,58.3,0,0,0-9.9,8.7,32,32,0,0,1-5.6,2.6c-1.2.4-2.2,1.2-3.3,1.6a15.4,15.4,0,0,0-12.6.3,2.6,2.6,0,0,1-1.5.1l-3.2-.8a11.1,11.1,0,0,0-4.8-.1c-1.4.1-2.6.9-4,.9l-5.5-2.3A9.5,9.5,0,0,1,937.7,770.1Z" transform="translate(-898.9 -682)"/><path class="q" d="M1003.4,715.9c-.3-1.5-.9-3.1-.5-4.7a1,1,0,0,0-.7-1.1,11.1,11.1,0,0,1-4.5-7.1c-.3-1.1-.7-2.3.6-3.2s0-.7-.2-1.1a40.7,40.7,0,0,0-5.3-6.5l-1-1.2c-.1-.4-.1-.7.2-.9a.6.6,0,0,1,.8-.3,21,21,0,0,1,4.9,2,19.4,19.4,0,0,1,5.8,4l.4.3c1.9-.5,3.1.8,4.5,1.7a.2.2,0,0,0,.2.2l.7.8c.4.6,1.2.8,1.3,1.6a23.6,23.6,0,0,0-5.4-4c-.1-.2-.3-.1-.4.1a.9.9,0,0,1-.8.5,11.8,11.8,0,0,0-3.1-2.8,42.4,42.4,0,0,0-7.7-3.8c-.2-.1-.3-.2-.5,0a.9.9,0,0,0,.2,1.3,48.2,48.2,0,0,1,6.3,8,17.5,17.5,0,0,0,2.9,3.2c.3.4.5.7-.2.7a14.7,14.7,0,0,1-3.1-3c0-.2,0-.5-.3-.2a2.3,2.3,0,0,0-.5,2.4c.6,3.5,2.8,6,5.6,8-.1.2-.1.5-.3.7a2.1,2.1,0,0,0-.1,2,16.9,16.9,0,0,0,.5,2.4h-.3Z" transform="translate(-898.9 -682)"/><path class="n" d="M1003,763.2c2.9-1.7,5.6-3.5,8.3-5.4a1.3,1.3,0,0,1,.9-.5,8.2,8.2,0,0,1-2.5,2c-1.3,1-2.7,1.8-4,2.7a.7.7,0,0,0-.4.5c.1.3.3.2.5.2-1.4.8-3,1.3-4.4,2.2s-.5.1-.6-.2a21.3,21.3,0,0,0,1.1-5c.8.6.7-.3.8-.6a55.2,55.2,0,0,0,1.7-12.1c-.4-.8,0-1.5.1-2.2.2-2.6.4-5.3,1.9-7.6a2.3,2.3,0,0,1,1.2.2l-.2.6c-1.2.1-1.3,1.2-1.5,2a54.4,54.4,0,0,0-1.1,8.1,53.7,53.7,0,0,1-1.3,9.8c-.4,1.3-.8,2.6-1.1,3.9S1002.4,763.1,1003,763.2Z" transform="translate(-898.9 -682)"/><path class="r" d="M920.2,763.7c.2,0,.7.5.4-.2s-.6-1.7-.8-2.6.6.3.6-.3a71.9,71.9,0,0,0-1.5-8.9c-.2-.9-.1-1.6.9-1.9v.2c.7,5.6.8,11.4,2.9,16.8-2.9-2-6.3-2.7-9.3-4.5,1.7.3,3.2,1.4,4.9,1.7,0-.5-.4-.6-.7-.8l-4.8-3.2a14.4,14.4,0,0,1-3.3-2.7l.4.2a62.7,62.7,0,0,0,7.3,5C918.1,763.1,919,763.9,920.2,763.7Z" transform="translate(-898.9 -682)"/><path class="s" d="M1009.4,751.1c1,0,1.7-.9,1.2-1.7h.4c.2,0,.3,0,.4-.2a47,47,0,0,0,8.7-11.6c.1.8.8.8,1.3,1.1l-.4.8c-.7-.1-1,.4-1.3.9a21.5,21.5,0,0,0-1.4,2.6c-2.1,3.9-6.1,6-8.8,9.3-.2.3-.2,0-.3-.1S1009.2,751.4,1009.4,751.1Z" transform="translate(-898.9 -682)"/><path class="t" d="M995.3,778.8l2.6-.6-.5.4c-.2.2-.8.2-.7.6s.6.4,1,.4.5-.1.6.1-.1.3-.3.3-1.2-.1-1.8-.1a32.6,32.6,0,0,1-15.5-1.5l-2-.7c.1-.7.7-.4,1-.4a3,3,0,0,0,1.6.3l.5.2a52.2,52.2,0,0,0,7.9,1.4A13.2,13.2,0,0,0,995.3,778.8Z" transform="translate(-898.9 -682)"/><path class="u" d="M964.6,781.2a12.9,12.9,0,0,0-3.9-1.9,1.3,1.3,0,0,0-1.2.2,35,35,0,0,0-7.8,5.4l-2.5,2.2a.6.6,0,0,1-.6.3,42,42,0,0,1,11.2-8.5,3.6,3.6,0,0,1,1.8.2,28.7,28.7,0,0,1,3.9,2,61.6,61.6,0,0,1,9.2,7.7,1.9,1.9,0,0,0,1.7.8h.4c-.5.7-1,.8-1.7.2l-2.8-2.6A49.7,49.7,0,0,0,964.6,781.2Z" transform="translate(-898.9 -682)"/><path class="v" d="M930.6,691.2c-.5-.5-1,.3-1.4,0a8.2,8.2,0,0,0-3,1c-2.8,1.4-5.7,2.7-7.6,5.4a3.5,3.5,0,0,0-1,2,13.2,13.2,0,0,0-1,3,4.8,4.8,0,0,0-.6,1.8c-.2.1-.2.3-.2.6a1.4,1.4,0,0,0,.1,1.6c-.1.2.3.5,0,.7s-1.3,1.9-2.4,2.4.2-1.4.2-2.1.1.5.2.7.2.5.4.2,1.1-.9.9-1.6a2.8,2.8,0,0,1,.2-1.8c.4-1.2.7-2.3,1.1-3.4a1,1,0,0,0-.3-1.3,34.5,34.5,0,0,1,2-3.2V697c1.4-.6,2.1-2,3.4-2.7a43.2,43.2,0,0,1,6.8-3.4,1.5,1.5,0,0,1,1.6-.1.6.6,0,0,0,.8-.2C931.2,691,930.8,691.1,930.6,691.2Z" transform="translate(-898.9 -682)"/><path class="w" d="M1000.8,764.7c.1.3.2.5.6.2s3-1.4,4.4-2.2a15.3,15.3,0,0,0,7.7-5.5q.6-.7-.3-.9l3.4-3.2a1.3,1.3,0,0,0,.2,1.3l-.4.6a3,3,0,0,0-2,1.5,20.5,20.5,0,0,1-3.7,4.1,8.3,8.3,0,0,0-1.5,1.1c-2.7,1.4-5.6,2.2-8.2,3.8a.4.4,0,0,1-.6,0Z" transform="translate(-898.9 -682)"/><path class="x" d="M913.2,724.9a18.1,18.1,0,0,1,1.8-2.1,2.3,2.3,0,0,0,.9.8c.7.4.4,1.1.1,1.7v-1.5l-.6.7c-1.1,0-1.4,1-1.8,1.8a68,68,0,0,0-3.9,7.6h-.3c.4-1,.8-2.1,1.3-3.1l2.7-4.9C913.6,725.5,914,725,913.2,724.9Z" transform="translate(-898.9 -682)"/><path class="y" d="M912.8,715.7a11.9,11.9,0,0,1,4.1-3.6,26.1,26.1,0,0,0,5.1-3.6c-.3,1-1.2,1.5-1.9,2.1s-1.1.6-.5,1.3a.5.5,0,0,1-.2.6V712l-.5.7c-1-.3-1.1.7-1.6,1l-.4.2c0-.4.8-.8.3-1.2s-.9.3-1.3.5h0C914.6,713.9,913.9,715,912.8,715.7Z" transform="translate(-898.9 -682)"/><path class="z" d="M918.6,704.9a27.9,27.9,0,0,0,4.6-4.5c.3.5.9.5,1.5.6l-.5.6a1.5,1.5,0,0,0-1.3.6,13.6,13.6,0,0,1-3.5,2.7C919.1,705,918.9,705.3,918.6,704.9Z" transform="translate(-898.9 -682)"/><path class="aa" d="M997.7,779.6c-.4,0-.8.2-1-.4s.5-.4.7-.6l.5-.4c3.2-1.2,5.5-3.5,7.8-6l1.3-1.3a16.1,16.1,0,0,1-3.8,4.4,15.8,15.8,0,0,1-4.8,3.3C997.9,778.8,997.9,779.2,997.7,779.6Z" transform="translate(-898.9 -682)"/><path class="s" d="M1021.6,741.6c-.2-1,.2-2-.2-2.9s.3-.3.3-.1A7.6,7.6,0,0,1,1021.6,741.6Z" transform="translate(-898.9 -682)"/><path class="ab" d="M934.7,786.4a2.7,2.7,0,0,1-1.4-.4,2.8,2.8,0,0,0-1.5-.6h0a3.5,3.5,0,0,0-1.6-.8,21.8,21.8,0,0,1-4.2-2.4,4.6,4.6,0,0,0-.7-.7c-.4-.5-.9-.9,0-1.4s0-.6-.1-.8a20.1,20.1,0,0,0,8.1.5,7.7,7.7,0,0,0,3-.6l8-1.8c.1.7-.5.8-.9,1a25.9,25.9,0,0,1-9.5,2.2c-1.8.1-3.7,0-5.5,0l-2.9-.2a21.1,21.1,0,0,0,7.7,4.9,13.6,13.6,0,0,0,9.1.5,7.4,7.4,0,0,1-3,.8C937.8,786.9,936.3,786.5,934.7,786.4Z" transform="translate(-898.9 -682)"/><path class="ac" d="M997,780.8c0,.3-.3.5-.6.7A25.6,25.6,0,0,1,987,786a13,13,0,0,1-9.8-1.8l-5.8-4a14.1,14.1,0,0,0-3.7-1.8c-.4-.1-1-.3-1.1,0s.3.6.7.8c2.5,1.5,4.9,3.2,7.3,4.9.1.2.3.3.3.6l-5.6-3.8a49.2,49.2,0,0,0-4.3-2.6c0-.6.4-.7.8-.6l2.1.4c2.6.7,4.7,2.5,6.9,4s4.4,3.1,7.2,3.6a9.4,9.4,0,0,0,4.7-.1C990.6,784.9,993.8,782.9,997,780.8Z" transform="translate(-898.9 -682)"/><path class="ad" d="M934.7,786.4c1.6.1,3.1.5,4.6.2a7.4,7.4,0,0,0,3-.8,29.3,29.3,0,0,0,6.8-4.1,23.9,23.9,0,0,1,4.3-2.7c.5.6,0,.8-.3,1l-3.1,2.2a25.7,25.7,0,0,0-3.7,2.8l-.6.6c-1.3.3-1.6.9-1.2,2.4-.8-.8-.8-1.2-.1-2s.6-.4.6-1-1.5.8-2.3,1A11.1,11.1,0,0,1,934.7,786.4Z" transform="translate(-898.9 -682)"/><path class="ae" d="M986.7,785.6a9.4,9.4,0,0,1-4.7.1c-2.8-.5-5-2-7.2-3.6s-4.3-3.3-6.9-4l-2.1-.4c-.4-.1-.8,0-.8.6a3.8,3.8,0,0,1-1.1-.8,9.7,9.7,0,0,1,3.8.1,17.2,17.2,0,0,1,6,3.1l4,2.8A13.6,13.6,0,0,0,986.7,785.6Z" transform="translate(-898.9 -682)"/><path class="af" d="M976.4,789.6a1.9,1.9,0,0,1-1.7-.8,61.6,61.6,0,0,0-9.2-7.7,28.7,28.7,0,0,0-3.9-2,3.6,3.6,0,0,0-1.8-.2,1.5,1.5,0,0,1,1.7-.3,25.6,25.6,0,0,1,6.7,3.7A71.2,71.2,0,0,1,976.4,789.6Z" transform="translate(-898.9 -682)"/><path class="ag" d="M928.4,780.6c1.8,0,3.7.1,5.5,0a25.9,25.9,0,0,0,9.5-2.2c.4-.2,1-.3.9-1a3.5,3.5,0,0,1,1.1-.3c.9-.4,1.9-.4,2.7-1s2.6-.8,4-.9a11.1,11.1,0,0,1,4.8.1c-4.3-.5-8,1.1-11.8,2.8s-10.6,3.1-16.3,2.7Z" transform="translate(-898.9 -682)"/><path class="ah" d="M945.7,785.6l.6-.6c.6,0,.9-.4,1.3-.7,2.1-1.6,4.4-3.1,6.7-4.6a2.7,2.7,0,0,0,.8-.7c.5-.4.2-.5-.2-.6s1.6-.6,1.7-.2-.7.9-1.2,1.2c-3.3,2.1-6.5,4.4-9.7,6.8-.8.7-.7,1.1-.1,1.7l.7.7c-1.6-.4-2-1.4-.9-2.6Z" transform="translate(-898.9 -682)"/><path class="af" d="M981.3,777.6a3,3,0,0,1-1.6-.3c-.9-.4-1.8-.9-2.8-.4l-2.7-1.2c1.1-.4,2.1-1.2,3.3-1.6a32,32,0,0,0,5.6-2.6c-.1.5-.8.5-1,1-1.7,1.1-3.8,1.6-5.7,2.5l-1.2.5c2.4,1,4.9,1.3,7.2,2.1Z" transform="translate(-898.9 -682)"/><path class="ai" d="M954.9,778.4c.4.1.7.2.2.6a2.7,2.7,0,0,1-.8.7c-2.3,1.5-4.6,3-6.7,4.6-.4.3-.7.7-1.3.7a25.7,25.7,0,0,1,3.7-2.8l3.1-2.2c.3-.2.8-.4.3-1Z" transform="translate(-898.9 -682)"/><path class="ai" d="M945.7,785.6l-.3.4c-1.1,1.2-.7,2.2.9,2.6a.5.5,0,0,1,.2.4,1,1,0,0,1-1.3-.4l-.7-.6h0C944.1,786.5,944.4,785.9,945.7,785.6Z" transform="translate(-898.9 -682)"/><path class="ae" d="M976.9,776.9c1-.5,1.9,0,2.8.4s-.9-.3-1,.4A14.2,14.2,0,0,1,976.9,776.9Z" transform="translate(-898.9 -682)"/><path class="ad" d="M944.5,788l.7.6a1,1,0,0,0,1.3.4l.2.2C945.6,789.6,945.1,789.3,944.5,788Z" transform="translate(-898.9 -682)"/><path class="aj" d="M906.5,755.5a16.1,16.1,0,0,1,.8,3.8c1.1,4.8,4.3,7.8,8.7,9.6a108.1,108.1,0,0,0,13.4,4c.4.1.8,0,1.1.4h-.7a90,90,0,0,1-14.3-4.2c-3.3-1.4-6.4-3.3-7.7-6.9C907,760,905.9,757.9,906.5,755.5Z" transform="translate(-898.9 -682)"/><path class="ak" d="M906.5,755.5c-.6,2.4.5,4.5,1.3,6.6,1.3,3.6,4.4,5.5,7.7,6.9a90,90,0,0,0,14.3,4.2h.7c.5.4,1.1,0,1.7.2a3.7,3.7,0,0,1-2.3.1,93.1,93.1,0,0,1-14.5-4.4,12.9,12.9,0,0,1-4.4-2.5,1.8,1.8,0,0,0-.9-.4l-.6-.6a21,21,0,0,1-3.3-7.5c-.2-.8-.6-1.6-.3-2.3a2.3,2.3,0,0,0-.2-2.5c1,.7,1.5,1.8,2.5,2.5a2.5,2.5,0,0,1,1.2,1.3c-.5-.1-.7-.6-1.1-.9s-.5-.7-1-.4l-.8-.9Z" transform="translate(-898.9 -682)"/><path class="al" d="M905.7,753.4a2.3,2.3,0,0,1,.2,2.5c-.3.7.1,1.5.3,2.3a21,21,0,0,0,3.3,7.5c-.9-.5-1.2-1.4-1.7-2.2a26.7,26.7,0,0,1-2.3-6.9c0-.2-.1-.4,0-.6s-.3-2.6-1.2-3.7a17.8,17.8,0,0,1-3.6-10.2c0-.4-.2-.9-.2-1.3s.1-1.4,1-1.6.7-.5.4-1.1a20.6,20.6,0,0,1-1.8-9.8,22,22,0,0,1,1.2-6.2c.2-.7.6-1.3,1.5-.8l-.3,1c-.7-.1-.8.4-1,.9a21,21,0,0,0,.1,12.4c1.7,5.3,5.1,9.5,8.9,13.4a2.1,2.1,0,0,0,1.1.4l.5.5c-1.1.2-.7.8-.4,1.5a28.2,28.2,0,0,1-9.3-11.3,1.6,1.6,0,0,0-.4-.7h-.1v.2a1.4,1.4,0,0,0-.9,1.1,4.5,4.5,0,0,0,.1,2A18.1,18.1,0,0,0,905.7,753.4Z" transform="translate(-898.9 -682)"/><path class="am" d="M905.7,753.4a18.1,18.1,0,0,1-4.6-10.7,4.5,4.5,0,0,1-.1-2,1.4,1.4,0,0,1,.9-1.1,21.8,21.8,0,0,0,.2,5.7c1.2,4.6,3.9,8,7.3,11a60.8,60.8,0,0,0,10.8,7.4c-1.2.2-2.1-.6-3-1.2a62.7,62.7,0,0,1-7.3-5l-.4-.2h-.1a2.5,2.5,0,0,0-1.2-1.3C907.2,755.2,906.7,754.1,905.7,753.4Z" transform="translate(-898.9 -682)"/><path class="an" d="M991.3,773.1h-.4a2.5,2.5,0,0,1,.7-2,26.2,26.2,0,0,0,4.8-9.4,26.1,26.1,0,0,1,2.7-6.7l1.6-2.6c.7-.7,1-1.8,2.2-2a59.1,59.1,0,0,0-3.5,5.2,21.3,21.3,0,0,0-2.3,5.6,27,27,0,0,1-4.9,9.9c-.4.5-1.1,1-.9,1.8Z" transform="translate(-898.9 -682)"/><path class="ao" d="M1000.4,765.5a.4.4,0,0,0,.6,0c2.6-1.6,5.5-2.4,8.2-3.8a1.8,1.8,0,0,0,1-.4,18.3,18.3,0,0,0,4.5-4.7,1.4,1.4,0,0,1,1.1-.7c-2.4,3.3-5.1,6.1-9,7.4a25.9,25.9,0,0,0-7.2,3.7A3.6,3.6,0,0,1,1000.4,765.5Z" transform="translate(-898.9 -682)"/><path class="ap" d="M1015.8,755.9a1.4,1.4,0,0,0-1.1.7,18.3,18.3,0,0,1-4.5,4.7,1.8,1.8,0,0,1-1,.4,8.3,8.3,0,0,1,1.5-1.1,20.5,20.5,0,0,0,3.7-4.1,3,3,0,0,1,2-1.5C1016.3,755.4,1016,755.6,1015.8,755.9Z" transform="translate(-898.9 -682)"/><path class="aq" d="M1002.9,750.4c-1.2.2-1.5,1.3-2.2,2h-.2l.2-.6a9,9,0,0,1,1.5-1.9.8.8,0,0,1,1.1-.1Z" transform="translate(-898.9 -682)"/><path class="ar" d="M991.3,773.1v-.2c1.1-.2,2.1-.6,3.2-.7A9,9,0,0,1,991.3,773.1Z" transform="translate(-898.9 -682)"/><path class="as" d="M1011.4,749.2c-.1.2-.2.2-.4.2a2.8,2.8,0,0,1-.6-2.3,22.8,22.8,0,0,0-1-8.6,30.2,30.2,0,0,1-1.9-6.5c-.3-2.9-1.7-5.9-.3-8.9v-.2c.2,0,.3,0,.4.2a18.8,18.8,0,0,0,.1,6.7,39.9,39.9,0,0,0,2.2,8.4,18.5,18.5,0,0,1,1.1,8.1A9.2,9.2,0,0,0,1011.4,749.2Z" transform="translate(-898.9 -682)"/><path class="at" d="M1020.3,721.3c-1,4.3-2,8.6-4,12.5-.9,1.6-1.3,3.4-2.2,5.1l-.3-2.1c.2.1.4.6.5.1s1.6-3.3,2.1-5l.3-.5a41.6,41.6,0,0,0,2.5-8.3A2,2,0,0,1,1020.3,721.3Z" transform="translate(-898.9 -682)"/><path class="au" d="M1020.3,721.3a2,2,0,0,0-1.1,1.8,41.6,41.6,0,0,1-2.5,8.3l-.3.5h-.2a80.7,80.7,0,0,0,2.9-9.9c.1-.5.1-1.5,1.3-1Z" transform="translate(-898.9 -682)"/><path class="av" d="M1016.2,731.8h.2c-.5,1.7-1.6,3.3-2.1,5s-.3,0-.5-.1v-.5a1.7,1.7,0,0,0,.3-3,1.4,1.4,0,0,1-.7-1.1,20.2,20.2,0,0,1-.7-2.3l.4.3h0a3.5,3.5,0,0,0,.6,1.7,1.9,1.9,0,0,0,1,.8c.1.3.1.6.3.7l.5-1.5a2,2,0,0,0,.1.5C1015.9,732.5,1015.9,732,1016.2,731.8Z" transform="translate(-898.9 -682)"/><path class="aw" d="M1010,725.5l-.9-.8c-.3-.3-.4-.2-.5.2l-1-1.8c-.1-.2-.2-.2-.4-.2a1.3,1.3,0,0,0-.5-1.2,18,18,0,0,1-3.1-5.8h.1l.4.4a22.3,22.3,0,0,0,4.6,7.5A3.7,3.7,0,0,1,1010,725.5Z" transform="translate(-898.9 -682)"/><path class="ax" d="M1003,763.2c-.6-.1-.8-.6-.6-1.4s.7-2.6,1.1-3.9a53.7,53.7,0,0,0,1.3-9.8,54.4,54.4,0,0,1,1.1-8.1c.2-.8.3-1.9,1.5-2-1.4,2.9-1.6,6.1-1.8,9.3a57.3,57.3,0,0,1-2.5,14.8C1003,762.4,1002.6,762.8,1003,763.2Z" transform="translate(-898.9 -682)"/><path class="ay" d="M1009.2,752.2c.1.1.1.4.3.1,2.7-3.3,6.7-5.4,8.8-9.3a21.5,21.5,0,0,1,1.4-2.6c.3-.5.6-1,1.3-.9-1.9,3.6-4,7.1-7.4,9.7a16.4,16.4,0,0,0-4.2,4.5l-.3.4c0,.1-.1.1-.2.1A4.4,4.4,0,0,1,1009.2,752.2Z" transform="translate(-898.9 -682)"/><path class="az" d="M911.6,749.4a2.1,2.1,0,0,1-1.1-.4c-3.8-3.9-7.2-8.1-8.9-13.4a21,21,0,0,1-.1-12.4c.2-.5.3-1,1-.9a33.2,33.2,0,0,0-1.1,6.3,20.9,20.9,0,0,0,1.8,9.3,41.1,41.1,0,0,0,7.7,10.7A1.4,1.4,0,0,1,911.6,749.4Z" transform="translate(-898.9 -682)"/><path class="ba" d="M906.3,732.7c.5-.4.4-.8.2-1.3-.9-3.8-2-7.6-2.7-11.5s-.7-7.3,1.1-10.7a14.5,14.5,0,0,1,1.9-2.9,2.3,2.3,0,0,1,2.3-.9v.2a1.8,1.8,0,0,0-.9.6c-.9-.1-1.3.6-1.7,1.1-2.5,3.4-3,7.2-2.5,11.2s1.9,8.4,2.9,12.6a4.5,4.5,0,0,0,.1,1.1c.3.6.2,1.5,1.3,1.4l.2.6c-.5.1-1-.1-1.2.5Z" transform="translate(-898.9 -682)"/><path class="bb" d="M909.7,733.9a68,68,0,0,1,3.9-7.6c.4-.8.7-1.8,1.8-1.8l-2.8,4.8a28.6,28.6,0,0,0-3.6,10.4l-.6-1.8a.7.7,0,0,0,.4-.5Z" transform="translate(-898.9 -682)"/><path class="bc" d="M909.7,733.9l-.9,3.5a.7.7,0,0,1-.4.5,5.6,5.6,0,0,0-.4-1.2c.5.2.6-.2.7-.6a20.2,20.2,0,0,1,.7-2.3Z" transform="translate(-898.9 -682)"/><path class="bd" d="M987.7,773.6a.6.6,0,0,0,.7.5c3.2-.1,6.4.2,9.6-.4a23.9,23.9,0,0,0,6.4-2.6c.7-.4,1.4-1.3,2.5-.8-3.5,2.3-7.2,4.1-11.5,4.1a73.4,73.4,0,0,0-9.3.3A6.6,6.6,0,0,1,987.7,773.6Z" transform="translate(-898.9 -682)"/><path class="be" d="M982.1,772.5c.2-.5.9-.5,1-1a58.3,58.3,0,0,1,9.9-8.7,2.8,2.8,0,0,1,1.3-.3c-2,1.6-4.1,3-6.1,4.7s-2.7,2.7-4.1,4A4.4,4.4,0,0,1,982.1,772.5Z" transform="translate(-898.9 -682)"/><path class="ae" d="M981.3,777.6h1.1A61.7,61.7,0,0,0,991,779l4.3-.2a13.2,13.2,0,0,1-5.6.4,52.2,52.2,0,0,1-7.9-1.4Z" transform="translate(-898.9 -682)"/><path class="bf" d="M906.9,731.1c-1-4.2-2.3-8.3-2.9-12.6s0-7.8,2.5-11.2c.4-.5.8-1.2,1.7-1.1l-1.8,2.4a14,14,0,0,0-1.6,10.4,135.3,135.3,0,0,0,3.4,14.3.8.8,0,0,1-.8-.7A8.8,8.8,0,0,0,906.9,731.1Z" transform="translate(-898.9 -682)"/><path class="bg" d="M909.1,705.6v-.2c.5-.3.3-.9.8-1.2a22.6,22.6,0,0,0-.8,4.4c0,2.6-.1,5.1,0,7.7a6.1,6.1,0,0,0,.4,2.7c.7,1.2.7,1.4-.4,2.3-.4-3.1-.7-6.3-1-9.4A13.5,13.5,0,0,1,909.1,705.6Z" transform="translate(-898.9 -682)"/><path class="bh" d="M909.1,721.3c1.1-.9,1.1-1.1.4-2.3a6.1,6.1,0,0,1-.4-2.7c-.1-2.6,0-5.1,0-7.7a22.6,22.6,0,0,1,.8-4.4,6.2,6.2,0,0,1,1.7-3.2,9.5,9.5,0,0,0,2-2,24,24,0,0,1,2.6-1.8h1.7l-.7.4a2.3,2.3,0,0,0-1.6.4,15.4,15.4,0,0,0-3.8,3.4,9.2,9.2,0,0,0-2,4.5,6.5,6.5,0,0,0-.3,3.1h0a16.1,16.1,0,0,0,0,5.8h0a20.8,20.8,0,0,0,0,2.5c.1.6-.1,1.3.7,1.5l.2.4c.1.2,0,.3.2.4a.6.6,0,0,1,.1.4c-.7.7-.8,1.8-1.6,2.4Z" transform="translate(-898.9 -682)"/><path class="bi" d="M909.1,722.3c.8-.6.9-1.7,1.6-2.4l2.9-2.2a13.6,13.6,0,0,0,3.4-3c.3-.4.6-.9,1.2-1a8.5,8.5,0,0,1-3.1,3.4,21,21,0,0,0-3,2.2,9.7,9.7,0,0,0-2.5,4.1c-.1.5-.3,1-.4,1.5h-.1Z" transform="translate(-898.9 -682)"/><path class="bj" d="M918.2,713.7c-.6.1-.9.6-1.2,1a13.6,13.6,0,0,1-3.4,3l-2.9,2.2a.6.6,0,0,0-.1-.4c0-.3.3-.5.4-.8s.5.1.7,0l3.2-2.3a6.7,6.7,0,0,0,2.3-2.7c.5-.3.6-1.3,1.6-1S918.5,713.4,918.2,713.7Z" transform="translate(-898.9 -682)"/><path class="bk" d="M906.9,731.1a8.8,8.8,0,0,1,.5,1.5.8.8,0,0,0,.8.7v.3c-1.1.1-1-.8-1.3-1.4A4.5,4.5,0,0,1,906.9,731.1Z" transform="translate(-898.9 -682)"/><path class="bl" d="M909.8,705.9a9.2,9.2,0,0,1,2-4.5,15.4,15.4,0,0,1,3.8-3.4,2.3,2.3,0,0,1,1.6-.4c-1.2.9-2.5,1.6-3.6,2.6a12,12,0,0,0-3.5,8.3,42.6,42.6,0,0,0,.3,10.1c.1.2,0,.3,0,.5s-.1-.2-.2-.4a6.1,6.1,0,0,1-.5-3.3,1,1,0,0,0-.2-.7h0v-5.8h0A10.5,10.5,0,0,0,909.8,705.9Z" transform="translate(-898.9 -682)"/><path class="bm" d="M918.6,704.9c.3.4.5.1.8,0a13.6,13.6,0,0,0,3.5-2.7,1.5,1.5,0,0,1,1.3-.6,12.2,12.2,0,0,1-3.6,3.2,21.7,21.7,0,0,0-6.8,6c-.1.3-.4.5-.7.9a11.8,11.8,0,0,1,.4-2c1.1-.5,1.6-1.6,2.4-2.4s-.1-.5,0-.7h.1C917.1,706.3,917.7,705.4,918.6,704.9Z" transform="translate(-898.9 -682)"/><path class="bn" d="M911.6,717.5c.1.4.1.7.7.4a15.6,15.6,0,0,0,4.5-4l.4-.2a6.7,6.7,0,0,1-2.3,2.7l-3.2,2.3c-.2.1-.4.7-.7,0A4.5,4.5,0,0,1,911.6,717.5Z" transform="translate(-898.9 -682)"/><path class="n" d="M917.9,697.2h-1.7c.6-.7,1.3-.2,2-.2v.2Z" transform="translate(-898.9 -682)"/><path class="bo" d="M936.3,779.2a7.7,7.7,0,0,1-3,.6,20.1,20.1,0,0,1-8.1-.5,11.1,11.1,0,0,1-3-1.2,36.4,36.4,0,0,1-5-4.6c-.7-.8-1.7-1.5-1.7-2.7s-.3-.4-.4-.5v-.2a.9.9,0,0,1,1,.5c-.3.2,0,.3.1.5l1.5,1.8c3.6,4.6,8.1,7,14,6.7Z" transform="translate(-898.9 -682)"/><path class="o" d="M915.1,770.3c.1.1.4.3.4.5s1,1.9,1.7,2.7a36.4,36.4,0,0,0,5,4.6h0c-2.4-1.4-4.2-3.5-6.1-5.5a9.5,9.5,0,0,1-1.2-1.6C914.7,770.8,914.6,770.5,915.1,770.3Z" transform="translate(-898.9 -682)"/><path class="bp" d="M922.2,778.2h0a11.1,11.1,0,0,0,3,1.2c.1.2.7.5.1.8s-.4.9,0,1.4a4.6,4.6,0,0,1,.7.7c-.9-.5-1.9-.9-1.4-2.3s-.2-.5-.5-.6A18.6,18.6,0,0,1,922.2,778.2Z" transform="translate(-898.9 -682)"/><path class="n" d="M913.6,699a9.5,9.5,0,0,1-2,2A4.3,4.3,0,0,1,913.6,699Z" transform="translate(-898.9 -682)"/><path class="ad" d="M930.2,784.6a3.5,3.5,0,0,1,1.6.8A1.9,1.9,0,0,1,930.2,784.6Z" transform="translate(-898.9 -682)"/><path class="ad" d="M931.8,785.4a2.8,2.8,0,0,1,1.5.6A2.8,2.8,0,0,1,931.8,785.4Z" transform="translate(-898.9 -682)"/><path class="bm" d="M915.8,705c0-.3,0-.5.2-.6a2.5,2.5,0,0,0,.6-1.8,13.2,13.2,0,0,1,1-3,5.4,5.4,0,0,0,1-2c1.9-2.7,4.8-4,7.6-5.4a8.2,8.2,0,0,1,3-1c-.2.6-.7.5-1,.7a34.3,34.3,0,0,0-6.3,3.3c-2.7,1.8-3.8,4.5-4.6,7.4-.4,1.3-.7,2.6-1.2,3.8A3.5,3.5,0,0,1,915.8,705Z" transform="translate(-898.9 -682)"/><path class="bq" d="M915.8,705a3.5,3.5,0,0,0,.3,1.4c0,.1,0,.1-.1.2h-.1A1.4,1.4,0,0,1,915.8,705Z" transform="translate(-898.9 -682)"/><path class="ar" d="M1000.5,752.4h.2l-1.6,2.6a26.1,26.1,0,0,0-2.7,6.7,26.2,26.2,0,0,1-4.8,9.4,2.5,2.5,0,0,0-.7,2c-.7-.5-.4-1,0-1.6s2-2.7,2.8-4.1a22.1,22.1,0,0,0,2.6-6.4A24.6,24.6,0,0,1,1000.5,752.4Z" transform="translate(-898.9 -682)"/><path class="j" d="M936.3,779.2l-4.7.4c-5.9.3-10.4-2.1-14-6.7l-1.5-1.8c-.1-.2-.4-.3-.1-.5a32.4,32.4,0,0,0,7.1,3.8h.7a3.3,3.3,0,0,0,1.4.4c3.6.4,7.3,0,11,.3h.3c-.1-.4-.5-.6-.8-.8a14.3,14.3,0,0,1-2.3-2,41.4,41.4,0,0,1-3-5c-.9-1.5-1.4-3.2-2.4-4.6.5-.3.6.1.9.3a85.4,85.4,0,0,1,8.8,7.1,9.5,9.5,0,0,0,4.9,3.7l5.5,2.3c-.8.6-1.8.6-2.7,1a3.5,3.5,0,0,0-1.1.3Z" transform="translate(-898.9 -682)"/><path class="bj" d="M928,762.7c1,1.4,1.5,3.1,2.4,4.6a41.4,41.4,0,0,0,3,5,14.3,14.3,0,0,0,2.3,2c.3.2.7.4.8.8h-.3c-3.7-.3-7.4.1-11-.3a3.3,3.3,0,0,1-1.4-.4c3.3.4,6.6,0,9.9.3.3,0,.6,0,.7-.3s-.1-.4-.3-.5c-1.9-1.7-2.9-3.9-4-6l-2.1-3.7C927.8,763.7,927.6,763.2,928,762.7Z" transform="translate(-898.9 -682)"/><path class="br" d="M1010.6,700.4a11.1,11.1,0,0,1,2.1,4.2c1,4.3.6,8.6.4,12.9a3.7,3.7,0,0,1-.1,1.1c-.1.3-.1.3-.4-.1a1.4,1.4,0,0,0-.2-.6l-.3-.5a15.6,15.6,0,0,0-6.9-6.8,11.1,11.1,0,0,1-5.5-5.6,18,18,0,0,1-1-4,.6.6,0,0,1,.1-.4,14.7,14.7,0,0,0,3.1,3l4.7,3.2a18.5,18.5,0,0,0,1.4,1.4l1,1.4a5.3,5.3,0,0,0,1.4,1.7,48,48,0,0,1-.8-4.8,19.2,19.2,0,0,0-4.2-9.4.6.6,0,0,1-.2-.7A23.6,23.6,0,0,1,1010.6,700.4Z" transform="translate(-898.9 -682)"/><path class="m" d="M992.7,690.4c.2-.2.3-.1.5,0a42.4,42.4,0,0,1,7.7,3.8,11.8,11.8,0,0,1,3.1,2.8l1.2,2.4a34.7,34.7,0,0,0,1.9,5.7c.2.5.2.5-.1.8s-.7-.4-1-.7l-2.6-2.1c-2.2-1.9-3.6-4.4-5.3-6.7a27.9,27.9,0,0,0-4.6-5.1C993.1,691.1,993.1,690.6,992.7,690.4Z" transform="translate(-898.9 -682)"/><path class="bs" d="M1012.4,717.9a1.4,1.4,0,0,1,.2.6c-.3.2-.6.4-.6.8l-1.2-1.2c.6-.1.3-.5.2-.8-1.3-2.8-3.6-4.6-6.3-6.1-.2-.1-.4-.2-.5.2s-.1.4-.1.6-.5,1-.4,1.7a17.4,17.4,0,0,0,2.6,6.5c1.1,1.6,2.5,3,3.7,4.6a15.2,15.2,0,0,1,3,5.4l-.4-.3a17.6,17.6,0,0,0-2.6-4.4,3.7,3.7,0,0,0-1.3-1.7,22.3,22.3,0,0,1-4.6-7.5l-.4-.4a16.9,16.9,0,0,1-.5-2.4c.1-.6-.1-1.3.5-1.8s.3-.6-.1-.9c-2.8-2-5-4.5-5.6-8a2.3,2.3,0,0,1,.5-2.4c.3-.3.3,0,.3.2a.6.6,0,0,0-.1.4.8.8,0,0,1-.1.4c-.7.4-.4,1-.1,1.6a2.2,2.2,0,0,0,.3,1.4c1,3,3.1,4.8,5.7,6.3a15.4,15.4,0,0,1,6.8,6.3C1011.5,717.5,1011.7,718,1012.4,717.9Z" transform="translate(-898.9 -682)"/><path class="bt" d="M1006,705.2c.3.3.8.3,1,.7s-.6.4-.4.9l-4.7-3.2c.7,0,.5-.3.2-.7a17.5,17.5,0,0,1-2.9-3.2,48.2,48.2,0,0,0-6.3-8,.9.9,0,0,1-.2-1.3c.4.2.4.7.8.9s.2.6.4.9l3.1,3.5c1.9,2.6,3.4,5.5,6,7.5C1003.9,703.9,1004.6,705.1,1006,705.2Z" transform="translate(-898.9 -682)"/><path class="bu" d="M1005.2,699.4,1004,697a.9.9,0,0,0,.8-.5c.1-.2.3-.3.4-.1a.6.6,0,0,0,.2.7c-.4.6.1,1.1.4,1.6a17.9,17.9,0,0,1,3.1,7.7c.1,1,.6,2.1.1,3.2l-1-1.4c.5.2.7,0,.6-.5a13.7,13.7,0,0,0-1.2-5.3,11.8,11.8,0,0,0-1.6-2.9C1005.7,699.4,1005.5,698.7,1005.2,699.4Z" transform="translate(-898.9 -682)"/><path class="aw" d="M1003.6,710.8c.4.3.4.7.1.9s-.4,1.2-.5,1.8a2.1,2.1,0,0,1,.1-2C1003.5,711.3,1003.5,711,1003.6,710.8Z" transform="translate(-898.9 -682)"/><path class="bv" d="M1004.1,712c0-.2-.1-.5.1-.6a1.5,1.5,0,0,0,.6,1,7.1,7.1,0,0,0,1.2,1.8c.1.3.4.5.6.8a25.3,25.3,0,0,0,4.2,3.1l1.2,1.2,1.2,1.8.4,1.2.7,2.5a2.6,2.6,0,0,0,.1-.7,101.8,101.8,0,0,1,.9-12.3,10.3,10.3,0,0,0-.5-5.2c.1-.6-.5-1.1-.2-1.7,3.9,3.9,4.8,8.6,3.9,13.9s-2,8.4-3,12.6c0,.2-.1.4-.1.6l-.5,1.5c-.2-.1-.2-.4-.3-.7a21.3,21.3,0,0,0-4.5-8.7c-1.9-2.2-3.9-4.4-4.9-7.2A28.8,28.8,0,0,1,1004.1,712Z" transform="translate(-898.9 -682)"/><path class="bw" d="M1013.2,721.1l-1.2-1.8c0-.4.3-.6.6-.8s.3.4.4.1a3.7,3.7,0,0,0,.1-1.1c.2-4.3.6-8.6-.4-12.9.6.4,1.1-.4,1.7,0a2,2,0,0,0-.4,2.1,15.2,15.2,0,0,1,.2,6,55.1,55.1,0,0,0-.6,7A2.3,2.3,0,0,1,1013.2,721.1Z" transform="translate(-898.9 -682)"/><path class="bx" d="M1013.2,721.1a2.3,2.3,0,0,0,.4-1.4,55.1,55.1,0,0,1,.6-7,15.2,15.2,0,0,0-.2-6,2,2,0,0,1,.4-2.1l.2.3c-.3.6.3,1.1.2,1.7s-.2.7-.1,1.1a21.8,21.8,0,0,1,0,5.1c-.2,2.7-.7,5.3-.7,8a2.1,2.1,0,0,1-.4,1.5Z" transform="translate(-898.9 -682)"/><path class="aw" d="M1007.2,723.1c-1.4,3,0,6,.3,8.9a30.2,30.2,0,0,0,1.9,6.5,22.8,22.8,0,0,1,1,8.6,2.8,2.8,0,0,0,.6,2.3h-.4c-.9-.7-.6-1.7-.5-2.6a17.1,17.1,0,0,0-.9-7.8,47.5,47.5,0,0,1-2.8-12.4,19.4,19.4,0,0,1-.2-2.4C1006.2,723.5,1006.5,723.1,1007.2,723.1Z" transform="translate(-898.9 -682)"/><path class="bq" d="M918.6,697.6a5.4,5.4,0,0,1-1,2A3.5,3.5,0,0,1,918.6,697.6Z" transform="translate(-898.9 -682)"/><path class="bq" d="M916.6,702.6a2.5,2.5,0,0,1-.6,1.8A4.8,4.8,0,0,1,916.6,702.6Z" transform="translate(-898.9 -682)"/><path class="by" d="M1004.1,712a28.8,28.8,0,0,0,1.1,4.9c1,2.8,3,5,4.9,7.2a21.3,21.3,0,0,1,4.5,8.7,1.9,1.9,0,0,1-1-.8,2.7,2.7,0,0,0-.6-1.7h0a15.2,15.2,0,0,0-3-5.4c-1.2-1.6-2.6-3-3.7-4.6a17.4,17.4,0,0,1-2.6-6.5C1003.6,713,1004.2,712.6,1004.1,712Z" transform="translate(-898.9 -682)"/><path class="bs" d="M1013,730.3a2.7,2.7,0,0,1,.6,1.7A3.5,3.5,0,0,1,1013,730.3Z" transform="translate(-898.9 -682)"/><path class="bz" d="M909.5,708.9v5.8A16.1,16.1,0,0,1,909.5,708.9Z" transform="translate(-898.9 -682)"/><path class="bz" d="M909.5,714.7a1,1,0,0,1,.2.7,6.1,6.1,0,0,0,.5,3.3c-.8-.2-.6-.9-.7-1.5A20.8,20.8,0,0,1,909.5,714.7Z" transform="translate(-898.9 -682)"/><path class="bz" d="M909.8,705.9a10.5,10.5,0,0,1-.3,3.1A6.5,6.5,0,0,1,909.8,705.9Z" transform="translate(-898.9 -682)"/><path class="ca" d="M998.6,701.4a.8.8,0,0,0,.1-.4,18,18,0,0,0,1,4,11.1,11.1,0,0,0,5.5,5.6,15.6,15.6,0,0,1,6.9,6.8l.3.5c-.7.1-.9-.4-1.1-.9a15.4,15.4,0,0,0-6.8-6.3c-2.6-1.5-4.7-3.3-5.7-6.3a2.2,2.2,0,0,1-.3-1.4C998.5,702.5,998.6,701.9,998.6,701.4Z" transform="translate(-898.9 -682)"/><path class="cb" d="M1009,709.6c.5-1.1,0-2.2-.1-3.2a17.9,17.9,0,0,0-3.1-7.7c-.3-.5-.8-1-.4-1.6a19.2,19.2,0,0,1,4.2,9.4,48,48,0,0,0,.8,4.8A5.3,5.3,0,0,1,1009,709.6Z" transform="translate(-898.9 -682)"/><path class="cc" d="M1006,705.2c-1.4-.1-2.1-1.3-3-2-2.6-2-4.1-4.9-6-7.5l-3.1-3.5c-.2-.3-.5-.5-.4-.9a27.9,27.9,0,0,1,4.6,5.1c1.7,2.3,3.1,4.8,5.3,6.7Z" transform="translate(-898.9 -682)"/><path class="cd" d="M1004.8,712.4a1.5,1.5,0,0,1-.6-1c.1-.4.3-.3.5-.2,2.7,1.5,5,3.3,6.3,6.1.1.3.4.7-.2.8a25.3,25.3,0,0,1-4.2-3.1c-.2-.3-.5-.5-.6-.8a31.8,31.8,0,0,0,3.5,2.6c.2.1.4.4.7.2s0-.6-.1-.8a14.4,14.4,0,0,0-4.4-4.1C1005.3,711.9,1005,711.8,1004.8,712.4Z" transform="translate(-898.9 -682)"/><path class="ce" d="M998.6,701.4c0,.5-.1,1.1-.1,1.6S997.9,701.8,998.6,701.4Z" transform="translate(-898.9 -682)"/><path class="cf" d="M1013.6,722.3a2.1,2.1,0,0,0,.4-1.5c0-2.7.5-5.3.7-8a21.8,21.8,0,0,0,0-5.1c-.1-.4-.3-.8.1-1.1a10.3,10.3,0,0,1,.5,5.2,101.8,101.8,0,0,0-.9,12.3,2.6,2.6,0,0,1-.1.7Z" transform="translate(-898.9 -682)"/><path class="cg" d="M1021,737.8a20.9,20.9,0,0,1-.1,2.5,58.9,58.9,0,0,1-5.7,23.4V719.3l.9-.3,1.8-.6A62.1,62.1,0,0,1,1021,737.8Z" transform="translate(-898.9 -682)"/><path class="ch" d="M966.8,702.2a1.5,1.5,0,0,0-.3-.7,3,3,0,0,0-.6-1.1h0c0,.2.1.4,0,.6s-.1.8-.5.9l-.9.4-1.3.7a4.3,4.3,0,0,0-.9,1l-.3.9a.9.9,0,0,1-.1.5v-.2a8.3,8.3,0,0,0-.8-2.2,4.2,4.2,0,0,0-2.6-1.9H956a5.3,5.3,0,0,0-1.2.3l-1.4.2h-.2a3.8,3.8,0,0,1,2.1,2.2,12.4,12.4,0,0,0,1,2,5.6,5.6,0,0,0,1.6,2.1,5.2,5.2,0,0,0,1.9,1.1l1.1.2a1.9,1.9,0,0,1,1,.3,2,2,0,0,1,.8,1.2,5,5,0,0,0-.2-1.2.5.5,0,0,0,.2.4,1.9,1.9,0,0,1-.2-.7,6.8,6.8,0,0,1-.2-1.4.6.6,0,0,1,.3-.6.5.5,0,0,1,.5-.3,2.9,2.9,0,0,1,1-.3l.9-.4.7-.5a5.7,5.7,0,0,0,1.1-1.6A2.8,2.8,0,0,0,966.8,702.2Zm-11.1-.2h1.1a6.8,6.8,0,0,1,2,.7,6.5,6.5,0,0,1,2.9,3.2,5,5,0,0,1,.4,1.3h.1c0,.1,0,.1-.1.2v.2a3.7,3.7,0,0,0,.1,1.1h0c.1,0,.1.1.1.2A11.1,11.1,0,0,0,955.7,702Zm9.8,1.1a6.9,6.9,0,0,1-1.6,1.8l-1.2,1.2a1.7,1.7,0,0,0-.5,1.2V707a.3.3,0,0,1-.1-.2h0v-.3h0c-.1,0-.1,0,0-.1h0a4.3,4.3,0,0,1,1.3-1.7l1.5-1.1.9-.7h0A.9.9,0,0,1,965.5,703.1Z" transform="translate(-898.9 -682)"/><g class="ci"><path class="cj" d="M1021.1,704.5v33.3h-.1a62.1,62.1,0,0,0-3.1-19.4l-1.8.6-.9.3-25.5,29.3h0L977,763.1l-7.7,8.9a4.7,4.7,0,0,1-3.1,1.6V735.7a23.5,23.5,0,0,0,3.7.5h1.6l1.8-.3v21.1l.9-1,5.2-6.1,3.8-4.4,2.1-2.4,8.9-10.2,18.2-21,1.8-2,5.1-5.9A1,1,0,0,1,1021.1,704.5Z" transform="translate(-898.9 -682)"/></g><path class="ck" d="M962.4,709.1a10.9,10.9,0,0,0-6.6-7.1l1,.2a4.8,4.8,0,0,1,2,.7,5.9,5.9,0,0,1,2.9,3.1,5,5,0,0,1,.4,1.3c.1,0,.1.1,0,.2a5.9,5.9,0,0,0,.2,1.3C962.3,708.9,962.4,709,962.4,709.1Z" transform="translate(-898.9 -682)"/><path class="ck" d="M965.8,702.5l-.3.5a9.3,9.3,0,0,1-1.6,1.8l-1.2,1.2a1.7,1.7,0,0,0-.5,1.2,4.3,4.3,0,0,0-.1-.5v-.6c-.1,0,0,0,0-.1a4,4,0,0,1,1.3-1.6l1.5-1.2a2.7,2.7,0,0,0,.8-.7Z" transform="translate(-898.9 -682)"/><path class="cl" d="M906.4,719.3v47.5a60.1,60.1,0,0,1-6.5-18.4c-.1-1.4-.1-2.8-.1-4.2a59.8,59.8,0,0,1,5.4-25.1Z" transform="translate(-898.9 -682)"/><g class="ci"><path class="cm" d="M955.4,735.6v38.1h0a3.8,3.8,0,0,1-2.7-1.2L943,761.4l-14.4-16.6-22.2-25.5-1.2-.2a59.8,59.8,0,0,0-5.4,25.1c0,1.4,0,2.8.1,4.2a70.5,70.5,0,0,1-.8-7.9h0a23.5,23.5,0,0,1-.1-2.6h-.1v-36h1.6l5.9,6.8,1.8,2.1.9,1.1,15,17.2L935,741.6l1.7,2,3.9,4.5,5.3,6,2.4,2.8V735.7A11.5,11.5,0,0,0,955.4,735.6Z" transform="translate(-898.9 -682)"/></g><path class="cn" d="M966.2,730.5v5.2a7.2,7.2,0,0,1-2-.9c-.2-.1-.3,0-.5.1s-.5.5-.8.5a1.1,1.1,0,0,1-.8-.2c-.2-.3.1-.4.2-.6s.7-1.7,1.2-2.5A2.5,2.5,0,0,1,966.2,730.5Z" transform="translate(-898.9 -682)"/><path class="co" d="M973.3,732.9v2.9l-1.8.3h-1.6a23.5,23.5,0,0,1-3.7-.5v-5.2h.4A29.4,29.4,0,0,1,973.3,732.9Z" transform="translate(-898.9 -682)"/><path class="cp" d="M975.5,734.8a7.2,7.2,0,0,1-2.2,1v-2.9l2.2,1.2C976,734.4,975.8,734.6,975.5,734.8Z" transform="translate(-898.9 -682)"/><path class="cq" d="M955.4,730.5v5.1a11.5,11.5,0,0,1-7.1.1v-2.8a28,28,0,0,1,6.9-2.3Z" transform="translate(-898.9 -682)"/><path class="cr" d="M948.3,732.9v2.8a5.8,5.8,0,0,1-1.7-.6c-.3-.1-.8-.3-.8-.7s.5-.4.7-.6Z" transform="translate(-898.9 -682)"/><path class="cn" d="M959.2,735.3a1.3,1.3,0,0,1-1.3-.3c-.3-.3-.4-.2-.8,0a8.5,8.5,0,0,1-1.7.6v-5.1h.3a2.6,2.6,0,0,1,2.1,1.1c.7,1,1.1,2.3,1.7,3.3S959.4,735.3,959.2,735.3Z" transform="translate(-898.9 -682)"/><path class="cs" d="M965.8,738.8a2,2,0,0,0-.4-1.3,2.5,2.5,0,0,0-3.1-.6c-.3.2-.6.4-.5.8a1.1,1.1,0,0,0,.9.6l.6-.2a.8.8,0,0,1,1.2.6c.2.8-.3,1.1-.9,1.3a19.9,19.9,0,0,1-2.6.9.4.4,0,0,1-.5,0l-2.5-.8-.8-.5a.9.9,0,0,1,0-1.3.7.7,0,0,1,1.1-.2c.5.3,1.3.1,1.4-.3s-.4-.8-.8-1.1h-.4a2.5,2.5,0,0,0-2.6,1.5,1.9,1.9,0,0,0-.2.8,2.1,2.1,0,0,0,1.3,1.8,11.2,11.2,0,0,0,2.2.9,2,2,0,0,0-1.3,2.1c.1.9.9,1.4,1.6,1.8-1.2,1-1.2,2,.1,2.9a1.3,1.3,0,0,1,.6.5l.6.2c1,.7.9,1.1-.2,1.8s-.6.7-.6,1.3c2.4-1.3,2.8-2,1.6-3.5.5-.4,1.2-.8,1.3-1.6s-.2-1.2-.9-1.6c2.1-1.2,2.3-2.4.5-3.9a7.5,7.5,0,0,0,2.7-1.3A2.2,2.2,0,0,0,965.8,738.8Zm-3.5,8.2a1.5,1.5,0,0,1-1.4,1h-.5c-.9-.4-1.3-.9-1.1-1.3a1.9,1.9,0,0,1,2.1-.6C961.8,746.3,962.4,746.4,962.3,747Zm.3-3.7c.1.8-.7,1.1-1.3,1.4h-.9c-.9-.3-1.5-.9-1.5-1.4s.8-.9,1.8-1h.3C961.7,742.4,962.5,742.5,962.6,743.3Z" transform="translate(-898.9 -682)"/><path class="ct" d="M961.9,732.9a2.1,2.1,0,0,0-.7,1.7c-.1,2.1-.1,4.2-.2,6.3a.4.4,0,0,1-.5,0c0-2.1,0-4.1-.1-6.1a2.3,2.3,0,0,0-.8-2,1.6,1.6,0,0,1,0-2.4,1.7,1.7,0,0,1,2.4.1A1.6,1.6,0,0,1,961.9,732.9Z" transform="translate(-898.9 -682)"/><path class="cu" d="M960.8,749.5c-.1-.3-.2-.2-.4-.1s-.4.8.2,1.2v.3h0c-.3.5-.6.4-.9,0a1.2,1.2,0,0,1-.3-1.4c.2-.3.2-.8.8-.6l.6.2Z" transform="translate(-898.9 -682)"/><path class="cv" d="M961,744.8h-.4a4.2,4.2,0,0,1,.1-2.5h.3A20.9,20.9,0,0,1,961,744.8Z" transform="translate(-898.9 -682)"/><path class="cw" d="M961,746.4a4.2,4.2,0,0,1-.1,1.6h-.3v-1.6c-.1-.2-.1-.4.2-.4S961,746.3,961,746.4Z" transform="translate(-898.9 -682)"/></svg>