<svg xmlns="http://www.w3.org/2000/svg" viewBox="0 0 140.7 181"><defs><style>.a{opacity:0.21;}.b{fill:#353535;}.c{fill:#60b268;}.d{fill:#7bed8d;}.e{fill:#006837;}</style></defs><g class="a"><polyline class="b" points="89.6 176 69.6 176 69.6 171"/><polyline class="b" points="49.6 176 69.6 176 69.6 171"/><polyline class="b" points="89.6 176 69.6 176 69.6 181"/><polyline class="b" points="49.6 176 69.6 176 69.6 181"/></g><path class="c" d="M130.6,70.9c0,9.2-1.5,18.4-4.6,30.6V49.4l2.2.4A106.6,106.6,0,0,1,130.6,70.9Z" transform="translate(0 -0.1)"/><path class="d" d="M130.7,37.6V70.9h-.1a106.6,106.6,0,0,0-2.4-21.1l-2.2-.4c-7.1,6.9-15.6,21.9-24.7,41.2h0c-4.5,9.5-9.2,19.9-14,30-2.9,6.1-5.8,12.1-8.7,17.8-.9,1.8-2.1,2.9-3.4,2.9h-.8a39.9,39.9,0,0,1-11.2-3.7V4.5A37.8,37.8,0,0,1,77.5.1c3.1-.4,5.6,4.3,5.6,9.7v98.9a20,20,0,0,0,1-2.1c2-4.1,4-8.1,5.9-12.2s2.9-5.9,4.3-8.8l2.3-4.8c3.2-6.6,6.4-12.8,9.5-18.3,7-12.5,13.4-21.1,19.1-25a20.2,20.2,0,0,1,4.1-2.2C129.8,35.2,130.7,36.7,130.7,37.6Z" transform="translate(0 -0.1)"/><path class="e" d="M75.2.4q-.2,70.5,0,141a39.1,39.1,0,0,1-12-3.8V4.5A46.4,46.4,0,0,1,73.4.7h0a2.2,2.2,0,0,1,.1.8,2.3,2.3,0,0,1-.4,1.4l-.8.7-1,1.2a7.7,7.7,0,0,0-.7,1.6,5.9,5.9,0,0,0-.2,1.3,1.7,1.7,0,0,0-.1.7V8.1a13.1,13.1,0,0,0-.6-2.7c-.5-1.3-1.2-1.9-2.1-1.9l-.9.2-1,.5-.9.8a3.4,3.4,0,0,1-1.2.9l-.3.2h.2a2.5,2.5,0,0,1,1.7,2.1,21.7,21.7,0,0,0,.7,2.4A7,7,0,0,0,67.1,13a2.4,2.4,0,0,0,1.4,1h.9a1.1,1.1,0,0,1,.8.2,2.1,2.1,0,0,1,.7,1.5,8.8,8.8,0,0,0-.2-1.6,1.3,1.3,0,0,1,.1.6c0-.4-.1-.7-.1-1.1a12.1,12.1,0,0,1-.1-1.9,2.9,2.9,0,0,1,.2-.9l.4-.5.8-.6.7-.7.6-.8.9-2.4a6.6,6.6,0,0,0,0-2.8l-.3-.9A5.7,5.7,0,0,0,73.5.7h-.1Z" transform="translate(0 -0.1)"/><path class="e" d="M70.6,13.3v.4c-.8-4.6-2.6-7.3-5.2-8h.8a2.2,2.2,0,0,1,1.6.3c1.1.6,1.8,1.8,2.3,3.6a5.1,5.1,0,0,1,.3,1.7c.1.1.1.1,0,.3A9.9,9.9,0,0,0,70.6,13.3Z" transform="translate(0 -0.1)"/><path class="e" d="M73.4,3.8h0c-.1.3-.1.6-.2.8a25.5,25.5,0,0,1-1.3,2.9,11.4,11.4,0,0,0-1,1.9,3.3,3.3,0,0,0-.4,1.7c0-.2-.1-.5-.1-.7V9.5a8.2,8.2,0,0,1,1-2.6c.4-.6.9-1.2,1.3-1.9Z" transform="translate(0 -0.1)"/><path class="d" d="M10.1,34.9H8.5v36h.1A60.9,60.9,0,0,1,16,41.7Z" transform="translate(0 -0.1)"/><path class="c" d="M65,34.9v71.9h0a4,4,0,0,1-2.7-1.2L52.6,94.5,38.2,77.9,16,52.4V99.9a60.1,60.1,0,0,1-7.4-29A60.9,60.9,0,0,1,16,41.7L33.7,62.1,44.6,74.7l1.7,2,3.9,4.5,5.3,6L57.9,90V36.9a2.2,2.2,0,0,1,2-2Z" transform="translate(0 -0.1)"/><g class="a"><polygon class="b" points="140.7 162 132.2 162 132.2 159.8 140.7 162"/><polygon class="b" points="123.7 162 132.2 162 132.2 159.8 123.7 162"/><polygon class="b" points="140.7 162 132.2 162 132.2 164.1 140.7 162"/><polygon class="b" points="123.7 162 132.2 162 132.2 164.1 123.7 162"/></g><g class="a"><polygon class="b" points="17 164.1 8.5 164.1 8.5 162 17 164.1"/><polygon class="b" points="0 164.1 8.5 164.1 8.5 162 0 164.1"/><polygon class="b" points="17 164.1 8.5 164.1 8.5 166.2 17 164.1"/><polygon class="b" points="0 164.1 8.5 164.1 8.5 166.2 0 164.1"/></g><path class="d" d="M68.6,25.2V22.9H69l.8,1.2.5.7h0V22.9h.3v2.3h-.3L69.4,24l-.5-.7h0v1.9Z" transform="translate(0 -0.1)"/><path class="d" d="M69,26.4v1.3c0,.6.2.8.6.8s.6-.2.6-.8V26.4h.4v1.3a.9.9,0,0,1-1,1c-.6,0-1-.2-1-1V26.4Z" transform="translate(0 -0.1)"/><path class="d" d="M69.4,30.1h-.8v-.2h2v.2h-.8v2.1h-.4Z" transform="translate(0 -0.1)"/><path class="d" d="M68.8,33.4h.7a1.5,1.5,0,0,1,.8.2.8.8,0,0,1,.2.5.6.6,0,0,1-.5.6h0a.7.7,0,0,1,.4.5c.1.3.1.5.2.6h-.4a3.9,3.9,0,0,0-.2-.6c0-.3-.2-.4-.5-.4h-.3v1h-.4Zm.4,1.1h.3c.4,0,.6-.2.6-.5s-.2-.4-.6-.4h-.3Z" transform="translate(0 -0.1)"/><path class="d" d="M69.8,36.8v2.4h-.4V36.8Z" transform="translate(0 -0.1)"/><path class="d" d="M69.4,40.6h-.8v-.3h2v.3h-.8v2.1h-.4Z" transform="translate(0 -0.1)"/><path class="d" d="M69.8,43.8v2.4h-.4V43.8Z" transform="translate(0 -0.1)"/><path class="d" d="M70.8,48.5a1.1,1.1,0,0,1-1.2,1.2,1.2,1.2,0,0,1,0-2.4A1.1,1.1,0,0,1,70.8,48.5Zm-2.1,0a.9.9,0,0,0,.9,1,1,1,0,0,0,.9-1,.9.9,0,1,0-1.8,0Z" transform="translate(0 -0.1)"/><path class="d" d="M68.6,53.1V50.8H69l.8,1.2.5.7h0V50.8h.3v2.3h-.3l-.9-1.2-.5-.7h0v1.9Z" transform="translate(0 -0.1)"/><path class="c" d="M69.4,61.9h.4l.9,2.9.7-2.9h.7L71,65.6h-.6L69.6,63l-.8,2.6h-.6l-1.1-3.7h.7l.7,2.9Z" transform="translate(0 -0.1)"/><path class="c" d="M69.9,70.9h-.6V67.2h.6Z" transform="translate(0 -0.1)"/><path class="c" d="M68.1,72.4h3v.5h-3Zm1.2.3h.6v3.4h-.6Z" transform="translate(0 -0.1)"/><path class="c" d="M68.1,77.6h.6v3.7h-.6Zm.4,1.7h2.3v.5H68.5Zm2-1.7h.6v3.7h-.6Z" transform="translate(0 -0.1)"/><path class="d" d="M68,98.4h.9l1.6,2.8h0V98.4h.7v3.7h-1l-1.5-2.8h0v2.9H68Z" transform="translate(0 -0.1)"/><path class="d" d="M69.3,103.6h.6l1.6,3.7h-.9l-1-2.5-1,2.5h-.9Zm-.8,2.4h2.2v.7H68.5Z" transform="translate(0 -0.1)"/><path class="d" d="M68,108.8h.9l1.6,2.9h0v-2.9h.7v3.7h-1l-1.5-2.8h0v2.8H68Z" transform="translate(0 -0.1)"/><path class="d" d="M68.6,117.7l-.5-.4.7-.4h.9a.6.6,0,0,0,.1-.4V114h.8v2.6a1.3,1.3,0,0,1-.1.6.7.7,0,0,1-.5.4l-.7.2Z" transform="translate(0 -0.1)"/><path class="d" d="M68.8,122.9c-.3-.2-.5-.3-.6-.5a1.9,1.9,0,0,1-.2-.8v-2.3h.8v2.4a.5.5,0,0,0,.2.4,1,1,0,0,0,1.2,0,.5.5,0,0,0,.2-.4v-2.4h.8v2.3a1.9,1.9,0,0,1-.2.8c-.1.2-.3.3-.6.5H68.8Z" transform="translate(0 -0.1)"/></svg>