<svg xmlns="http://www.w3.org/2000/svg" viewBox="0 0 625.5 451.5"><defs><style>.a{fill:#0fd930;}</style></defs><path class="a" d="M625.5,82.9c0,5.5-2.7,9.8-6.4,13.6-12.1,12-24.2,24-36.1,36.1C504.3,211.3,425.1,289.5,347.1,369c-23.5,24-47.1,48-70.5,72.1l-2.9,2.9c-10.1,10-18.7,10.1-28.9,0l-30.5-30.4c-7.9-7.9-16-15.6-23.6-23.7C130.6,325.3,66.5,264.8,4.8,201.9c-6.2-6.3-6.4-13.4-.2-20.4,3.9-4.4,8.1-8.4,12.3-12.5l51.6-51.6c2.4-2.4,4.8-4.6,8-5.9,5.4-2.3,10.3-1.7,14.6,2.6l4.3,4.2L251.7,274.5c4.8,4.9,4.8,4.9,9.7,0L528.7,7.2c7.6-7.5,14.3-9.1,21.8-5a22,22,0,0,1,5.1,4l64.1,63.9C623.3,73.7,625.6,77.7,625.5,82.9Z" transform="translate(0 0)"/></svg>